<svg width="36" height="16" viewBox="0 0 36 16" fill="none" xmlns="http://www.w3.org/2000/svg">
<path d="M34.9668 8.76855L35.9668 8.76855L35.9668 6.76855L34.9668 6.76855L34.9668 8.76855ZM0.988365 7.06145C0.597843 7.45198 0.597843 8.08514 0.988365 8.47566L7.35233 14.8396C7.74285 15.2301 8.37602 15.2301 8.76654 14.8396C9.15707 14.4491 9.15706 13.8159 8.76654 13.4254L3.10969 7.76856L8.76654 2.1117C9.15706 1.72118 9.15706 1.08801 8.76654 0.697489C8.37602 0.306965 7.74285 0.306965 7.35233 0.697489L0.988365 7.06145ZM34.9668 6.76855L1.69547 6.76856L1.69547 8.76856L34.9668 8.76855L34.9668 6.76855Z" fill="white"/>
</svg>
