<svg width="25" height="25" viewBox="0 0 25 25" fill="none" xmlns="http://www.w3.org/2000/svg">
<path d="M18.0597 21.9653H10.6232C10.4376 21.9653 10.2863 21.814 10.2863 21.6284C10.2863 21.4429 10.4376 21.2915 10.6232 21.2915H18.0597C18.3063 21.2915 18.5236 21.1255 18.5846 20.8862L20.7428 12.5464C20.7941 12.3462 20.7526 12.1411 20.6281 11.98C20.5035 11.8188 20.3156 11.7261 20.1129 11.7261H14.6198C14.1876 11.7261 13.797 11.5063 13.5773 11.1353C13.3551 10.7617 13.3453 10.3076 13.5529 9.92432C13.8409 9.38965 14.0192 8.86475 14.0851 8.3667C14.2194 7.31445 14.2438 5.40527 13.9337 4.56055C13.7946 4.16748 13.6578 3.78906 13.006 3.74756C12.2809 3.80371 12.1735 4.23828 12.1027 4.52637C12.0538 4.72656 12.0026 4.95605 11.9489 5.20752C11.7291 6.21338 11.4264 7.58789 10.86 8.5791C9.77357 10.4736 7.36634 11.6284 7.29066 11.6772C7.13441 11.7749 6.92445 11.731 6.82435 11.5747C6.72425 11.416 6.77064 11.2085 6.92689 11.1084C6.94398 11.0962 9.27308 9.99267 10.2741 8.24463C10.7916 7.34375 11.0797 6.02539 11.2897 5.06348C11.3458 4.80713 11.3971 4.57031 11.4484 4.36768C11.5289 4.04053 11.7413 3.17139 13.0035 3.07617C14.1437 3.14697 14.4171 3.91113 14.549 4.27979C14.9689 5.42725 14.8663 7.58301 14.754 8.45459C14.6808 9.03564 14.4757 9.63867 14.1461 10.2466C14.0534 10.4199 14.0558 10.625 14.1559 10.791C14.256 10.957 14.4244 11.0522 14.6198 11.0522H20.1154C20.528 11.0522 20.9113 11.2402 21.1652 11.5674C21.4191 11.8945 21.5021 12.312 21.3995 12.7124L19.2389 21.0498C19.0997 21.5918 18.6139 21.9653 18.0597 21.9653Z" fill="white" stroke="white" stroke-width="0.5"/>
<path d="M6.86719 21.978H4.61865C4.05957 21.978 3.60547 21.5239 3.60547 20.9648V12.0708C3.60547 11.5117 4.05957 11.0576 4.61865 11.0576H6.86719C7.42627 11.0576 7.88037 11.5117 7.88037 12.0708V20.9648C7.88037 21.5239 7.42627 21.978 6.86719 21.978ZM4.61865 11.7339C4.43311 11.7339 4.28174 11.8853 4.28174 12.0708V20.9648C4.28174 21.1504 4.43311 21.3018 4.61865 21.3018H6.86719C7.05274 21.3018 7.2041 21.1504 7.2041 20.9648V12.0708C7.2041 11.8853 7.05274 11.7339 6.86719 11.7339H4.61865V11.7339Z" fill="white" stroke="white" stroke-width="0.5"/>
</svg>
