<svg width="21" height="21" viewBox="0 0 21 21" fill="none" xmlns="http://www.w3.org/2000/svg">
<path d="M19.5751 10.1711C19.343 10.1711 19.153 10.3611 19.153 10.5933V17.6434C19.153 18.4666 18.4775 19.1421 17.6543 19.1421H3.343C2.51978 19.1421 1.84432 18.4666 1.84432 17.6434V6.27667C1.84432 5.45346 2.51978 4.778 3.343 4.778H11.4485C11.6807 4.778 11.8707 4.58802 11.8707 4.35583C11.8707 4.12365 11.6807 3.93367 11.4485 3.93367H3.343C2.05541 3.92312 1 4.97852 1 6.27667V17.6539C1 18.9415 2.05541 19.9969 3.343 19.9969H17.6437C18.9419 19.9969 19.9867 18.9415 19.9867 17.6539V10.6038C19.9973 10.3611 19.8073 10.1711 19.5751 10.1711Z" fill="white" stroke="white" stroke-width="0.3"/>
<path d="M19.7025 2.94197L13.7922 1.02113C13.5706 0.947248 13.3278 1.0739 13.2539 1.29553C13.1801 1.51717 13.3067 1.75991 13.5283 1.83379L18.3621 3.40634C17.3067 3.81795 16.2935 4.34566 15.3542 5.00001C14.1088 5.85489 13.0217 6.91029 12.1035 8.1029C10.2038 10.6042 9.20117 13.591 9.20117 16.7361C9.20117 16.9683 9.39115 17.1583 9.62333 17.1583C9.85552 17.1583 10.0455 16.9683 10.0455 16.7361C10.0455 11.1003 13.6339 6.02375 18.8792 4.11347L17.2539 9.12664C17.18 9.34828 17.3067 9.59102 17.5283 9.6649C17.5705 9.67546 17.6128 9.68601 17.655 9.68601C17.8344 9.68601 18.0033 9.56991 18.056 9.3905L19.903 3.70186C19.9663 3.61743 20.0085 3.51188 19.998 3.39579C20.0191 3.19526 19.903 3.00529 19.7025 2.94197Z" fill="white" stroke="white" stroke-width="0.3"/>
</svg>
