<svg width="27" height="19" viewBox="0 0 27 19" fill="none" xmlns="http://www.w3.org/2000/svg">
<path d="M13.5 3.7602C13.0032 3.76798 12.51 3.84713 12.0356 3.99521C12.2551 4.38219 12.3719 4.81912 12.375 5.26428C12.375 5.60993 12.3071 5.95221 12.1752 6.27155C12.0433 6.5909 11.8499 6.88106 11.6062 7.12548C11.3624 7.3699 11.073 7.56378 10.7545 7.69606C10.4361 7.82833 10.0947 7.89641 9.74999 7.89641C9.30604 7.89333 8.8703 7.77616 8.48437 7.55612C8.17988 8.61499 8.21537 9.74308 8.5858 10.7806C8.95624 11.8181 9.64284 12.7125 10.5484 13.337C11.4539 13.9615 12.5324 14.2845 13.6311 14.2602C14.7299 14.2359 15.7932 13.8656 16.6704 13.2017C17.5476 12.5378 18.1942 11.614 18.5188 10.5612C18.8433 9.50829 18.8292 8.37973 18.4785 7.33533C18.1278 6.29094 17.4582 5.38366 16.5647 4.74201C15.6712 4.10036 14.599 3.75687 13.5 3.7602ZM26.8369 8.33824C24.2949 3.36491 19.2624 0 13.5 0C7.73765 0 2.70373 3.36726 0.1631 8.33871C0.0558691 8.5514 0 8.78638 0 9.02471C0 9.26303 0.0558691 9.49802 0.1631 9.71071C2.70514 14.684 7.73765 18.0489 13.5 18.0489C19.2624 18.0489 24.2963 14.6817 26.8369 9.71024C26.9441 9.49755 27 9.26256 27 9.02424C27 8.78591 26.9441 8.55093 26.8369 8.33824ZM13.5 15.7928C8.87577 15.7928 4.63639 13.2077 2.34701 9.02447C4.63639 4.84125 8.8753 2.25612 13.5 2.25612C18.1247 2.25612 22.3636 4.84125 24.653 9.02447C22.3641 13.2077 18.1247 15.7928 13.5 15.7928Z" fill="#F0FE97"/>
</svg>
