<svg width="388" height="101" viewBox="0 0 388 101" fill="none" xmlns="http://www.w3.org/2000/svg">
<path fill-rule="evenodd" clip-rule="evenodd" d="M36.3594 43.3916C33.3516 46.5283 28.168 48.832 21.8965 48.832C9.54492 48.832 0.712891 39.8076 0.712891 24.5762C0.712891 9.4082 9.80078 0.255859 22.2168 0.255859C28.7441 0.255859 33.0312 3.2002 35.7207 6.01562L32.5195 9.85645C30.1523 7.42383 27.0801 5.44043 22.4082 5.44043C12.9355 5.44043 6.79297 12.6719 6.79297 24.3838C6.79297 36.2236 12.4238 43.6484 22.4727 43.6484C24.8652 43.6484 27.2227 43.1191 29.0508 42.1807C29.7656 41.8135 30.3984 41.3828 30.9199 40.8965V28.6084H20.9355V23.6797H36.3594V43.3916ZM47.0762 5.8877V23.3604H54.9492C62.3086 23.3604 66.3418 20.3516 66.3418 14.208C66.3418 8.06445 62.3086 5.8877 54.9492 5.8877H47.0762ZM68.9551 48H66.918L55.5254 28.0957H47.0762V48H41.1895V1.08789H55.8457C65.3809 1.08789 72.2285 4.48047 72.2285 14.208C72.2285 21.5684 68.0059 25.9199 61.6699 27.4561L70.6582 42.9688L84.8281 1.08789H91.4199L107.355 48H101.084L96.6035 33.6641H79.4512L74.9082 48H73.5723H68.9551ZM83.2285 21.7598L80.9238 28.9922H95.1328L92.8926 21.7598C91.1641 16.4482 89.6914 11.3281 88.1562 5.8877H87.9004C86.4277 11.3916 84.8926 16.4482 83.2285 21.7598ZM119.67 48H107.701V1.08789H119.414C133.814 1.08789 141.494 9.4082 141.494 24.3838C141.494 39.2324 133.814 48 119.67 48ZM113.59 5.8877V43.1357H118.902C129.973 43.1357 135.414 36.2236 135.414 24.3838C135.414 12.4805 129.973 5.8877 118.902 5.8877H113.59ZM178.836 28.6719C178.836 43.7119 171.539 48.832 162.004 48.832C152.404 48.832 145.172 43.7119 145.172 28.6719V1.08789H151.061V28.7998C151.061 40.0645 155.859 43.6484 162.004 43.6484C168.213 43.6484 173.141 40.0645 173.141 28.7998V1.08789H178.836V28.6719ZM183.707 48H177.756L193.629 1.08789H200.221L216.156 48H209.885L205.404 33.6641H188.252L183.707 48ZM192.027 21.7598L189.725 28.9922H203.932L201.691 21.7598C199.965 16.4482 198.492 11.3281 196.955 5.8877H196.699C195.885 8.93457 195.051 11.8447 194.186 14.7373C193.486 17.0693 192.77 19.3887 192.027 21.7598ZM228.307 48H222.355V6.08008H208.146V1.08789H242.514V6.08008H228.307V48ZM250.428 48H244.539V1.08789H250.428V48ZM294.201 24.3838C294.201 39.4238 285.945 48.832 274.17 48.832C262.393 48.832 254.137 39.4238 254.137 24.3838C254.137 9.34375 262.393 0.255859 274.17 0.255859C285.945 0.255859 294.201 9.34375 294.201 24.3838ZM260.217 24.3838C260.217 36.0957 265.721 43.6484 274.17 43.6484C282.617 43.6484 288.121 36.0957 288.121 24.3838C288.121 12.6719 282.617 5.44043 274.17 5.44043C265.721 5.44043 260.217 12.6719 260.217 24.3838ZM303.557 48H297.988V1.08789H304.006L321.156 30.6562L326.213 40.3203H326.533C326.309 37.6025 326.064 34.6689 325.898 31.7324C325.779 29.6201 325.701 27.5068 325.701 25.4717V1.08789H331.332V48H325.254L308.164 18.3682L303.109 8.7041H302.854C303.109 13.4404 303.557 18.4316 303.557 23.3604V48Z" fill="#C4C4C4"/>
<path fill-rule="evenodd" clip-rule="evenodd" d="M132.375 100H106.465V53.0879H133.271H133.473H139.799L146.199 65.0557C147.416 67.2324 148.375 69.2158 149.912 71.9678H150.168L150.678 70.8721C151.699 68.666 152.502 66.9326 153.496 65.0557L159.768 53.0879H165.975L153.176 76.0645L166.936 100H160.408L153.432 87.3281C152.482 85.4805 151.494 83.6328 150.377 81.542L149.4 79.7119H149.143C147.799 82.5918 146.584 84.96 145.367 87.3281L138.648 100H134.176H132.375ZM134.176 96.8115V94.9443H112.352V77.8564H130.145V72.7998H112.352V58.0801H133.473V53.4443L146.072 75.7441L134.176 96.8115ZM173.928 100H168.039V53.0879H173.928V72.7363H195.814V53.0879H201.768V100H195.814V77.8564H173.928V100ZM214.09 100H208.201V53.0879H214.09V100ZM235.463 100H220.551V53.0879H234.439C243.912 53.0879 250.568 56.2881 250.568 64.5439C250.568 69.2158 248.135 73.3115 243.719 74.7197V75.04C249.287 76.1279 253.256 79.8398 253.256 86.2402C253.256 95.4561 245.959 100 235.463 100ZM226.439 57.7598V72.9922H233.416C241.48 72.9922 244.744 70.1123 244.744 65.3115C244.744 59.8076 241.031 57.7598 233.672 57.7598H226.439ZM226.439 77.5996V95.2637H234.631C242.695 95.2637 247.432 92.3838 247.432 86.0479C247.432 80.2236 242.887 77.5996 234.631 77.5996H226.439ZM262.102 100H256.215V53.0879H262.102V100ZM284.244 100H278.293V58.0801H264.084V53.0879H298.451V58.0801H284.244V100ZM306.365 100H300.477V53.0879H306.365V100ZM350.139 76.3838C350.139 91.4238 341.883 100.832 330.107 100.832C318.33 100.832 310.074 91.4238 310.074 76.3838C310.074 61.3438 318.33 52.2559 330.107 52.2559C341.883 52.2559 350.139 61.3438 350.139 76.3838ZM316.154 76.3838C316.154 88.0957 321.658 95.6484 330.107 95.6484C338.555 95.6484 344.059 88.0957 344.059 76.3838C344.059 64.6719 338.555 57.4404 330.107 57.4404C321.658 57.4404 316.154 64.6719 316.154 76.3838ZM359.494 100H353.926V53.0879H359.943L377.094 82.6562L382.15 92.3203H382.471L382.441 91.9951C382.066 87.4033 381.639 82.2236 381.639 77.4717V53.0879H387.27V100H381.191L364.102 70.3682L359.047 60.7041H358.791C358.955 63.7471 359.199 66.8955 359.352 70.0654C359.438 71.8291 359.494 73.5986 359.494 75.3604V100Z" fill="#F0FE97"/>
</svg>
