<svg width="390" height="126" viewBox="0 0 390 126" fill="none" xmlns="http://www.w3.org/2000/svg">
<g filter="url(#filter0_f_2366_5242)">
<path d="M231.438 10L173 27.4422V109.368C173 110.249 173.425 112.433 175.125 114.125C176.825 115.816 180.083 115.534 181.5 115.182L241 97.2112V14.757C240.292 15.2855 238.131 16.2369 235.156 15.8141C232.181 15.3912 231.438 11.7618 231.438 10Z" fill="#F0FE97"/>
</g>
<path d="M228.422 16L176 31.5484V104.579C176 105.364 176.381 107.312 177.906 108.819C179.431 110.327 182.354 110.076 183.625 109.762L237 93.7421V20.2405C236.365 20.7116 234.427 21.5597 231.758 21.1828C229.089 20.8059 228.422 17.5705 228.422 16Z" fill="#F0FE97"/>
<path d="M201.683 44.7508V46.2451L190.369 49.6157V48.1214L195.11 46.7058V40.2792L191.088 41.4814V39.9422L201.043 36.9873V38.5265L196.863 39.7736V46.2114L201.683 44.7508Z" fill="black"/>
<path d="M214.031 41.3805V42.8636L202.896 46.2341V44.6949L206.11 43.7399V34.3248L207.638 33.8754V43.2793L209.267 42.7961V33.3923L210.806 32.9316V39.7963C211.518 38.2097 212.112 36.5724 212.581 34.8978L213.918 35.1337C213.358 36.8705 212.697 38.5736 211.941 40.2345L210.817 40.0098V42.3467L214.031 41.3805ZM204.571 42.358C204.17 40.9026 203.671 39.4762 203.076 38.0886L204.402 37.3471C205.025 38.6833 205.565 40.0566 206.02 41.4592L204.571 42.358Z" fill="black"/>
<path d="M194.213 60.2782C194.342 60.6582 194.532 61.0148 194.775 61.3343C192.472 63.9746 192.056 64.4464 191.831 64.806C191.658 64.414 191.405 64.0621 191.09 63.7723C191.461 63.3957 191.681 62.896 191.708 62.3679V58.694L190.225 59.1322V57.6604L193.146 56.784V61.5028L194.213 60.2782ZM192.977 56.0762C192.406 55.5279 191.773 55.0489 191.09 54.6494L192.033 53.4584C192.748 53.8081 193.416 54.2459 194.022 54.7617L192.977 56.0762ZM201.134 56.3009C200.722 57.8603 199.978 59.3126 198.954 60.5591C199.903 60.7634 200.879 60.8052 201.842 60.6827C201.479 61.1782 201.174 61.7134 200.932 62.278C199.843 62.367 198.748 62.2254 197.718 61.8623C196.695 62.7796 195.563 63.5682 194.348 64.2105C194.196 63.797 193.967 63.4158 193.674 63.087C194.731 62.5934 195.72 61.9666 196.617 61.2219C195.912 60.728 195.324 60.0833 194.898 59.3344L195.415 59.0086L194.516 59.2783V57.9413L199.999 56.3122L200.246 56.1661L201.134 56.3009ZM196.988 53.6157C196.994 54.4225 196.8 55.2182 196.424 55.9318C196.047 56.6453 195.5 57.2547 194.831 57.7053C194.558 57.3868 194.226 57.1236 193.854 56.9301C194.38 56.637 194.818 56.2084 195.122 55.6887C195.426 55.1691 195.586 54.5774 195.584 53.9752V52.6383L200.078 51.3125V54.0202C200.078 54.3797 200.078 54.5258 200.28 54.4696L200.932 54.2786C201.169 54.2025 201.398 54.1047 201.617 53.9865C201.617 54.3572 201.617 54.8516 201.718 55.1774C201.483 55.326 201.225 55.436 200.954 55.5032L200.157 55.7392C198.921 56.1099 198.673 55.6605 198.673 54.4246V53.0764L196.999 53.5708L196.988 53.6157ZM196.28 58.7951C196.665 59.374 197.202 59.8363 197.831 60.1321C198.422 59.4567 198.914 58.7 199.291 57.8851L196.28 58.7951Z" fill="black"/>
<path d="M207.312 56.4461C207.412 56.8704 207.571 57.2788 207.783 57.6595C206.627 58.7386 205.553 59.9029 204.57 61.1424C204.391 60.7324 204.148 60.3532 203.851 60.0189C204.236 59.6642 204.476 59.1802 204.525 58.6594V54.8732L202.705 55.4125V53.9407L206.076 52.952V57.7494L207.312 56.4461ZM205.694 52.2666C205.077 51.7304 204.398 51.2703 203.671 50.8959L204.626 49.705C205.366 50.0254 206.067 50.4287 206.716 50.9072L205.694 52.2666ZM214.221 52.1318L211.356 52.9857V59.165L209.761 59.6481V53.4575L206.817 54.3451V52.8059L209.783 51.952V48.0647L211.379 47.5928V51.4352L214.244 50.5926L214.221 52.1318Z" fill="black"/>
<path d="M201.694 73.1876L196.784 74.6482V76.6705C196.824 77.0084 196.768 77.3507 196.623 77.6585C196.478 77.9663 196.25 78.2274 195.964 78.412C195.104 78.9211 194.172 79.2997 193.2 79.5355C193.077 79.0754 192.872 78.6415 192.594 78.2547C193.515 78.0187 194.56 77.7041 194.841 77.6255C195.122 77.5469 195.245 77.412 195.245 77.1536V75.1088L190.324 76.5694V75.1313L195.245 73.6595V72.1764L191.167 73.3898V71.9967L195.245 70.7945V69.3339C193.953 69.8283 192.639 70.2889 191.425 70.7046C191.377 70.2922 191.263 69.8902 191.088 69.5137C193.997 68.5683 196.826 67.3924 199.548 65.9971L200.672 66.9184C199.548 67.5251 198.245 68.1318 196.886 68.7048V70.3339L201.065 69.0867V70.5024L196.886 71.7495V73.2101L201.795 71.7383L201.694 73.1876Z" fill="black"/>
<path d="M206.604 69.9967C206.581 70.4121 206.581 70.8284 206.604 71.2438C205.353 71.8466 204.16 72.565 203.043 73.3897C202.93 72.9726 202.779 72.5665 202.593 72.1763C202.985 71.8826 203.297 71.4966 203.503 71.0528C203.789 70.602 204.051 70.1371 204.29 69.6596C203.823 69.8279 203.378 70.0503 202.964 70.3225C202.839 69.9097 202.682 69.5077 202.492 69.1203C202.802 68.8761 203.036 68.5488 203.166 68.1766C203.718 66.9484 204.147 65.6689 204.447 64.3566L205.829 64.5701C205.397 65.9187 204.856 67.23 204.211 68.4912L205.02 68.1766C205.256 67.6598 205.481 67.0531 205.683 66.5699L206.941 66.9407C206.371 68.2612 205.718 69.5445 204.986 70.7831L206.604 69.9967ZM202.638 74.7604C203.616 74.1874 205.11 73.1987 206.548 72.2437L206.807 73.3672L202.998 76.0974L202.638 74.7604ZM208.256 68.1092C207.964 68.4575 207.672 68.772 207.357 69.0866C207.189 68.6264 206.959 68.1916 206.672 67.7946C208.167 66.3903 209.35 64.6868 210.143 62.7949L211.458 62.8623C211.379 63.0533 211.312 63.2556 211.211 63.4578C212.069 64.3265 213.103 65.0008 214.244 65.4352C213.958 65.9545 213.732 66.5049 213.57 67.0755C213.278 66.9407 212.997 66.7722 212.694 66.6149V67.4575L208.2 68.7833L208.256 68.1092ZM212.368 70.1764C213.057 70.9588 213.635 71.8321 214.087 72.7718L212.817 73.7268C212.727 73.4796 212.593 73.1987 212.447 72.8954C208.323 74.5582 207.739 74.8166 207.323 75.1424C207.187 74.7181 207.018 74.3049 206.818 73.9065C207.147 73.7546 207.435 73.5275 207.66 73.2437C207.874 72.9291 208.537 71.6145 208.941 70.7719L207.132 71.3112V69.9293L213.75 67.9631V69.3226L210.503 70.2776C210.121 71.0416 209.649 72.0527 209.222 72.8729L211.784 71.8954C211.57 71.5808 211.346 71.2663 211.132 70.9966L212.368 70.1764ZM212.233 66.2666C211.622 65.8426 211.047 65.3691 210.514 64.851C210.045 65.681 209.523 66.4803 208.952 67.2441L212.233 66.2666Z" fill="black"/>
<path d="M176.022 105.713C176.109 107.045 176.716 108.29 177.712 109.179C178.709 110.068 180.014 110.53 181.348 110.466C182.467 110.447 183.575 110.246 184.629 109.87L236.558 94.4217V20.4267L235.996 20.6514C235.996 20.6514 232.345 22.1232 230.21 20.6514C229.645 20.2568 229.188 19.7274 228.88 19.1113C228.572 18.4952 228.423 17.8119 228.446 17.1235V17.0112C228.446 16.8876 228.446 16.7752 228.446 16.6966V16L176 31.5832V104.96C176 104.96 176 105.14 176 105.331V105.612L176.022 105.713ZM228.446 89.849C228.446 89.7254 228.446 89.613 228.446 89.5344V20.0671L228.727 20.4154C229.018 20.784 229.367 21.1028 229.76 21.3592C231.592 22.5951 234.176 22.0782 235.547 21.6625H235.749V93.6015H235.636C234.67 93.9327 233.658 94.1108 232.637 94.1296C231.786 94.1701 230.942 93.9591 230.21 93.5229C229.645 93.1283 229.188 92.5989 228.88 91.9828C228.572 91.3667 228.423 90.6834 228.446 89.995V89.849ZM176.764 32.1899H176.876L227.637 17.1235V89.3321H227.525L176.809 104.443L176.764 32.1899ZM176.876 105.219L227.637 90.1523V90.3545C227.663 91.1158 227.868 91.8603 228.234 92.5279C228.601 93.1954 229.12 93.7672 229.749 94.197C230.223 94.5049 230.754 94.7149 231.311 94.8149L231.918 94.9497L184.55 109.05L184.213 109.162C183.285 109.473 182.315 109.639 181.337 109.657C180.435 109.687 179.545 109.453 178.775 108.982C178.189 108.584 177.705 108.053 177.363 107.432C177.022 106.811 176.832 106.118 176.809 105.41V105.286L176.876 105.219Z" fill="black"/>
<path d="M26.512 94.1633C34.4074 94.1633 40.3913 91.0052 45.2116 85.4368L40.973 80.6165C37.0669 84.855 32.6621 87.4314 26.8444 87.4314C15.2091 87.4314 7.89542 77.7907 7.89542 62.4154C7.89542 47.2064 15.5415 37.7319 27.0937 37.7319C32.3296 37.7319 36.402 40.1421 39.5602 43.5496L43.7157 38.563C40.2251 34.6568 34.4074 31 27.0106 31C11.5522 31 0 42.9678 0 62.6648C0 82.4449 11.386 94.1633 26.512 94.1633Z" fill="#F0FE97"/>
<path d="M76.3336 94.1633C91.6258 94.1633 102.347 81.9462 102.347 62.4154C102.347 42.8847 91.6258 31 76.3336 31C61.0414 31 50.3203 42.8847 50.3203 62.4154C50.3203 81.9462 61.0414 94.1633 76.3336 94.1633ZM76.3336 87.4314C65.3631 87.4314 58.2157 77.6245 58.2157 62.4154C58.2157 47.1233 65.3631 37.7319 76.3336 37.7319C87.221 37.7319 94.4515 47.1233 94.4515 62.4154C94.4515 77.6245 87.221 87.4314 76.3336 87.4314Z" fill="#F0FE97"/>
<path d="M137.102 93.0829C149.569 93.0829 159.043 86.4341 159.043 66.8202V32.1635H151.647V67.0695C151.647 81.7799 145.247 86.351 137.102 86.351C129.207 86.351 122.974 81.7799 122.974 67.0695V32.1635H115.244V66.8202C115.244 86.4341 124.719 93.0829 137.102 93.0829Z" fill="#F0FE97"/>
<path d="M259.712 38.3977H269.934C279.492 38.3977 284.728 41.2235 284.728 49.2851C284.728 57.1805 279.492 61.0036 269.934 61.0036H259.712V38.3977ZM294.202 93.0839L278.577 66.4057C286.888 64.4111 292.374 58.7596 292.374 49.2851C292.374 36.5693 283.481 32.1645 271.098 32.1645H251.982V93.0839H259.712V67.2368H270.682L285.476 93.0839H294.202Z" fill="#F0FE97"/>
<path d="M320.474 94.1643C333.19 94.1643 341.169 86.5182 341.169 76.8775C341.169 67.8185 335.684 63.6631 328.619 60.588L319.893 56.8481C315.155 54.8534 309.836 52.6095 309.836 46.7087C309.836 41.2235 314.324 37.7329 321.222 37.7329C326.874 37.7329 331.362 39.9768 335.102 43.4674L339.174 38.564C334.852 34.076 328.453 31.001 321.222 31.001C310.169 31.001 302.024 37.816 302.024 47.2074C302.024 56.1001 308.756 60.4218 314.407 62.832L323.217 66.655C328.952 69.2314 333.356 71.226 333.356 77.4593C333.356 83.4432 328.536 87.4324 320.558 87.4324C314.241 87.4324 308.091 84.4405 303.686 79.8694L299.115 85.1054C304.434 90.6737 311.831 94.1643 320.474 94.1643Z" fill="#F0FE97"/>
<path d="M353.11 93.0839H389.18V86.5182H360.839V64.3279H383.944V57.7623H360.839V38.6471H388.265V32.1645H353.11V93.0839Z" fill="#F0FE97"/>
<defs>
<filter id="filter0_f_2366_5242" x="163" y="0" width="88" height="125.449" filterUnits="userSpaceOnUse" color-interpolation-filters="sRGB">
<feFlood flood-opacity="0" result="BackgroundImageFix"/>
<feBlend mode="normal" in="SourceGraphic" in2="BackgroundImageFix" result="shape"/>
<feGaussianBlur stdDeviation="5" result="effect1_foregroundBlur_2366_5242"/>
</filter>
</defs>
</svg>
