<svg width="120" height="120" viewBox="0 0 120 120" fill="none" xmlns="http://www.w3.org/2000/svg">
<mask id="mask0_2498_5498" style="mask-type:alpha" maskUnits="userSpaceOnUse" x="0" y="0" width="120" height="120">
<rect width="120" height="120" fill="#C4C4C4"/>
</mask>
<g mask="url(#mask0_2498_5498)">
<path d="M85.7508 19.9705L76 49.3311L22.4989 80.8313" stroke="#F0FE97"/>
<path d="M40 70.3311L29.7051 52.4053" stroke="#F0FE97"/>
<path d="M98 36.8311L86.0091 19.8984L29.7051 52.4056L22.1032 80.776L33.5891 100.265L89.6719 67.4758L76 49.3311" stroke="#F0FE97"/>
<path d="M98 36.3311L89.8499 67.497L98 36.3311Z" stroke="#F0FE97"/>
<path d="M38.859 79.4433C38.8552 79.1675 38.8466 78.9129 38.836 78.6666L38.8282 78.4476L39.5059 78.0208L39.542 79.0133L38.859 79.4433ZM39.4346 76.1691L39.4708 77.1217L38.7931 77.5485L38.7568 76.5959L39.4346 76.1691ZM40.1652 74.7878L37.9767 76.1659L38.09 79.14C38.1368 80.3388 38.1693 81.991 37.7828 83.3796C37.9677 83.3462 38.3142 83.3629 38.4673 83.411C38.7221 82.4846 38.8244 81.3906 38.847 80.3938L39.5765 79.9344L39.6377 81.5577C39.6423 81.674 39.6078 81.7283 39.525 81.7804C39.4422 81.8325 39.1858 82.0048 38.9329 82.1424C39.0469 82.3235 39.16 82.7039 39.1893 82.9455C39.6395 82.6621 39.9359 82.4501 40.1488 82.1571C40.3697 81.8482 40.4167 81.5441 40.3996 81.0924L40.1652 74.7878ZM41.4757 77.7812L41.5171 77.7552C41.7538 78.372 42.0378 78.8976 42.3984 79.2811C42.1545 79.7887 41.8906 80.2475 41.5816 80.6516L41.4757 77.7812ZM43.2038 76.6931C43.1103 77.2216 42.976 77.7542 42.8001 78.2551C42.5701 77.9989 42.3733 77.6748 42.2165 77.3111L43.2038 76.6931ZM43.5699 75.5305L43.4475 75.6401L41.44 76.9041L41.3668 74.9633L42.9862 73.9436L43.0098 74.6007C43.014 74.6992 42.9814 74.745 42.8709 74.8219C42.7603 74.8987 42.3516 75.1561 42.0013 75.3513C42.1078 75.5263 42.2308 75.7848 42.2757 76.0167C42.8034 75.6844 43.1966 75.4368 43.463 75.1426C43.7478 74.826 43.8152 74.5488 43.8008 74.1243L43.7394 72.5409L40.5472 74.551L40.8285 81.917L41.614 81.426L41.589 80.7553C41.7471 80.84 41.9334 81.0153 42.0223 81.1508C42.3513 80.698 42.6481 80.2112 42.8972 79.7003C43.2008 79.8669 43.5469 79.9632 43.9173 79.972C44.0281 79.6603 44.2409 79.1722 44.4036 78.8855C44.0123 78.9296 43.6549 78.8439 43.3439 78.6713C43.7045 77.6892 43.955 76.6067 44.0695 75.4002L43.5699 75.5305Z" fill="white"/>
<path d="M48.0723 74.166C48.1146 73.9407 48.1424 73.7209 48.1666 73.4781L47.309 73.9349C47.2918 74.2059 47.2573 74.4552 47.2238 74.7003L45.2577 75.9383L45.2913 76.7661L46.9521 75.7204C46.58 76.7531 45.8963 77.6351 44.8927 78.5199C45.0531 78.614 45.3103 78.8675 45.4038 79.0218C46.6429 77.8225 47.4387 76.6423 47.8627 75.147L49.7149 73.9807C49.6406 74.815 49.5253 75.3031 49.3915 75.521C49.3022 75.6603 49.2072 75.7274 49.0614 75.8228C48.8544 75.9531 48.3544 76.2607 47.9022 76.4949C48.0521 76.6354 48.1684 76.9234 48.1925 77.1683C48.6515 76.9046 49.0964 76.6244 49.3496 76.4469C49.6596 76.2337 49.8796 76.0265 50.0735 75.6804C50.3203 75.2577 50.4675 74.4931 50.5665 73.0037C50.5813 72.8608 50.591 72.5837 50.591 72.5837L48.0723 74.166ZM46.696 72.0089L49.2156 70.4223C48.8489 71.0218 48.3752 71.6235 47.8289 72.2131C47.3408 72.2929 46.9499 72.2572 46.6505 72.0917L46.696 72.0089ZM50.0063 69.0502L49.8913 69.166L47.294 70.8014C47.412 70.5356 47.5174 70.267 47.6125 70.0048L46.7636 70.3262C46.4351 71.2447 45.82 72.3906 44.8608 73.5293C45.0204 73.5878 45.2622 73.8112 45.3698 73.9819C45.6547 73.6255 45.904 73.2698 46.1336 72.923C46.367 73.047 46.6109 73.1246 46.8903 73.1437C46.2058 73.7951 45.4545 74.4091 44.6997 74.9602C44.8317 75.1011 44.985 75.4019 45.0525 75.6123C46.0263 74.8582 46.995 74.0099 47.8688 73.0912C48.6657 72.9398 49.6158 72.5438 50.6826 71.966C50.7775 71.6462 50.9491 71.1443 51.1059 70.8253C50.2999 71.2894 49.5455 71.6633 48.8784 71.9063C49.5757 71.0229 50.1514 70.0896 50.5415 69.1142L50.0063 69.0502Z" fill="white"/>
<path d="M55.2694 66.1709L56.2007 65.5845L56.2364 66.4616C56.2696 67.2716 56.4188 67.5316 57.107 67.0983L57.5519 66.8181C57.6968 66.7269 57.8704 66.6068 57.9789 66.4807C57.9357 66.2802 57.9078 65.9547 57.8859 65.7191C57.7893 65.8125 57.6171 65.9462 57.5074 66.0189L57.1453 66.2469C57.047 66.3088 57.0324 66.2168 57.0199 65.979L56.9511 64.1944L54.4676 65.7581L54.5014 66.6437C54.524 67.2074 54.4416 67.8626 53.5862 68.8564C53.7422 68.8919 54.0569 69.0875 54.1604 69.2174C55.1244 68.0577 55.3062 67.0039 55.274 66.1897L55.2694 66.1709ZM53.6011 67.4056C53.3606 67.1958 52.8223 66.9892 52.4441 66.8589L51.9397 67.7906C52.3216 67.9439 52.8287 68.2099 53.0663 68.4324L53.6011 67.4056ZM53.2927 71.9819L53.1735 68.8779L51.5489 69.9009L51.5847 70.8356L52.4125 70.3144L52.5054 72.7739C52.5222 73.1679 52.3379 73.5694 52.1886 73.797C52.3345 73.8967 52.5658 74.1665 52.6361 74.3642C52.7518 74.0891 52.9745 73.714 54.208 71.6224C54.0987 71.5178 53.9458 71.2347 53.8666 71.0172L53.2927 71.9819ZM56.6582 68.6634C56.4664 69.2538 56.2049 69.8195 55.8923 70.3559C55.5238 70.2411 55.2182 70.0253 55.0016 69.7101L56.6582 68.6634ZM57.1704 67.3654L57.0347 67.4942L53.9821 69.4164L54.0153 70.3239L54.5172 70.0079L54.2372 70.3034C54.5122 70.7516 54.8558 71.0735 55.2558 71.2841C54.7886 71.8962 54.2415 72.4502 53.6421 72.9613C53.7832 73.082 53.9633 73.3624 54.0495 73.5682C54.7438 72.9323 55.3782 72.2474 55.9179 71.4922C56.4379 71.5838 57.0465 71.5004 57.7431 71.2641C57.8376 70.9265 58.0455 70.4018 58.2168 70.0772C57.6022 70.3232 57.0595 70.4482 56.5822 70.4417C57.094 69.5161 57.4713 68.4801 57.6851 67.3051L57.1704 67.3654Z" fill="white"/>
<path d="M60.6956 62.8806C60.4376 62.689 59.8771 62.5217 59.4814 62.4096L58.9859 63.3611C59.3885 63.5013 59.9168 63.7322 60.1658 63.944L60.6956 62.8806ZM60.4878 67.502L60.3664 64.3487L58.5142 65.515L58.5517 66.4812L59.5658 65.8427L59.6609 68.3116C59.6751 68.6784 59.4617 69.091 59.3143 69.3102C59.4534 69.4394 59.6742 69.7555 59.7501 69.9679C59.8729 69.681 60.1234 69.2812 61.4707 67.2154C61.3743 67.0738 61.2338 66.736 61.1707 66.4867L60.4878 67.502ZM64.9328 61.5203L63.3383 62.528L63.2398 59.9962L62.3499 60.5565L62.4484 63.0883L60.7824 64.1373L60.8221 65.1528L62.4881 64.1037L62.644 68.1782L63.5339 67.6178L63.378 63.5434L64.9725 62.5358L64.9328 61.5203Z" fill="white"/>
<path d="M45.6271 87.0622L41.3172 89.776L41.3531 90.7108L45.663 87.997L45.6271 87.0622ZM43.0276 86.8927C43.0769 86.5004 43.1225 86.0852 43.17 85.6615L46.9935 83.2539L46.9576 82.3192L43.279 84.6355C43.3095 84.3454 43.3361 84.0721 43.3617 83.8031L42.5132 84.2398C42.4075 85.5636 42.2031 87.3216 42.0186 88.4457L42.7349 88.0055L46.3359 85.738C46.2704 87.3725 46.1371 88.2909 45.9159 88.6397C45.8144 88.794 45.7028 88.875 45.5434 88.9718C45.3054 89.1217 44.7466 89.4735 44.1938 89.7602C44.3768 89.9304 44.5244 90.2565 44.5502 90.5328C45.0557 90.2398 45.5557 89.9323 45.8418 89.7268C46.2093 89.4557 46.4322 89.2358 46.6495 88.8064C46.967 88.2091 47.1115 87.1247 47.1967 84.7011C47.2114 84.5582 47.2143 84.2529 47.2143 84.2529L43.0276 86.8927Z" fill="white"/>
<path d="M59.4 79.2563C59.6096 79.3482 59.82 79.4759 60.0243 79.6109L57.6158 81.2937C57.9908 80.6385 58.3529 79.9228 58.6553 79.2555L61.5682 77.4213L61.5343 76.4781L55.7912 80.0944L55.8252 81.0376L57.5067 79.9788C57.1532 80.7541 56.7945 81.4352 56.6352 81.6872C56.43 82.044 56.2807 82.2716 56.1018 82.4349C56.2081 82.6497 56.367 83.0627 56.4172 83.2514C56.75 82.8793 57.2285 82.5491 60.641 80.0969C60.7876 80.2322 60.9164 80.3679 61.0043 80.5075L61.7181 79.5126C61.3881 79.0918 60.7165 78.6332 60.0892 78.3887L59.4 79.2563ZM57.4311 77.4433C57.8345 76.8389 58.2145 76.2203 58.5481 75.5912C58.9009 75.7556 59.3491 75.8707 59.8205 75.9424L57.4311 77.4433ZM58.4495 74.2299C57.8287 75.6937 56.615 77.484 55.3167 78.9047C55.5176 78.977 55.8146 79.2307 55.9399 79.401C56.3082 78.9704 56.6438 78.528 56.9751 78.0845L56.9941 78.6253L60.2329 76.5859L60.2114 75.978C60.5663 75.9966 60.9458 75.9853 61.3127 75.9312C61.4354 75.5867 61.6823 75.0266 61.8569 74.7071C60.8231 74.9643 59.6988 74.9172 58.997 74.6691C59.0691 74.5081 59.1421 74.3429 59.2141 74.1819L58.4495 74.2299Z" fill="white"/>
<path d="M63.3432 74.2294C63.7193 73.5301 64.0535 72.7814 64.3258 72.032C64.7184 72.2941 65.1366 72.6197 65.4334 72.9132L63.3432 74.2294ZM65.7297 73.0338L66.2363 72.1114C65.9098 71.7535 65.2333 71.316 64.6735 70.9893C64.7103 70.8469 64.7542 70.6928 64.79 70.5547L64.0247 70.762C63.7026 72.0234 63.0166 73.5788 62.2034 74.7773C62.3912 74.8288 62.6792 75.0051 62.8202 75.1259C62.885 75.0164 62.9601 74.9005 63.0291 74.792L63.1428 77.7839C63.1768 78.7271 63.4464 78.8283 64.2587 78.3168L65.3711 77.6164C66.0799 77.1701 66.2815 76.6927 66.3267 75.4793C66.1073 75.5669 65.7792 75.6253 65.5998 75.5757C65.5937 76.461 65.5496 76.655 65.2703 76.8309L64.3286 77.4238C64.0182 77.6193 63.9592 77.6059 63.9467 77.2705L63.8498 74.7702L64.9519 74.0762C64.9362 74.8086 64.9004 75.1419 64.8402 75.2701C64.7942 75.3749 64.7386 75.4244 64.6497 75.484C64.5462 75.5491 64.3393 75.6794 64.1151 75.7881C64.2264 75.942 64.324 76.2346 64.342 76.4869C64.6496 76.3041 64.9163 76.1253 65.0834 75.9948C65.2689 75.8419 65.4207 75.6813 65.5368 75.4239C65.6893 75.1039 65.7341 74.4579 65.7356 73.0661L65.7297 73.0338ZM67.0553 69.8147L66.2637 70.3132L66.4399 74.942L67.2315 74.4435L67.0553 69.8147ZM67.5619 68.6973L67.8035 75.0479C67.808 75.2041 67.7574 75.2901 67.6261 75.38C67.4864 75.468 67.0208 75.7612 66.5825 76.0118C66.7124 76.201 66.8506 76.5294 66.8958 76.7791C67.5478 76.3686 67.99 76.0612 68.2692 75.7301C68.5526 75.3999 68.6446 75.0927 68.621 74.5332L68.3794 68.1826L67.5619 68.6973Z" fill="white"/>
<path d="M69.8863 72.2926C69.7788 72.8046 69.5893 73.4045 69.3352 73.8787C69.4927 73.8879 69.7564 73.9567 69.8884 74C70.1465 73.469 70.3874 72.7213 70.534 72.0762L69.8863 72.2926ZM71.3977 67.768C71.3412 68.1143 71.2323 68.6127 71.1373 68.9724L70.3198 69.4872L70.6487 69.1717C70.6122 68.9418 70.5045 68.6158 70.3784 68.4098L71.3977 67.768ZM72.5698 70.3753L72.5385 69.5568L71.3951 70.2768L71.37 69.646L72.6272 68.8543L72.5973 68.0495L71.8781 68.5023C71.973 68.1825 72.0592 67.8031 72.1548 67.4213L71.5797 67.6498L72.4541 67.0992L72.4223 66.3028L71.3254 66.9935C71.2388 66.7698 71.1077 66.5272 70.9933 66.3283L70.2651 66.9964C70.3408 67.151 70.4286 67.3306 70.4986 67.5105L69.3137 68.2565L69.3456 69.053L70.2821 68.4633L69.7196 68.9872C69.8266 69.18 69.9147 69.4749 69.9596 69.7068L69.2757 70.141L69.3056 70.9459L70.6249 70.1151L70.65 70.746L69.3721 71.5506L69.4034 72.3691L70.6813 71.5644L70.749 73.2956C70.7509 73.3847 70.7329 73.4249 70.6553 73.4738C70.5777 73.5227 70.3656 73.6562 70.1553 73.7814C70.2638 73.9479 70.3694 74.2246 70.4097 74.4377C70.777 74.2064 71.0541 74.0211 71.2593 73.7618C71.4622 73.4931 71.5084 73.2509 71.4958 72.8579L71.4286 71.1047L72.5698 70.3753ZM75.6919 66.1768L73.5602 67.519L73.5115 66.2311C74.1872 65.6575 74.8947 65.0025 75.458 64.3768L74.7927 64.066C74.3031 64.6597 73.4735 65.4422 72.7155 66.0857L72.8246 68.9612C72.8541 69.7483 72.8712 70.6876 72.6848 71.6251C72.555 71.3961 72.3086 71.0563 72.0832 70.8189L71.5538 71.51C71.7617 71.7656 72.0193 72.1345 72.1414 72.3972L72.6725 71.64C72.6147 71.9727 72.5212 72.3061 72.3968 72.6193C72.575 72.6154 72.9117 72.7141 73.051 72.8034C73.6082 71.4049 73.6339 69.6727 73.588 68.4697L73.5878 68.412L74.2656 67.9852L74.4194 72.0104L75.2266 71.5022L75.0728 67.477L75.7195 67.0698L75.6919 66.1768Z" fill="white"/>
<path d="M51.3043 83.3219C51.1602 83.2537 50.6386 82.9933 50.3414 82.877C50.6394 82.1511 50.9028 81.3819 51.0751 80.6629L50.624 80.5604L50.4883 80.6892L49.8416 81.0964L50.3735 80.3749C50.2367 80.1576 49.9584 79.8993 49.7022 79.7391L49.0653 80.552C49.2933 80.7191 49.5308 80.9814 49.6657 81.2072L48.4498 81.9727L48.4855 82.8498L50.0687 81.8529C49.6872 82.9855 49.0455 84.2096 48.365 85.0969C48.4704 85.2184 48.6498 85.6581 48.7167 85.8906C48.9805 85.5294 49.2254 85.1151 49.4812 84.6722L49.5986 87.6871L50.4109 87.1756L50.2906 83.9783C50.4944 84.1354 50.7017 84.3155 50.8295 84.4554L51.3043 83.3219ZM53.5466 83.9512L53.4308 80.91L54.745 80.0825L54.711 79.1393L53.3968 79.9668L53.3042 77.5649L52.4505 78.1025L52.5431 80.5044L51.1772 81.3644L51.2112 82.3076L52.5771 81.4476L52.6929 84.4887L51.0218 85.541L51.0593 86.5072L55.0639 83.9856L55.0263 83.0194L53.5466 83.9512Z" fill="white"/>
</g>
</svg>
