<svg width="120" height="120" viewBox="0 0 120 120" fill="none" xmlns="http://www.w3.org/2000/svg">
<mask id="mask0_2498_5519" style="mask-type:alpha" maskUnits="userSpaceOnUse" x="0" y="0" width="120" height="120">
<rect width="120" height="120" fill="#C4C4C4"/>
</mask>
<g mask="url(#mask0_2498_5519)">
<path d="M45 32L104 59L98 78.5L73 89.5L15 60L21 41L45 32Z" fill="#EFFE97"/>
<path d="M20.9754 41.3645L79.8492 68.1856" stroke="black"/>
<path d="M73.0498 89.8066L79.8516 68.1855" stroke="black"/>
<path d="M39.3779 50.2518L45.375 32.0439" stroke="black"/>
<path d="M79.8499 68.1861L104.113 59.0349" stroke="black"/>
<path d="M104.113 59.034L45.3756 32.0444L21.1633 40.6621L15.2363 60.2822L73.0489 89.8062L97.9157 78.6555L104.113 59.034Z" stroke="black"/>
<path d="M33.7662 50.5257L33.1097 51.9551L34.3392 52.5198L34.9957 51.0904L33.7662 50.5257ZM29.7995 49.648L28.7619 51.9072L29.9315 52.4443L30.4686 51.2748L36.5863 54.0844L36.0491 55.254L37.2686 55.8141L38.3062 53.555L29.7995 49.648ZM30.5247 52.0752L30.0564 53.0948L35.4543 55.5739L35.9226 54.5543L30.5247 52.0752ZM30.6871 54.3044C31.972 56.5408 31.063 58.52 30.2912 58.6982C30.0386 58.8 29.8349 58.7428 29.585 58.628C29.3251 58.5087 28.9998 58.3472 28.6483 58.1373C28.7021 58.5736 28.5917 59.1039 28.4602 59.443C28.7509 59.6007 29.0462 59.7484 29.3007 59.8532C29.8305 60.0965 30.1917 60.1535 30.7231 59.998C32.1462 59.7196 33.4608 56.9098 31.8546 54.187L30.6871 54.3044ZM32.9643 53.5104C31.7136 53.9406 29.7196 53.7753 27.9833 53.3653C28.0722 53.6724 28.1617 54.2945 28.1661 54.5749C30.0375 54.9018 32.2103 54.9677 33.7657 54.3747L32.9643 53.5104ZM31.271 55.1415C30.3134 55.3553 28.5885 55.2894 27.3795 55.0489C27.4892 55.3898 27.5509 55.9144 27.5615 56.234C28.8601 56.3584 30.6693 56.2935 31.7928 56.0348L31.271 55.1415ZM31.6445 56.463C30.3017 56.9357 27.9609 56.9985 26.2025 56.6629C26.313 57.0284 26.3755 57.5776 26.3777 57.9418C28.2104 58.142 30.6463 57.9776 32.1842 57.4492L31.6445 56.463ZM34.4357 54.3919L33.3342 54.1282C32.7471 56.9089 32.8285 59.3672 34.2541 61.2445C34.5855 60.9973 35.1857 60.6919 35.5658 60.576C34.1592 58.9737 33.9514 56.7115 34.4357 54.3919ZM36.0865 55.9369C35.3371 56.198 34.1537 56.4291 33.3586 56.4998L33.7978 57.573C34.599 57.5415 35.7258 57.3812 36.6543 57.1782L36.0865 55.9369ZM41.2832 57.2463L45.0118 58.9588L44.7363 59.5585L41.0078 57.8461L41.2832 57.2463ZM40.6221 58.6858L44.3507 60.3982L44.0706 61.008L40.3421 59.2956L40.6221 58.6858ZM41.9443 55.8069L45.6729 57.5193L45.402 58.1091L41.6735 56.3967L41.9443 55.8069ZM41.1826 54.3555L38.7494 59.6535L44.897 62.4769L47.3302 57.179L41.1826 54.3555ZM37.1241 59.476L36.6145 60.5855L45.5411 64.6853L46.0507 63.5757L37.1241 59.476ZM41.207 63.7115C42.1075 64.5972 42.9991 65.6604 43.4744 66.3386L45.0758 66.0936C44.486 65.3749 43.4344 64.2382 42.4939 63.3342L41.207 63.7115ZM39.5226 61.8969C38.6454 62.0146 37.088 61.9529 35.9345 61.75C36.085 62.1338 36.2566 62.7089 36.3272 63.0561C37.4991 63.2191 39.0665 63.2853 40.1903 63.1841L39.5226 61.8969ZM50.0041 59.0002C50.3236 59.7279 50.7119 60.7536 50.8252 61.3503L52.0159 60.8925C51.8735 60.3066 51.4468 59.3117 51.109 58.624L50.0041 59.0002ZM46.7874 67.6908C47.0776 67.5335 47.536 67.4051 50.116 66.6896C50.0717 66.3908 50.0784 65.8492 50.1253 65.4834L47.3794 66.2438L46.9996 66.5172L46.7874 67.6908ZM48.3206 60.9263L47.7926 62.0759L49.6019 62.9068L50.1299 61.7573L48.3206 60.9263ZM54.2259 60.2976L53.7163 61.4072L56.4353 62.6559L56.9449 61.5463L54.2259 60.2976ZM51.2008 63.7743L50.6866 64.8939L55.2448 66.9874L55.759 65.8678L51.2008 63.7743ZM55.3992 65.7025L55.3211 65.8724C53.6813 67.7824 51.2612 68.1234 48.6892 67.4506C48.7698 67.8023 48.7893 68.3923 48.7516 68.7381C51.6852 69.3349 54.3058 68.9528 56.4248 66.5004L55.8374 65.8554L55.6091 65.7989L55.3992 65.7025ZM52.0879 65.2954L50.9322 65.1761C51.012 67.5853 52.0091 69.6048 54.0957 71.2288C54.3926 70.9778 54.9374 70.6349 55.3021 70.4998C53.2858 69.0654 52.1568 67.2274 52.0879 65.2954ZM53.936 60.1644L53.4356 61.254C53.1234 61.9338 52.6283 62.59 51.1255 62.5414C51.2628 62.8223 51.4768 63.4895 51.5112 63.7837C53.2436 63.7805 54.0777 62.8078 54.5414 61.7982L55.0556 60.6786L53.936 60.1644ZM56.3951 61.2938L55.3942 63.473C54.9351 64.4726 54.9422 64.9843 55.9319 65.4388C56.0718 65.503 56.4217 65.6637 56.5716 65.7326C56.8015 65.8382 57.046 65.9384 57.2281 65.9373C57.3121 65.649 57.4749 65.2154 57.5926 64.9063C57.4343 64.882 57.1707 64.7973 57.0207 64.7284C56.9008 64.6733 56.6009 64.5356 56.5009 64.4897C56.351 64.4208 56.3861 64.2917 56.5192 64.0018L57.5246 61.8126L56.3951 61.2938ZM46.7874 67.6908C46.9849 67.2609 48.3842 67.0078 48.3842 67.0078L50.6797 62.0098L49.5201 61.4772L47.6057 65.6456C47.3899 66.1154 46.9447 66.3467 46.6514 66.4057C46.7503 66.7174 46.826 67.3695 46.7874 67.6908ZM60.141 63.68C60.485 64.4069 60.9226 65.431 61.055 66.0123L62.2641 65.5145C62.1017 64.9194 61.6166 63.9462 61.2542 63.2592L60.141 63.68ZM56.9776 72.4919C57.2823 72.3292 57.7753 72.2046 60.4794 71.6671C60.4596 71.3675 60.5184 70.7651 60.6045 70.3931L57.6838 70.9279L57.2348 71.1938L56.9776 72.4919ZM58.3567 65.5357L57.8104 66.7252L60.0395 67.749L60.5859 66.5594L58.3567 65.5357ZM61.6033 67.1115L61.0294 68.361L67.0371 71.1202L67.611 69.8707L61.6033 67.1115ZM65.4402 65.1091L61.1476 74.4555L62.4371 75.0477L66.7297 65.7013L65.4402 65.1091ZM56.9776 72.4919C57.1796 72.0521 58.6897 71.8741 58.6897 71.8741L61.0357 66.766L59.8062 66.2013L57.8733 70.4097C57.6668 70.8596 57.2008 71.0571 56.892 71.0969C56.9872 71.4432 57.0245 72.1261 56.9776 72.4919Z" fill="black"/>
</g>
</svg>
