
<svg width="120" height="120" viewBox="0 0 120 120" fill="none" xmlns="http://www.w3.org/2000/svg">
<path d="M30.3406 51.4906L30.238 53.5144L28.2191 52.2043L28.3217 50.1805L30.3406 51.4906ZM31.4161 55.7729L31.6654 50.8746L27.1583 47.9563L26.8601 53.8126L28.092 54.6094L28.1408 53.6464L31.4161 55.7729ZM35.9134 50.5911L26.3321 44.3877L26.2539 45.908L33.2835 50.4591L32.8973 57.9726C32.8826 58.2366 32.7849 58.266 32.5404 58.1046C32.2862 57.9384 31.3574 57.3518 30.6046 56.8141C30.7757 57.342 30.9908 58.2562 31.0446 58.745C32.1298 59.449 32.9168 59.9329 33.4643 60.0209C33.9776 60.0893 34.1829 59.7667 34.2269 58.8526L34.6131 51.3097L35.8352 52.1016L35.9134 50.5911Z" fill="white"/>
<path d="M39.8096 57.7782L38.9541 57.5142L39.047 55.6517L39.9514 56.2383L40.0247 54.8451L39.1203 54.2585L39.2425 51.8778L38.084 51.125L37.9618 53.5057L36.7592 52.7333L36.6859 54.1265L37.8885 54.9038L37.776 57.1182C37.2481 56.9325 36.7739 56.7711 36.3828 56.6343L36.5832 58.2572L37.6978 58.5847L37.5609 61.2538C37.5511 61.42 37.4974 61.4347 37.3703 61.3516C37.2432 61.2832 36.8814 61.0485 36.4904 60.765C36.6272 61.2734 36.7348 61.9822 36.7494 62.3684C37.4289 62.823 37.8982 63.0723 38.2209 63.0332C38.5631 63.0039 38.6902 62.7057 38.7244 62.0115L38.8808 58.9221C39.2279 59.0394 39.5603 59.1274 39.8976 59.2251L39.8096 57.7782ZM40.5575 61.3663C40.9486 62.3146 41.4032 63.5612 41.5597 64.3042L42.6693 64.2651C42.4787 63.5025 41.9898 62.256 41.589 61.3418L40.5575 61.3663ZM46.4921 62.0164L46.5605 60.6477L43.9452 58.9514L43.999 57.8515L46.1352 59.2349L46.2037 57.8661L44.0674 56.4827L44.1359 55.1042L42.9333 54.3269L42.8649 55.7055L40.6895 54.2976L40.6211 55.6664L42.8013 57.0791L42.7476 58.179L40.1078 56.4729L40.0394 57.8417L44.0479 60.4375L43.999 61.4347L40.0834 58.9025L40.0149 60.2713L43.9306 62.8035L43.7986 65.3601C43.7888 65.5361 43.735 65.541 43.5835 65.4432C43.4124 65.3454 42.86 64.9886 42.3809 64.6513C42.508 65.1548 42.64 65.849 42.6693 66.3036C43.4368 66.7973 43.9892 67.1297 44.395 67.1737C44.8202 67.2128 44.9571 66.9244 44.9962 66.1618L45.1282 63.5807L46.2966 64.3384L46.365 62.9697L45.1967 62.212L45.2455 61.2098L46.4921 62.0164Z" fill="white"/>
<path d="M56.2235 68.934C56.4924 68.3914 56.8101 67.5115 57.0643 66.6951L56.2675 65.9716L56.0866 65.8934L54.6201 64.945L54.6592 64.1727L56.4973 65.3654L56.5608 64.114L54.7228 62.9212L54.7716 61.9484L53.5398 61.1516L53.4909 62.1244L51.687 60.9512L51.6235 62.2026L53.4224 63.3661L53.3833 64.1384L51.2129 62.7355L51.1493 64.0016L55.6565 66.92C55.5245 67.355 55.3827 67.751 55.2605 68.0345L56.2235 68.934ZM49.1793 65.0379C49.8588 64.4464 50.5089 63.7034 51.0467 62.9114L50.1472 61.6209C49.9517 61.968 49.7415 62.2857 49.5166 62.5986L48.6513 62.1146C49.2868 61.4791 49.9272 60.5992 50.3672 59.6851L49.321 58.3945C48.8713 59.6362 48.0794 60.7654 47.8154 61.0001C47.5808 61.2787 47.3852 61.44 47.1701 61.3667C47.2923 61.8115 47.439 62.5741 47.4781 62.8723C47.6443 62.887 47.8887 62.9701 48.8126 63.4345C48.4411 63.8354 48.1185 64.1336 47.9474 64.246C47.615 64.5148 47.3657 64.6517 47.1066 64.5637C47.219 64.9744 47.3657 65.6978 47.4048 66.0009C47.6492 65.9374 48.0843 66.0205 50.5383 66.8026C50.4992 66.4653 50.5089 65.8934 50.548 65.517L49.1793 65.0379ZM50.4063 67.6923C49.1451 67.4381 47.8399 67.1693 46.9844 66.9297L47.1897 68.4989C48.1723 68.6651 49.3993 68.8704 50.5578 69.0318L50.4063 67.6923ZM56.639 71.999L56.7075 70.6938L54.493 69.2615C54.5712 68.8411 54.6103 68.4256 54.6348 68.0199L54.7032 66.6511L53.5447 65.8983L53.5055 66.6462C53.222 66.1525 52.7185 65.4436 52.2981 64.9206L51.7604 65.3068C52.1808 65.8689 52.7234 66.6755 52.9727 67.1644L53.5007 66.7586L53.4762 67.2279C53.4567 67.6337 53.4127 68.0736 53.2905 68.4794L52.303 67.839L52.8163 67.4919C52.5376 66.9688 51.951 66.1085 51.5111 65.5219L50.9098 65.8787C51.3106 66.4116 51.7897 67.1546 52.0683 67.6874L50.7729 66.8466L50.7045 68.1518L52.8016 69.5108C52.3372 70.0339 51.5942 70.3516 50.3427 70.1512C50.5725 70.5765 50.9 71.3195 51.0222 71.7253C52.7478 71.9404 53.6571 71.3 54.1264 70.3614L56.639 71.999ZM53.8966 71.2316C54.6494 72.3999 55.5587 73.9935 55.9595 74.9223L56.815 74.5361C56.3702 73.5829 55.4267 72.0186 54.6934 70.9285L53.8966 71.2316Z" fill="white"/>
<path d="M63.8135 69.6369L65.2409 70.5608L65.1725 71.9149C65.1089 73.1664 65.2947 73.8361 66.3457 74.5205L67.0252 74.9604C67.2501 75.1071 67.514 75.2635 67.69 75.2879C67.6558 74.9115 67.6607 74.3787 67.6558 73.9876C67.5043 73.9436 67.2354 73.8067 67.0643 73.6992L66.5119 73.3423C66.3652 73.2446 66.3506 73.0784 66.3701 72.7117L66.5119 69.9547L62.7038 67.4909L62.6354 68.8596C62.5914 69.7347 62.3861 70.5413 61.0075 70.3555C61.2324 70.7075 61.6577 71.6021 61.7946 71.9882C63.3491 72.13 63.7499 70.9275 63.8135 69.676V69.6369ZM61.2373 68.2535C60.9146 67.4811 60.1667 66.1515 59.6339 65.2275L58.7784 65.6284C59.3112 66.5865 60.0103 67.9553 60.3231 68.7325L61.2373 68.2535ZM60.1765 74.3933L60.4209 69.5978L57.9327 67.9846L57.8594 69.4267L59.1255 70.248L58.9299 74.0414C58.9006 74.6475 58.578 74.8871 58.3335 74.936C58.5291 75.3661 58.8273 76.1972 58.9055 76.6274C59.1108 76.4465 59.4823 76.3194 61.5501 75.6106C61.4035 75.2391 61.2226 74.5351 61.1346 74.0609L60.1765 74.3933ZM65.4902 75.9625C65.1334 76.466 64.6787 76.7985 64.1508 76.9793C63.6326 76.1092 63.222 75.1999 62.9482 74.3151L65.4902 75.9625ZM66.4044 75.0386L66.1893 74.9653L61.511 71.9345L61.4377 73.3374L62.2052 73.8312L61.7603 73.7285C62.0976 74.9115 62.5523 76.0456 63.1047 77.1211C62.347 77.126 61.4817 76.8913 60.5431 76.4954C60.7289 76.9402 60.9538 77.7028 61.0515 78.1721C62.1416 78.5632 63.1535 78.7734 64.0335 78.7049C64.7765 79.8391 65.6711 80.8901 66.7074 81.8727C66.8883 81.5598 67.2598 81.1834 67.5531 81.0318C66.6292 80.2106 65.8275 79.3502 65.1382 78.4361C66.0035 78.0548 66.6928 77.258 67.1572 75.9381L66.4044 75.0386Z" fill="white"/>
<path d="M72.1057 75.2037C71.7586 74.4313 70.9716 73.1114 70.4143 72.1875L69.5686 72.6323C70.1356 73.6149 70.8689 74.9641 71.2013 75.7561L72.1057 75.2037ZM71.1867 81.5977L71.436 76.724L68.5958 74.8859L68.5176 76.3769L70.0721 77.3839L69.8766 81.192C69.8472 81.759 69.4855 81.9595 69.2411 81.9986C69.4268 82.4581 69.7006 83.3429 69.7886 83.8024C70.0085 83.6167 70.4192 83.5042 72.6483 83.0545C72.5261 82.6634 72.3648 81.891 72.3159 81.412L71.1867 81.5977ZM78.4313 81.3338L75.9871 79.7499L76.1875 75.8392L74.8285 74.9592L74.6281 78.87L72.0764 77.2177L71.9981 78.7869L74.5499 80.4392L74.2273 86.7257L75.5862 87.6056L75.9089 81.3191L78.3531 82.9029L78.4313 81.3338Z" fill="white"/>
<path d="M88.584 74.2129V104.036" stroke="#E7EC98"/>
<path d="M17 30.208L88.5846 74.2137" stroke="#E7EC98"/>
<path d="M88.584 74.2134L103.068 59.7256" stroke="#E7EC98"/>
<path d="M31.2078 16L103.069 59.7256L103.04 89.581L88.5846 104.036L17 60.0344V30.2078L31.2078 16Z" stroke="#E7EC98"/>
<mask id="mask0_2498_5458" style="mask-type:alpha" maskUnits="userSpaceOnUse" x="0" y="0" width="120" height="120">
<rect width="120" height="120" fill="#C4C4C4"/>
</mask>
<g mask="url(#mask0_2498_5458)">
</g>
</svg>
