<svg width="120" height="120" viewBox="0 0 120 120" fill="none" xmlns="http://www.w3.org/2000/svg">
<path d="M80.4102 39.333L107 48.4344" stroke="#EFFE97"/>
<path d="M19.334 89.7257L80.4081 39.333" stroke="#EFFE97"/>
<path d="M80.4079 39.3333L71.9121 22" stroke="#EFFE97"/>
<path d="M11 72.7243L71.9117 22L98.5224 31.1386L106.998 48.4347L45.9203 98.8273L19.3334 89.7259L11 72.7243Z" stroke="#EFFE97"/>
<path d="M11 72.7236L31.3242 79.8288" stroke="#EFFE97"/>
<path d="M48.8268 84.5245L47.8362 84.1427L48.9663 83.2302L49.9569 83.612L48.8268 84.5245ZM46.0303 86.7826L45.0151 87.6023L44.0246 87.2205L45.0397 86.4008L46.0303 86.7826ZM39.3728 84.3077L38.2044 85.2511L37.191 84.8605L38.3594 83.9171L39.3728 84.3077ZM41.2613 81.5739L42.5159 80.5609L43.5292 80.9515L42.2746 81.9646L41.2613 81.5739ZM48.498 80.8104L47.3253 80.3584L45.7259 81.6498L45.6789 81.3346C45.2536 81.4335 44.6602 81.6274 44.1219 81.8312L45.7595 80.5088L42.4691 79.2405L39.098 81.9625L42.3884 83.2309L43.4132 82.4035L43.4645 82.8917C43.8675 82.7157 44.3562 82.5385 44.8065 82.3922L42.8145 84.0006C42.6717 83.7628 42.5175 83.5206 42.3232 83.2971L41.4359 83.8234L38.2935 82.6121L35.0373 85.2413L38.3277 86.5097L41.0859 84.2826C41.2707 84.5137 41.4057 84.7714 41.512 85.0523L38.658 87.3568L39.8307 87.8089L41.6504 86.3396C41.5827 86.9647 41.3449 87.6728 40.8838 88.4662C41.3432 88.3805 42.1315 88.3416 42.5461 88.3871C42.6214 88.2448 42.6872 88.1102 42.7416 87.9712L45.4172 89.0026L46.4611 88.1597L46.1878 88.0544L47.203 87.2347L47.4079 87.3137L48.4997 86.4321L44.9702 85.0715L43.208 86.4944C43.2842 85.9983 43.2784 85.5276 43.2019 85.0868L44.8778 83.7335C45.6457 83.6296 46.4578 83.4628 47.2399 83.2388L45.631 84.538L49.2288 85.9248L50.2727 85.0819L49.9995 84.9766L51.1296 84.0641L51.3345 84.1431L52.4359 83.2538L49.8969 82.2751C50.0382 82.2153 50.1777 82.1434 50.3076 82.0792C50.1307 81.8282 49.9362 81.3877 49.9347 81.09C48.8127 81.6972 47.5487 82.2153 46.3527 82.5426L48.498 80.8104Z" fill="white"/>
<path d="M55.0749 74.1144L52.4891 76.2023L51.8629 75.961L54.4487 73.873L55.0749 74.1144ZM56.5436 74.6806L53.9578 76.7685L53.343 76.5315L55.9288 74.4436L56.5436 74.6806ZM58.0352 75.2555L55.4494 77.3435L54.8231 77.1021L57.409 75.0141L58.0352 75.2555ZM49.8452 76.4628L55.3331 78.5782L60.1121 74.7194L54.6242 72.604L52.4502 74.3594C52.3315 74.2108 52.1995 74.0457 52.0562 73.8762L54.642 71.7882L53.5376 71.3625L52.0053 72.5998C51.8798 72.3344 51.7412 72.0524 51.5893 71.754L50.1236 72.5028C50.388 72.7647 50.6855 73.1764 50.8752 73.5123L49.3811 74.7187L49.6095 74.2355C49.1662 74.2131 48.3761 74.2399 47.7819 74.285L47.2928 75.2504C47.7613 75.2253 48.3076 75.2188 48.7395 75.2368L47.437 76.2885L48.5414 76.7142L50.8399 74.8583C51.0293 74.977 51.2091 75.1034 51.3776 75.2255L49.8452 76.4628ZM48.0833 76.8804C47.2609 76.9061 45.8623 77.0982 44.8388 77.2863L44.6276 78.2445C45.7081 78.0784 47.1235 77.9271 47.8962 77.9279L48.0833 76.8804ZM49.8212 77.596L47.5993 79.3901L48.8517 79.8728L49.9818 78.9603L53.0901 80.1585C52.885 80.5821 52.8238 81.1069 52.8729 81.6514L54.701 81.5335C54.4829 80.9353 54.311 80.2864 54.6462 80.0157C54.8856 79.8224 55.5091 79.6857 56.2115 79.4309C57.3511 79.0134 58.3113 78.401 59.4606 77.473C60.3895 76.7229 61.8535 75.4593 62.4401 74.9313C62.0835 74.771 61.6543 74.4113 61.4372 74.1791C60.6562 74.9863 59.303 76.2012 58.3261 76.99C57.3014 77.8175 56.3502 78.4904 55.3118 78.8671C54.8555 79.0453 54.4645 79.1574 54.1477 79.2638L49.8212 77.596Z" fill="white"/>
<path d="M63.5592 71.2841L62.6973 71.98L59.8508 70.8828L60.7128 70.1868L63.5592 71.2841ZM58.3433 67.971L57.1137 67.497L53.6372 70.3041L54.8669 70.7781L55.882 69.9584C57.1341 70.7267 58.1191 71.5748 58.4685 72.4064C59.0089 72.4319 60.0657 72.6108 60.4684 72.7203C60.4089 72.5375 60.3267 72.3458 60.2348 72.1619L63.7758 73.5268L64.7239 72.7613L63.8928 72.4409L65.722 70.9638L60.4846 68.9449L58.6937 70.391C58.1757 69.94 57.5738 69.5024 56.9355 69.1078L58.3433 67.971ZM63.3961 67.3139L60.5838 66.2298L61.6565 65.3637L64.4687 66.4478L63.3961 67.3139ZM66.5565 64.762L65.5509 65.5739L62.7387 64.4899L63.5527 63.8326L62.3003 63.3498L57.6075 67.139L58.86 67.6218L59.5208 67.0882L62.333 68.1723L61.4232 68.9069L62.6984 69.3985L63.5891 68.6793C64.9207 69.2611 66.2638 70.0645 66.4991 71.1377C66.9284 70.9948 67.716 70.8071 68.1466 70.7446C67.892 69.4697 66.2684 68.5125 64.6521 67.8209L65.7439 66.9393L70.4803 68.7651L71.5625 67.8913L66.8261 66.0655L67.8317 65.2535L66.5565 64.762Z" fill="white"/>
<path d="M66.3198 62.1687L72.2863 57.351L73.2427 57.7196L74.4494 56.7453L72.3203 55.9246L68.9396 58.6543C68.449 58.6023 67.7792 58.5726 67.2197 58.5626L66.3564 59.6808C66.735 59.701 67.1382 59.7422 67.5414 59.7834L63.9979 62.6446L66.2408 63.5092L67.3901 62.5813L66.3198 62.1687ZM70.6269 59.7503C72.0796 59.2021 74.0947 58.5393 75.2063 58.2938L75.2311 57.3094C74.0315 57.6124 72.0333 58.3159 70.6758 58.8552L70.6269 59.7503ZM68.8645 63.4009C69.4045 62.4895 69.7927 61.2796 69.8403 60.304L68.3139 60.7895C68.2117 61.6869 67.7024 62.8045 67.1688 63.6156L68.8645 63.4009ZM78.855 60.2372C78.6539 60.3996 78.5682 60.4009 78.1925 60.256L74.8907 58.9833L72.3432 61.0402L71.364 60.6628L70.186 61.614L71.1652 61.9914L68.8571 63.8551L70.1095 64.3379L72.3697 62.5129C73.2202 63.0349 73.6297 63.9811 72.1155 66.0594C72.6893 65.9492 73.5122 65.8552 74.0471 65.8443C75.8155 63.3842 74.9339 62.2217 73.5668 61.5462L74.9651 60.4172L77.0259 61.2116C78.3466 61.7207 79.0211 61.6379 79.9309 60.9033L80.7832 60.215C81.5973 59.5577 81.3836 59.1326 79.6445 58.3366C79.226 58.5523 78.5098 58.8589 78.0217 58.9678C79.4048 59.5352 79.5828 59.6495 79.3817 59.8119L78.855 60.2372Z" fill="white"/>
<path d="M79.1922 53.8665L80.5812 54.4019L79.2213 55.5L78.9139 55.3815L77.8322 54.9646L79.1922 53.8665ZM82.8895 53.9778L79.0867 52.5119L76.6254 54.4993L75.817 54.1877C76.6668 53.3386 77.4848 52.42 77.9992 51.6243L76.1214 51.7688C75.6507 52.5699 74.6634 53.7202 73.6831 54.7019L73.6736 54.7096L77.7838 56.294C79.2639 56.8646 81.1384 57.6328 81.8348 58.6325C82.2432 58.4929 83.1871 58.274 83.6177 58.2115C83.0952 57.3703 81.7364 56.6067 80.3899 55.9962L82.8895 53.9778ZM84.8585 48.9787L81.8705 51.3915L80.1399 50.7244C80.9669 49.8664 81.7603 48.9269 82.2519 48.1225L80.3418 48.2659C79.8957 49.0879 78.933 50.2591 77.9467 51.2728L81.4877 52.6377C83.1272 53.2697 85.13 54.1789 85.2202 55.7903C85.6418 55.6672 86.5893 55.4726 87.0331 55.4266C86.9507 53.7953 84.9422 52.6327 83.1702 51.9039L84.1663 51.0997L89.62 53.202L90.7501 52.2895L85.2963 50.1872L86.1679 49.4835L84.8585 48.9787Z" fill="white"/>
<mask id="mask0_2498_5533" style="mask-type:alpha" maskUnits="userSpaceOnUse" x="0" y="0" width="120" height="120">
<rect width="120" height="120" fill="#C4C4C4"/>
</mask>
<g mask="url(#mask0_2498_5533)">
</g>
</svg>
