<svg width="120" height="120" viewBox="0 0 120 120" fill="none" xmlns="http://www.w3.org/2000/svg">
<mask id="mask0_2498_5467" style="mask-type:alpha" maskUnits="userSpaceOnUse" x="0" y="0" width="120" height="120">
<rect width="120" height="120" fill="#C4C4C4"/>
</mask>
<g mask="url(#mask0_2498_5467)">
<path d="M20.998 60L80 30.5L95.498 45L97.498 72.5L36.998 101L21.998 87.5L20.998 60Z" fill="#F0FE97"/>
<path d="M22.3281 87.4551L82.0913 57.7311L80.1738 30.2025L82.0913 57.7311L97.7507 72.0387" stroke="black"/>
<path d="M36.9781 101.2L22.3304 87.4549L20.7993 59.5451L80.1761 30.2023L95.8518 44.8097L97.753 72.0386L36.9781 101.2Z" stroke="black"/>
<path d="M36.2688 60.5246C36.0983 61.0701 35.8132 61.886 35.574 62.4443L36.3153 62.4583C36.5829 61.9336 36.9045 61.2081 37.246 60.4718L36.2688 60.5246ZM34.2446 66.9611L35.3336 66.3701L35.3694 65.0162C35.7358 65.1847 36.111 65.3851 36.3219 65.5278L36.963 64.1637C36.7986 64.106 36.2551 63.9969 35.8181 63.9157L37.2635 63.1314L37.2944 61.9638L35.4233 62.9791L35.4811 60.7929L34.3921 61.3838L34.3343 63.57L33.3344 64.1126L34.1481 63.2302C34.0801 62.8509 33.8497 62.3393 33.5945 62.0247L32.7514 62.9107C32.9564 63.277 33.1674 63.7869 33.2354 64.1663L32.4632 64.5853L32.4323 65.7529L33.8975 64.9579C33.4161 65.819 32.778 66.704 32.186 67.319C32.3966 67.4741 32.6412 67.8189 32.7613 68.072C33.2652 67.468 33.8037 66.6616 34.2742 65.8431L34.2446 66.9611ZM35.5883 68.1786C35.3986 68.7101 35.1508 69.2241 34.8645 69.7223C34.6117 69.6881 34.3391 69.6646 34.076 69.6481C34.1803 69.3957 34.2852 69.1184 34.3904 68.8286L35.5883 68.1786ZM36.4179 70.018C36.2245 69.9515 35.9918 69.8941 35.7295 69.8528C36.2534 68.8584 36.673 67.7492 36.9395 66.5272L36.3138 66.5729L36.1346 66.7068L34.8774 67.3891C34.941 67.1953 35.0047 67.0016 35.0585 66.8133L34.0252 67.1413C33.9497 67.415 33.8642 67.6939 33.7686 67.9907L32.5311 68.6622L32.4995 69.8547L33.2519 69.4464C33.0428 69.9762 32.8445 70.4633 32.6578 70.883C33.097 70.8772 33.5845 70.8943 34.0415 70.9524C33.4658 71.6934 32.7939 72.3762 32.0759 72.9618C32.2673 73.1027 32.4812 73.5009 32.5812 73.7772C33.4804 72.9832 34.2843 72.1062 34.9643 71.1128C35.2554 71.1752 35.5069 71.2592 35.6999 71.338L36.4179 70.018ZM39.7207 62.0919C39.5938 63.2014 39.4108 64.219 39.1607 65.1872C38.9267 64.445 38.7539 63.5959 38.6317 62.6828L39.7207 62.0919ZM41.4334 61.1625L41.4695 59.7962L38.8361 61.2251C38.9723 60.5023 39.0897 59.753 39.1873 59.0144L38.1234 59.3958C37.8369 61.7428 37.3458 64.0784 36.5197 65.8C36.7517 65.8823 37.1844 66.125 37.3362 66.2874C37.5332 65.85 37.7212 65.3807 37.8901 64.8972C38.0632 65.7338 38.258 66.4851 38.5244 67.1119C37.9922 68.4169 37.2389 69.5969 36.2243 70.6985C36.4246 70.8714 36.7151 71.3259 36.8161 71.5649C37.7522 70.4815 38.4847 69.3495 39.074 68.0992C39.4965 68.727 40.0223 69.1395 40.6912 69.303C40.8595 68.8444 41.2201 68.1223 41.4844 67.7217C40.7554 67.6154 40.1722 67.1605 39.7427 66.4263C40.2402 64.9565 40.5756 63.342 40.8097 61.501L41.4334 61.1625Z" fill="black"/>
<path d="M43.7489 58.8409L49.8769 55.5157L49.8385 56.969L51.0562 56.3082L51.1314 53.4637L47.7258 55.3117C47.6076 54.984 47.3832 54.6161 47.1554 54.3724L45.9655 55.4588C46.0979 55.6196 46.2187 55.8479 46.3299 56.0691L42.6273 58.0782L42.5521 60.9228L43.7104 60.2942L43.7489 58.8409ZM51.0565 58.8791L47.3638 60.8829L47.3694 60.6717C48.2168 59.6243 49.0199 58.4049 49.6141 57.3356L48.8524 56.9899L48.5831 57.2094L44.2074 59.5838L44.1709 60.9626L47.3587 59.2329C46.9723 59.8221 46.5466 60.4203 46.124 60.9068L46.1065 61.5651L42.4337 63.5581L42.3966 64.9618L46.0694 62.9688L46.0208 64.8072C46.0162 64.9811 45.9555 65.063 45.7575 65.1704C45.5595 65.2779 44.817 65.6808 44.2039 65.989C44.4013 66.2736 44.6116 66.8084 44.6789 67.2126C45.4907 66.7721 46.1247 66.4159 46.6061 65.922C47.0971 65.4352 47.2561 64.9572 47.2771 64.1622L47.3267 62.2865L51.0194 60.2828L51.0565 58.8791Z" fill="black"/>
<path d="M58.4052 51.8307C57.9829 53.4066 57.4086 54.8324 56.7005 56.1471C55.9641 55.5795 55.4007 54.7466 55.0095 53.6733L58.4052 51.8307ZM61.2464 50.289L61.2845 48.8481L56.9781 51.1849L57.8383 50.3875C57.733 49.9427 57.457 49.3089 57.2147 48.8772L55.9453 50.019C56.1585 50.442 56.3579 51.0194 56.4534 51.4696L52.2756 53.7366L52.2375 55.1775L53.7918 54.3341C54.2801 55.7954 54.9238 56.9153 55.7822 57.6616C54.7261 59.2264 53.4302 60.6274 51.873 61.9499C52.1018 62.1564 52.4299 62.6639 52.5494 62.9419C54.1584 61.5056 55.5066 59.966 56.6252 58.2571C57.6358 58.7861 58.8912 58.913 60.4317 58.5913C60.6207 58.0847 60.9843 57.2507 61.2601 56.7827C59.7966 57.1484 58.5682 57.1048 57.5748 56.6644C58.4679 54.9922 59.1796 53.1736 59.7317 51.1109L61.2464 50.289Z" fill="black"/>
<path d="M63.4681 50.0384C64.0505 49.049 64.5764 47.9801 65.0148 46.8974C65.5294 47.365 66.0707 47.9283 66.448 48.4215L63.4681 50.0384ZM66.8421 48.6484L67.6181 47.3458C67.2045 46.7499 66.3176 45.9701 65.5819 45.3776C65.6459 45.1714 65.7202 44.9475 65.7842 44.7414L64.7159 44.917C64.1597 46.7615 63.0762 48.99 61.8514 50.6586C62.1022 50.7673 62.4841 51.0866 62.664 51.2951C62.7656 51.142 62.8772 50.9835 62.9788 50.8304L62.8589 55.3643C62.8211 56.7927 63.1769 56.9915 64.3352 56.3629L65.9192 55.5034C66.929 54.9555 67.2497 54.2672 67.4247 52.446C67.1198 52.538 66.6604 52.5669 66.4191 52.4652C66.3252 53.8017 66.2494 54.0877 65.8534 54.3026L64.507 55.0332C64.0615 55.2749 63.9843 55.2433 63.9977 54.7341L64.0979 50.9455L65.672 50.0914C65.5843 51.1918 65.5029 51.689 65.4102 51.874C65.3379 52.0234 65.2581 52.0912 65.1294 52.1611C64.9809 52.2416 64.6839 52.4028 64.3684 52.525C64.508 52.7798 64.613 53.2371 64.6127 53.6168C65.048 53.3928 65.4344 53.1709 65.673 53.0047C65.9416 52.81 66.1621 52.5924 66.3475 52.2224C66.5841 51.7635 66.707 50.803 66.8407 48.6981L66.8421 48.6484ZM68.9549 44.0248L67.8263 44.6372L67.6408 51.6553L68.7694 51.0429L68.9549 44.0248ZM69.7484 42.4311L69.4939 52.0578C69.4876 52.2938 69.4065 52.4113 69.218 52.5258C69.02 52.6332 68.3568 52.9931 67.734 53.2943C67.8918 53.6005 68.0536 54.1249 68.0923 54.5079C69.0229 54.0029 69.6574 53.6219 70.0696 53.1656C70.4913 52.7164 70.6397 52.2685 70.6621 51.4239L70.9166 41.7972L69.7484 42.4311Z" fill="black"/>
</g>
</svg>
