<svg width="120" height="120" viewBox="0 0 120 120" fill="none" xmlns="http://www.w3.org/2000/svg">
<path d="M22.3301 87.4541L82.0933 57.7302L80.1757 30.2015L82.0933 57.7302L97.7527 72.0378" stroke="#F0FE97"/>
<path d="M36.9781 101.199L22.3304 87.454L20.7993 59.5441L80.1761 30.2014L95.8518 44.8087L97.753 72.0376L36.9781 101.199Z" stroke="#F0FE97"/>
<path d="M36.2688 60.5236C36.0983 61.0692 35.8132 61.885 35.574 62.4433L36.3153 62.4573C36.5829 61.9326 36.9045 61.2071 37.246 60.4709L36.2688 60.5236ZM34.2446 66.9601L35.3336 66.3692L35.3694 65.0152C35.7358 65.1837 36.111 65.3841 36.3219 65.5268L36.963 64.1627C36.7986 64.105 36.2551 63.9959 35.8181 63.9147L37.2635 63.1304L37.2944 61.9628L35.4233 62.9781L35.4811 60.7919L34.3921 61.3828L34.3343 63.569L33.3344 64.1116L34.1481 63.2293C34.0801 62.8499 33.8497 62.3383 33.5945 62.0237L32.7514 62.9097C32.9564 63.276 33.1674 63.7859 33.2354 64.1653L32.4632 64.5843L32.4323 65.7519L33.8975 64.9569C33.4161 65.818 32.778 66.703 32.186 67.3181C32.3966 67.4731 32.6412 67.8179 32.7613 68.071C33.2652 67.4671 33.8037 66.6606 34.2742 65.8421L34.2446 66.9601ZM35.5883 68.1777C35.3986 68.7091 35.1508 69.2231 34.8645 69.7213C34.6117 69.6871 34.3391 69.6636 34.076 69.6472C34.1803 69.3947 34.2852 69.1174 34.3904 68.8277L35.5883 68.1777ZM36.4179 70.017C36.2245 69.9505 35.9918 69.8931 35.7295 69.8519C36.2534 68.8574 36.673 67.7482 36.9395 66.5262L36.3138 66.5719L36.1346 66.7058L34.8774 67.3881C34.941 67.1944 35.0047 67.0007 35.0585 66.8123L34.0252 67.1404C33.9497 67.414 33.8642 67.693 33.7686 67.9897L32.5311 68.6612L32.4995 69.8537L33.2519 69.4454C33.0428 69.9752 32.8445 70.4623 32.6578 70.882C33.097 70.8763 33.5845 70.8934 34.0415 70.9514C33.4658 71.6924 32.7939 72.3753 32.0759 72.9608C32.2673 73.1018 32.4812 73.4999 32.5812 73.7762C33.4804 72.9822 34.2843 72.1053 34.9643 71.1118C35.2554 71.1743 35.5069 71.2582 35.6999 71.3371L36.4179 70.017ZM39.7207 62.0909C39.5938 63.2004 39.4108 64.218 39.1607 65.1862C38.9267 64.444 38.7539 63.595 38.6317 62.6818L39.7207 62.0909ZM41.4334 61.1615L41.4695 59.7952L38.8361 61.2241C38.9723 60.5013 39.0897 59.752 39.1873 59.0134L38.1234 59.3948C37.8369 61.7419 37.3458 64.0775 36.5197 65.7991C36.7517 65.8813 37.1844 66.124 37.3362 66.2865C37.5332 65.849 37.7212 65.3797 37.8901 64.8962C38.0632 65.7328 38.258 66.4842 38.5244 67.1109C37.9922 68.4159 37.2389 69.596 36.2243 70.6975C36.4246 70.8704 36.7151 71.3249 36.8161 71.564C37.7522 70.4806 38.4847 69.3485 39.074 68.0982C39.4965 68.726 40.0223 69.1386 40.6912 69.302C40.8595 68.8434 41.2201 68.1213 41.4844 67.7208C40.7554 67.6144 40.1722 67.1595 39.7427 66.4253C40.2402 64.9555 40.5756 63.3411 40.8097 61.5L41.4334 61.1615Z" fill="white"/>
<path d="M43.7489 58.8399L49.8769 55.5147L49.8385 56.968L51.0562 56.3073L51.1314 53.4627L47.7258 55.3107C47.6076 54.983 47.3832 54.6151 47.1554 54.3714L45.9655 55.4578C46.0979 55.6186 46.2187 55.8469 46.3299 56.0681L42.6273 58.0773L42.5521 60.9218L43.7104 60.2933L43.7489 58.8399ZM51.0565 58.8782L47.3638 60.8819L47.3694 60.6708C48.2168 59.6233 49.0199 58.4039 49.6141 57.3346L48.8524 56.9889L48.5831 57.2085L44.2074 59.5829L44.1709 60.9617L47.3587 59.2319C46.9723 59.8211 46.5466 60.4193 46.124 60.9058L46.1065 61.5642L42.4337 63.5572L42.3966 64.9608L46.0694 62.9678L46.0208 64.8062C46.0162 64.9801 45.9555 65.062 45.7575 65.1694C45.5595 65.2769 44.817 65.6798 44.2039 65.988C44.4013 66.2727 44.6116 66.8075 44.6789 67.2117C45.4907 66.7712 46.1247 66.4149 46.6061 65.9211C47.0971 65.4342 47.2561 64.9562 47.2771 64.1612L47.3267 62.2856L51.0194 60.2818L51.0565 58.8782Z" fill="white"/>
<path d="M58.4052 51.8298C57.9829 53.4056 57.4086 54.8315 56.7005 56.1462C55.9641 55.5785 55.4007 54.7456 55.0095 53.6724L58.4052 51.8298ZM61.2464 50.288L61.2845 48.8471L56.9781 51.1839L57.8383 50.3866C57.733 49.9417 57.457 49.3079 57.2147 48.8762L55.9453 50.018C56.1585 50.441 56.3579 51.0184 56.4534 51.4686L52.2756 53.7356L52.2375 55.1765L53.7918 54.3331C54.2801 55.7945 54.9238 56.9144 55.7822 57.6606C54.7261 59.2254 53.4302 60.6265 51.873 61.9489C52.1018 62.1554 52.4299 62.663 52.5494 62.9409C54.1584 61.5047 55.5066 59.965 56.6252 58.2561C57.6358 58.7852 58.8912 58.912 60.4317 58.5903C60.6207 58.0837 60.9843 57.2498 61.2601 56.7818C59.7966 57.1474 58.5682 57.1039 57.5748 56.6634C58.4679 54.9912 59.1796 53.1726 59.7317 51.1099L61.2464 50.288Z" fill="white"/>
<path d="M63.4681 50.0374C64.0505 49.0481 64.5764 47.9791 65.0148 46.8964C65.5294 47.364 66.0707 47.9273 66.448 48.4205L63.4681 50.0374ZM66.8421 48.6474L67.6181 47.3448C67.2045 46.7489 66.3176 45.9691 65.5819 45.3766C65.6459 45.1705 65.7202 44.9465 65.7842 44.7404L64.7159 44.916C64.1597 46.7605 63.0762 48.989 61.8514 50.6576C62.1022 50.7664 62.4841 51.0856 62.664 51.2941C62.7656 51.141 62.8772 50.9825 62.9788 50.8294L62.8589 55.3633C62.8211 56.7918 63.1769 56.9905 64.3352 56.362L65.9192 55.5024C66.929 54.9545 67.2497 54.2663 67.4247 52.445C67.1198 52.537 66.6604 52.5659 66.4191 52.4642C66.3252 53.8007 66.2494 54.0867 65.8534 54.3016L64.507 55.0322C64.0615 55.2739 63.9843 55.2424 63.9977 54.7331L64.0979 50.9445L65.672 50.0904C65.5843 51.1909 65.5029 51.6881 65.4102 51.873C65.3379 52.0224 65.2581 52.0903 65.1294 52.1601C64.9809 52.2407 64.6839 52.4018 64.3684 52.524C64.508 52.7788 64.613 53.2361 64.6127 53.6158C65.048 53.3918 65.4344 53.1699 65.673 53.0037C65.9416 52.809 66.1621 52.5914 66.3475 52.2215C66.5841 51.7625 66.707 50.802 66.8407 48.6971L66.8421 48.6474ZM68.9549 44.0238L67.8263 44.6362L67.6408 51.6544L68.7694 51.042L68.9549 44.0238ZM69.7484 42.4301L69.4939 52.0568C69.4876 52.2928 69.4065 52.4103 69.218 52.5248C69.02 52.6322 68.3568 52.9922 67.734 53.2933C67.8918 53.5995 68.0536 54.1239 68.0923 54.5069C69.0229 54.002 69.6574 53.6209 70.0696 53.1646C70.4913 52.7154 70.6397 52.2676 70.6621 51.4229L70.9166 41.7962L69.7484 42.4301Z" fill="white"/>
<mask id="mask0_2498_5462" style="mask-type:alpha" maskUnits="userSpaceOnUse" x="0" y="0" width="120" height="120">
<rect width="120" height="120" fill="#C4C4C4"/>
</mask>
<g mask="url(#mask0_2498_5462)">
</g>
</svg>
