<svg width="61" height="94" viewBox="0 0 61 94" fill="none" xmlns="http://www.w3.org/2000/svg">
<path d="M0.00390625 89.1224V15.5808L52.311 0V73.5638L0.00390625 89.1224ZM1.11682 16.3821V87.6088L51.1981 72.7291V1.50244L1.11682 16.3821Z" fill="#E7EC98"/>
<path d="M25.5997 28.7463V30.2265L14.3926 33.5652V32.0851L19.0891 30.6828V24.3058L15.0603 25.5077V23.983L24.8651 21.0449V22.5807L20.7251 23.805V30.1375L25.5997 28.7463Z" fill="white"/>
<path d="M37.8317 25.4092V26.8782L26.8027 30.1391V28.6923L29.9857 27.7463V18.4201L31.4992 17.9749V27.29L33.113 26.8003V17.4852L34.6377 17.04V23.8288C35.3434 22.2687 35.9312 20.6579 36.3961 19.0099L37.7204 19.2547C37.1632 20.9745 36.5092 22.6614 35.7617 24.3074L34.6488 24.0737V26.3552L37.8317 25.4092ZM28.4276 26.3774C28.0308 24.9358 27.5362 23.5228 26.9474 22.1483L28.294 21.3582C28.9112 22.678 29.4464 24.0346 29.8966 25.4203L28.4276 26.3774Z" fill="white"/>
<path d="M18.1872 44.127C18.3171 44.4991 18.5049 44.8484 18.7436 45.162C17.7064 46.2521 16.7364 47.4043 15.8389 48.612C15.658 48.2263 15.4049 47.8788 15.0933 47.5882C15.4609 47.2151 15.6787 46.7201 15.7054 46.197V42.491L14.2363 42.9362V41.5228L17.1299 40.6658V45.3401L18.1872 44.127ZM16.963 39.9647C16.3848 39.4191 15.7463 38.9411 15.0599 38.5401L15.9947 37.4272C16.6999 37.774 17.3612 38.2037 17.9646 38.7071L16.963 39.9647ZM25.0539 40.1873C24.6517 41.7278 23.9272 43.1655 22.9282 44.4052C23.8678 44.6074 24.8349 44.6488 25.7884 44.5276C25.4213 45.0135 25.1114 45.5401 24.8647 46.0969C23.8 46.19 22.7275 46.0611 21.7151 45.7185C20.7006 46.6231 19.5794 47.4005 18.3764 48.0333C18.2193 47.6292 17.9976 47.2533 17.7198 46.9204C18.7635 46.4367 19.7399 45.8194 20.6245 45.0841C19.9253 44.5949 19.3436 43.9562 18.9217 43.2144L19.4336 42.8805L18.5433 43.1476V41.801L23.9298 40.1539L24.1747 40.0203L25.0539 40.1873ZM20.9361 37.5274C20.9412 38.3252 20.75 39.112 20.3793 39.8184C20.0086 40.5249 19.4698 41.1293 18.8104 41.5784C18.5306 41.2649 18.1994 41.0015 17.831 40.7994C18.3502 40.518 18.7854 40.104 19.0924 39.5996C19.3993 39.0952 19.567 38.5184 19.5783 37.928V36.5925L24.03 35.2793V37.928C24.03 38.2842 24.03 38.4177 24.2303 38.3732L24.8758 38.184C25.1087 38.1038 25.3356 38.0071 25.5547 37.8947C25.5676 38.2861 25.6048 38.6764 25.666 39.0632C25.4281 39.2122 25.1693 39.3247 24.8981 39.3971L24.1079 39.6308C22.8837 39.9869 22.6389 39.5418 22.6389 38.3287V37.0043L20.9806 37.5051L20.9361 37.5274ZM20.235 42.6468C20.607 43.2186 21.1259 43.6798 21.7374 43.9823C22.3272 43.3161 22.8148 42.566 23.1842 41.7565L20.235 42.6468Z" fill="white"/>
<path d="M31.1768 40.3768C31.2783 40.7965 31.4355 41.2007 31.6443 41.5788C30.5096 42.612 29.4531 43.728 28.4836 44.9175C28.2994 44.5125 28.0556 44.1373 27.7602 43.8046C28.1465 43.4621 28.3858 42.9837 28.4279 42.4691V38.7631L26.625 39.2973V37.8505L29.9638 36.8711V41.6121L31.1768 40.3768ZM29.5965 36.1811C28.9822 35.6575 28.3101 35.2057 27.5932 34.8345L28.517 33.6214C29.2482 33.9465 29.9422 34.3494 30.587 34.8233L29.5965 36.1811ZM38.0435 36.0587L35.2056 36.9045V43.0256L33.6252 43.493V37.3719L30.6649 38.2511V36.7153L33.6252 35.8361V32.0299L35.2056 31.5625V35.3687L38.0435 34.5229V36.0587Z" fill="white"/>
<path d="M25.6229 56.9035L20.7483 58.3615V60.3647C20.7896 60.7 20.7365 61.0402 20.595 61.3469C20.4534 61.6537 20.229 61.9148 19.947 62.1009C19.0896 62.6033 18.1635 62.9782 17.1981 63.2138C17.076 62.758 16.8724 62.3282 16.5971 61.945C17.5097 61.7002 18.5447 61.3997 18.8229 61.3107C19.1012 61.2217 19.2125 61.0992 19.2125 60.8544V58.8178L14.3379 60.2645V58.8289L19.2125 57.3821V55.9464L15.1837 57.1372V55.735L19.2125 54.533V53.0862C17.9326 53.587 16.6305 54.0433 15.4285 54.4551C15.3667 54.042 15.2429 53.6405 15.0613 53.2643C17.9407 52.3363 20.7397 51.175 23.4304 49.792L24.5433 50.6935C23.326 51.3506 22.074 51.9413 20.7928 52.463V54.0767L24.8661 52.8414V54.2548L20.7483 55.4901V56.9258L25.6229 55.479V56.9035Z" fill="white"/>
<path d="M30.4323 53.7553C30.409 54.1667 30.409 54.5792 30.4323 54.9906C29.1897 55.5822 28.0081 56.2942 26.9043 57.1163C26.7876 56.7087 26.631 56.3136 26.4369 55.9366C26.8256 55.6467 27.1355 55.2641 27.3384 54.8237C27.6571 54.4061 27.9471 53.9673 28.2064 53.5104C27.7461 53.6728 27.3085 53.8934 26.9043 54.1671C26.7737 53.7591 26.6137 53.3612 26.4258 52.9762C26.73 52.7318 26.961 52.4084 27.0935 52.0414C27.6379 50.8241 28.0628 49.5569 28.3623 48.2575L29.7311 48.4689C29.3047 49.8019 28.7686 51.0973 28.1285 52.3419L28.9298 52.0303C29.1636 51.5183 29.3861 50.9841 29.5865 50.4499L30.8329 50.8172C30.2606 52.1258 29.6064 53.397 28.8742 54.6234L30.4323 53.7553ZM26.5148 58.4629C27.4719 57.8953 28.9521 56.9271 30.3766 55.9811L30.6326 57.094C29.3416 58.0289 27.9505 58.9971 26.8598 59.765L26.5148 58.4629ZM32.0794 51.8744C31.79 52.2195 31.5007 52.5422 31.2002 52.8427C31.0248 52.391 30.7969 51.9614 30.5213 51.5628C31.9987 50.1708 33.1666 48.4834 33.9491 46.6104L35.2512 46.6771C35.1821 46.8823 35.1003 47.083 35.0064 47.2781C35.8668 48.1308 36.8986 48.7909 38.0335 49.2146C37.7504 49.7293 37.5264 50.2744 37.3658 50.8394C37.0764 50.7059 36.7982 50.5389 36.4977 50.3831V51.2178L32.046 52.5311L32.0794 51.8744ZM36.1527 53.9333C36.8349 54.7045 37.4079 55.5658 37.8554 56.4931L36.5978 57.4502C36.5088 57.2053 36.3753 56.9271 36.2306 56.6266C32.1462 58.2737 31.5675 58.5297 31.1557 58.8524C31.0498 58.4352 30.9044 58.029 30.7216 57.6394C31.0476 57.4942 31.3339 57.2728 31.5563 56.9939C31.7678 56.6823 32.4244 55.369 32.8251 54.5455L31.0333 55.0685V53.733L37.5883 51.7854V53.1209L34.3831 54.078C33.9936 54.8348 33.5262 55.8364 33.1033 56.6489L35.6407 55.6806C35.4293 55.369 35.2067 55.0574 34.9952 54.7792L36.1527 53.9333ZM35.9969 50.0493C35.3935 49.627 34.8242 49.1582 34.2941 48.647C33.8293 49.4692 33.3126 50.261 32.7472 51.0175L35.9969 50.0493Z" fill="white"/>
<path d="M5.45801 93.9966C4.3739 94.03 3.30445 93.7394 2.38636 93.1619C1.61796 92.6272 0.996856 91.9074 0.58055 91.0689C0.164244 90.2305 -0.0338114 89.3006 0.00471543 88.3652L1.11763 88.4431C1.09126 89.1822 1.24941 89.9161 1.57778 90.5787C1.90616 91.2413 2.39442 91.8116 2.99846 92.2382C5.05736 93.6071 8.3516 92.3606 8.38498 92.3383L8.79676 93.3845C7.72522 93.7713 6.59707 93.9781 5.45801 93.9966V93.9966Z" fill="#E7EC98"/>
<path d="M8.75243 93.3954L8.42969 92.2825L59.1898 77.2359V6.0092C57.8877 6.40985 55.2279 6.96631 53.3248 5.69758C52.5507 5.13304 51.9442 4.36915 51.5699 3.48724C51.1956 2.60534 51.0674 1.63842 51.1991 0.689453L52.312 0.85639C52.2093 1.59711 52.3081 2.35182 52.5979 3.04117C52.8878 3.73052 53.358 4.32906 53.9591 4.77386C56.0069 6.14275 59.5237 4.77386 59.5237 4.71821L60.2916 4.4066V78.0706L8.75243 93.3954Z" fill="#E7EC98"/>
<path d="M56.2737 78.6508C55.5319 78.6929 54.7903 78.5653 54.1053 78.2776C53.4203 77.9899 52.8099 77.5498 52.3206 76.9907C51.8313 76.4317 51.4759 75.7684 51.2815 75.0513C51.0871 74.3342 51.0588 73.5822 51.1988 72.8525L52.3117 73.0195C52.2078 73.7603 52.3061 74.5154 52.596 75.205C52.8859 75.8945 53.3568 76.493 53.9588 76.937C56.0066 78.3058 59.5234 76.937 59.5791 76.937L60.002 77.972C58.8078 78.4119 57.5464 78.6416 56.2737 78.6508V78.6508Z" fill="#E7EC98"/>
</svg>
