<svg width="120" height="120" viewBox="0 0 120 120" fill="none" xmlns="http://www.w3.org/2000/svg">
<path d="M82 13.5L30 29V101.579C30 102.364 30.3813 104.312 31.9062 105.819C33.4313 107.327 36.3542 107.076 37.625 106.762L90.5 91V17.5C89.8646 17.9712 88.1688 18.8769 85.5 18.5C82.8312 18.1231 82 15.0705 82 13.5Z" fill="#F0FE97"/>
<path d="M55.683 41.7508V43.2451L44.3691 46.6157V45.1214L49.1104 43.7058V37.2792L45.0882 38.4814V36.9422L55.0426 33.9873V35.5265L50.8631 36.7736V43.2114L55.683 41.7508Z" fill="black"/>
<path d="M68.0306 38.3805V39.8636L56.8965 43.2341V41.6949L60.1098 40.7399V31.3248L61.6377 30.8754V40.2793L63.2668 39.7961V30.3923L64.8061 29.9316V36.7963C65.5183 35.2097 66.1117 33.5724 66.5812 31.8978L67.9182 32.1337C67.3575 33.8705 66.6973 35.5736 65.9408 37.2345L64.8173 37.0098V39.3467L68.0306 38.3805ZM58.5705 39.358C58.1699 37.9026 57.6707 36.4762 57.0762 35.0886L58.402 34.3471C59.0251 35.6833 59.5654 37.0566 60.0199 38.4592L58.5705 39.358Z" fill="black"/>
<path d="M48.2131 57.2782C48.3423 57.6582 48.532 58.0148 48.7749 58.3343C46.4716 60.9746 46.0559 61.4464 45.8312 61.806C45.6579 61.414 45.4054 61.0621 45.0897 60.7723C45.4609 60.3957 45.6807 59.896 45.7077 59.3679V55.694L44.2246 56.1322V54.6604L47.1458 53.784V58.5028L48.2131 57.2782ZM46.9772 53.0762C46.4065 52.5279 45.7729 52.0489 45.0897 51.6494L46.0335 50.4584C46.7482 50.8081 47.4163 51.2459 48.0221 51.7617L46.9772 53.0762ZM55.134 53.3009C54.7215 54.8603 53.9781 56.3126 52.9544 57.5591C53.9029 57.7634 54.8793 57.8052 55.8418 57.6827C55.4789 58.1782 55.1735 58.7134 54.9318 59.278C53.8433 59.367 52.7484 59.2254 51.7185 58.8623C50.6949 59.7796 49.563 60.5682 48.3479 61.2105C48.1958 60.797 47.9671 60.4158 47.6738 60.087C48.7305 59.5934 49.7198 58.9666 50.6174 58.2219C49.9116 57.728 49.3244 57.0833 48.8985 56.3344L49.4153 56.0086L48.5165 56.2783V54.9413L53.9992 53.3122L54.2464 53.1661L55.134 53.3009ZM50.9882 50.6157C50.9941 51.4225 50.8002 52.2182 50.4238 52.9318C50.0474 53.6453 49.5002 54.2547 48.831 54.7053C48.5578 54.3868 48.226 54.1236 47.8536 53.9301C48.3796 53.637 48.8176 53.2084 49.1219 52.6887C49.4261 52.1691 49.5857 51.5774 49.5838 50.9752V49.6383L54.0779 48.3125V51.0202C54.0779 51.3797 54.0779 51.5258 54.2801 51.4696L54.9318 51.2786C55.1687 51.2025 55.3981 51.1047 55.6171 50.9865C55.6171 51.3572 55.6171 51.8516 55.7182 52.1774C55.4825 52.326 55.2246 52.436 54.9542 52.5032L54.1565 52.7392C52.9207 53.1099 52.6735 52.6605 52.6735 51.4246V50.0764L50.9994 50.5708L50.9882 50.6157ZM50.2804 55.7951C50.6655 56.374 51.2017 56.8363 51.8308 57.1321C52.4225 56.4567 52.9143 55.7 53.2914 54.8851L50.2804 55.7951Z" fill="black"/>
<path d="M61.3115 53.4461C61.412 53.8704 61.5708 54.2788 61.7834 54.6595C60.6269 55.7386 59.5528 56.9029 58.5701 58.1424C58.3911 57.7324 58.1484 57.3532 57.8511 57.0189C58.2355 56.6642 58.4756 56.1802 58.5252 55.6594V51.8732L56.7051 52.4125V50.9407L60.0756 49.952V54.7494L61.3115 53.4461ZM59.6936 49.2666C59.0768 48.7304 58.3978 48.2703 57.6713 47.8959L58.6263 46.705C59.3661 47.0254 60.0672 47.4287 60.716 47.9072L59.6936 49.2666ZM68.2212 49.1318L65.3562 49.9857V56.165L63.7608 56.6481V50.4575L60.8172 51.3451V49.8059L63.7833 48.952V45.0647L65.3787 44.5928V48.4352L68.2436 47.5926L68.2212 49.1318Z" fill="black"/>
<path d="M55.6942 70.1876L50.7845 71.6482V73.6705C50.8242 74.0084 50.7684 74.3507 50.6234 74.6585C50.4785 74.9663 50.2501 75.2274 49.9643 75.412C49.1036 75.9211 48.1722 76.2997 47.2004 76.5355C47.0772 76.0754 46.8716 75.6415 46.5937 75.2547C47.515 75.0187 48.5599 74.7041 48.8408 74.6255C49.1216 74.5469 49.2452 74.412 49.2452 74.1536V72.1088L44.3242 73.5694V72.1313L49.2452 70.6595V69.1764L45.1669 70.3898V68.9967L49.2452 67.7945V66.3339C47.9532 66.8283 46.6387 67.2889 45.4253 67.7046C45.377 67.2922 45.2633 66.8902 45.0882 66.5137C47.9973 65.5683 50.8263 64.3924 53.5483 62.9971L54.6718 63.9184C53.5483 64.5251 52.245 65.1318 50.8856 65.7048V67.3339L55.0651 66.0867V67.5024L50.8856 68.7495V70.2101L55.7954 68.7383L55.6942 70.1876Z" fill="black"/>
<path d="M60.6043 66.9967C60.5808 67.4121 60.5808 67.8284 60.6043 68.2438C59.3528 68.8466 58.1604 69.565 57.0427 70.3897C56.9295 69.9726 56.7791 69.5665 56.5933 69.1763C56.9847 68.8826 57.2973 68.4966 57.5034 68.0528C57.789 67.602 58.0515 67.1371 58.2898 66.6596C57.8234 66.8279 57.3785 67.0503 56.9641 67.3225C56.8395 66.9097 56.6817 66.5077 56.4922 66.1203C56.8019 65.8761 57.0357 65.5488 57.1663 65.1766C57.7177 63.9484 58.1468 62.6689 58.4471 61.3566L59.829 61.5701C59.3966 62.9187 58.8555 64.23 58.2112 65.4912L59.0201 65.1766C59.256 64.6598 59.4807 64.0531 59.683 63.5699L60.9413 63.9407C60.3708 65.2612 59.7179 66.5445 58.9864 67.7831L60.6043 66.9967ZM56.6382 71.7604C57.6157 71.1874 59.11 70.1987 60.5481 69.2437L60.8065 70.3672L56.9978 73.0974L56.6382 71.7604ZM62.2558 65.1092C61.9637 65.4575 61.6716 65.772 61.357 66.0866C61.1892 65.6264 60.9586 65.1916 60.6717 64.7946C62.1672 63.3903 63.3501 61.6868 64.1434 59.7949L65.4579 59.8623C65.3792 60.0533 65.3118 60.2556 65.2107 60.4578C66.0686 61.3265 67.1031 62.0008 68.2442 62.4352C67.9578 62.9545 67.7316 63.5049 67.5701 64.0755C67.278 63.9407 66.9971 63.7722 66.6937 63.6149V64.4575L62.1997 65.7833L62.2558 65.1092ZM66.3679 67.1764C67.057 67.9588 67.6354 68.8321 68.0869 69.7718L66.8173 70.7268C66.7275 70.4796 66.5926 70.1987 66.4466 69.8954C62.3233 71.5582 61.739 71.8166 61.3233 72.1424C61.1868 71.7181 61.0178 71.3049 60.8177 70.9065C61.1466 70.7546 61.4353 70.5275 61.6604 70.2437C61.8738 69.9291 62.5367 68.6145 62.9412 67.7719L61.1323 68.3112V66.9293L67.7499 64.9631V66.3226L64.5029 67.2776C64.1209 68.0416 63.649 69.0527 63.2221 69.8729L65.7837 68.8954C65.5702 68.5808 65.3455 68.2663 65.1321 67.9966L66.3679 67.1764ZM66.2331 63.2666C65.6223 62.8426 65.0474 62.3691 64.5141 61.851C64.0449 62.681 63.5232 63.4803 62.9524 64.2441L66.2331 63.2666Z" fill="black"/>
<path d="M30.0225 102.713C30.1093 104.045 30.7163 105.29 31.7125 106.179C32.7087 107.068 34.0143 107.53 35.348 107.466C36.4667 107.447 37.5749 107.246 38.6286 106.87L90.5577 91.4217V17.4267L89.996 17.6514C89.996 17.6514 86.3445 19.1232 84.2098 17.6514C83.6452 17.2568 83.1881 16.7274 82.8801 16.1113C82.572 15.4952 82.4228 14.8119 82.4459 14.1235V14.0112C82.4459 13.8876 82.4459 13.7752 82.4459 13.6966V13L30 28.5832V101.96C30 101.96 30 102.14 30 102.331V102.612L30.0225 102.713ZM82.4459 86.849C82.4459 86.7254 82.4459 86.613 82.4459 86.5344V17.0671L82.7268 17.4154C83.0178 17.784 83.3669 18.1028 83.7604 18.3592C85.5918 19.5951 88.1758 19.0782 89.5465 18.6625H89.7488V90.6015H89.6364C88.6701 90.9327 87.658 91.1108 86.6366 91.1296C85.7857 91.1701 84.9416 90.9591 84.2098 90.5229C83.6452 90.1283 83.1881 89.5989 82.8801 88.9828C82.572 88.3667 82.4228 87.6834 82.4459 86.995V86.849ZM30.764 29.1899H30.8763L81.637 14.1235V86.3321H81.5246L30.8089 101.443L30.764 29.1899ZM30.8763 102.219L81.637 87.1523V87.3545C81.6628 88.1158 81.8675 88.8603 82.2344 89.5279C82.6014 90.1954 83.1203 90.7672 83.7492 91.197C84.2234 91.5049 84.7544 91.7149 85.3109 91.8149L85.9176 91.9497L38.55 106.05L38.2129 106.162C37.285 106.473 36.315 106.639 35.3367 106.657C34.4353 106.687 33.5448 106.453 32.7751 105.982C32.1889 105.584 31.7051 105.053 31.3634 104.432C31.0217 103.811 30.8317 103.118 30.8089 102.41V102.286L30.8763 102.219Z" fill="black"/>
<mask id="mask0_2498_5757" style="mask-type:alpha" maskUnits="userSpaceOnUse" x="0" y="0" width="120" height="120">
<rect width="120" height="120" fill="#C4C4C4"/>
</mask>
<g mask="url(#mask0_2498_5757)">
</g>
</svg>
