<svg width="120" height="120" viewBox="0 0 120 120" fill="none" xmlns="http://www.w3.org/2000/svg">
<path d="M67.063 43.7406C67.3317 44.5742 67.7761 45.3404 68.3663 45.9876C67.8035 46.0135 67.2456 46.1039 66.7035 46.2573C66.2709 45.6835 65.9368 45.0418 65.7148 44.3585L65.1081 44.9989L63.0183 43.7855L62.4903 44.3473L66.2765 46.5157L65.4676 47.3695L56.6367 42.28L57.4457 41.4374L61.0859 43.5046L61.6139 42.9429L59.5691 41.7519L60.0972 41.2576C59.1983 41.2892 58.2986 41.229 57.412 41.0778C57.4402 40.6389 57.3946 40.1984 57.2771 39.7746C58.3808 40.0326 59.5176 40.1198 60.6477 40.033L58.4006 38.7521L59.1983 37.9095L61.4454 39.1903L63.8947 36.6062L62.2431 35.64L63.0295 34.8086L64.6362 35.7299L65.2429 35.0895L66.6248 35.8759L66.0181 36.5276L69.6471 38.6173L70.265 37.9657L71.6694 38.7859L71.0627 39.4375L72.6469 40.3475L71.8604 41.179L70.2762 40.2689L67.827 42.8418L69.9729 44.0776L69.1864 44.9203L67.063 43.7406ZM65.6473 44.0327C65.5525 43.6425 65.4998 43.2432 65.4901 42.8418L62.2206 40.9542C61.7243 41.0676 61.2215 41.1501 60.7151 41.2014L62.3442 42.1564L62.8498 41.6171L64.2542 42.4373L63.7486 42.9653L65.6473 44.0327ZM62.7824 39.9768L66.4113 42.0778L66.7821 41.6845L63.1531 39.5948L62.7824 39.9768ZM63.8385 38.8533L67.4675 40.943L67.827 40.561L64.198 38.4713L63.8385 38.8533ZM65.2316 37.3815L64.8609 37.7634L68.5011 39.8532L68.8606 39.4712L65.2316 37.3815Z" fill="white"/>
<path d="M74.4123 40.9766L78.5131 43.3472L77.6368 44.2797L76.0414 43.3697C75.3232 43.8787 74.5726 44.3403 73.7943 44.7516L75.783 45.8751L72.0192 49.8411L69.9744 48.7176L69.3677 49.358L68.2441 48.7064L70.7945 46.0212L69.862 46.2234C70.1546 45.7518 70.3885 45.2462 70.5586 44.7179C72.0952 44.308 73.5402 43.6103 74.8167 42.6618L73.5809 41.9091L74.4123 40.9766ZM73.7494 46.1335L72.8506 45.6167L70.7945 47.7851L71.6933 48.3131L73.7494 46.1335ZM81.1309 50.8298L77.5356 54.6273L76.1874 53.8521L76.6144 53.4027L71.8843 50.6725L75.0639 47.302L76.4458 48.0997L74.1988 50.4591L75.1763 51.0208L77.7941 48.2682L75.6818 47.0436L78.5131 44.055L79.7602 44.7741L77.7716 46.875L78.6479 47.3806L81.4455 44.4707L82.8162 45.2572L80.0636 48.1671L80.85 48.6165L82.8274 46.5267L84.1307 47.2683L81.2433 50.2456L79.1985 49.1221L76.5469 51.8185L77.5581 52.4028L79.8052 50.0546L81.1309 50.8298Z" fill="white"/>
<path d="M51.9195 51.6716C51.7672 52.029 51.6724 52.4082 51.6386 52.7952C50.1374 52.7801 48.6367 52.8551 47.1445 53.0199C47.2749 52.6101 47.317 52.1774 47.2681 51.7503C47.7822 51.7669 48.2824 51.5813 48.6613 51.2335L51.1106 48.6718L49.7399 47.8741L50.6724 46.8854L53.3801 48.4584L50.3241 51.7278L51.9195 51.6716ZM59.6268 54.0535C58.296 54.8431 56.7998 55.3124 55.2563 55.4242C55.8093 56.2774 56.496 57.0361 57.2899 57.6712C56.7122 57.747 56.1461 57.8942 55.6046 58.1094C54.7368 57.3634 54.0232 56.4551 53.5037 55.4354C52.1229 55.3008 50.7643 54.9951 49.459 54.5254C49.596 54.1237 49.6681 53.7027 49.6725 53.2783C50.7549 53.7148 51.8869 54.0167 53.043 54.1771C52.863 53.3213 52.863 52.4375 53.043 51.5817L53.6385 51.739L52.8071 51.2559L53.7171 50.2897L58.8179 53.2333L59.0875 53.3232L59.6268 54.0535ZM53.7733 47.8404C53.7222 47.0189 53.5828 46.2053 53.3576 45.4136L54.8294 45.29C55.1239 46.0584 55.3312 46.8573 55.4473 47.6719L53.7733 47.8404ZM58.346 49.1212C57.8086 49.6883 57.1296 50.1017 56.3792 50.319C55.6287 50.5362 54.8339 50.5494 54.0766 50.3571C54.0743 49.9362 54.0021 49.5186 53.8632 49.1212C55.7619 49.492 56.5259 48.9752 57.0989 48.3797L57.9753 47.4472L62.1323 49.8403L60.3459 51.7166C60.1099 51.975 60.0313 52.0873 60.1998 52.1772L60.7953 52.5255C61.0163 52.6535 61.2497 52.7589 61.4919 52.8401C61.2422 53.1296 61.0096 53.4335 60.7953 53.7501C60.5196 53.6674 60.2554 53.5504 60.0088 53.4019L59.2673 52.9749C58.1438 52.312 58.2337 51.8514 59.0426 50.9526L59.9189 50.0313L58.3685 49.1212H58.346ZM54.4137 52.1884C54.3211 52.8865 54.4022 53.5965 54.6496 54.2557C55.5153 54.2304 56.3718 54.0712 57.1888 53.7838L54.4137 52.1884Z" fill="white"/>
<path d="M64.0534 58.7841C63.8398 59.1551 63.6844 59.5568 63.5928 59.975C62.0598 59.8497 60.5192 59.8497 58.9863 59.975C59.1362 59.541 59.2159 59.0859 59.2223 58.6268C59.4726 58.6472 59.7246 58.618 59.9636 58.5409C60.2027 58.4637 60.4242 58.3402 60.6154 58.1774L63.0759 55.5821L61.3794 54.6046L62.3457 53.6159L65.4466 55.4023L62.2895 58.7729L64.0534 58.7841ZM72.0192 60.8963L69.3452 59.3571L65.278 63.6602L63.795 62.8063L67.8621 58.5032L65.0758 56.9078L66.0982 55.7843L68.8845 57.3909L71.4125 54.7394L72.8955 55.5933L70.3676 58.2673L73.0303 59.8065L72.0192 60.8963ZM65.7162 54.6608C65.6097 53.821 65.4099 52.9958 65.1207 52.2003L66.615 52.043C66.9437 52.8131 67.1922 53.615 67.3566 54.4361L65.7162 54.6608Z" fill="white"/>
<path d="M108.69 52.6941C106.657 51.5706 105.769 49.9303 106.072 47.9641C106.422 46.7518 107.054 45.6393 107.915 44.7172L108.376 44.088L59.5474 16L10.8316 67.3673L10.7755 67.4909C9.9586 68.4323 9.37371 69.5521 9.06771 70.7603C8.8875 71.8809 9.06921 73.0297 9.58644 74.0399C10.1037 75.0501 10.9295 75.8691 11.9439 76.3779L12.2136 76.5352L60.4575 104.309L109.14 52.9526L108.69 52.6941ZM59.6935 16.9775L107.084 44.279L59.5474 94.4441L12.1574 67.0977L59.6935 16.9775ZM57.3004 101.567L12.4832 75.7263C11.5736 75.3149 10.8246 74.6157 10.3515 73.7366C9.87848 72.8575 9.70767 71.8472 9.86541 70.8615C10.1683 69.7339 10.7343 68.6943 11.517 67.828L11.5956 67.7268L11.7192 67.7943L58.9744 95.0508L58.8621 95.1969C58.0417 96.1359 57.4564 97.2566 57.1543 98.4663C56.9957 99.4461 57.1164 100.451 57.5026 101.365L57.6936 101.803L57.3004 101.567ZM107.724 53.2559L60.3339 103.286L60.2216 103.208C59.4202 102.76 58.7752 102.077 58.3735 101.251C57.9718 100.426 57.8325 99.497 57.9745 98.5899C58.3463 97.3283 59.0125 96.1731 59.9182 95.2194L105.398 47.2338L105.297 47.7507C105.297 47.7507 105.297 47.7507 105.297 47.8181C105.126 48.8278 105.265 49.8658 105.696 50.7947C106.127 51.7236 106.831 52.4996 107.713 53.02L107.87 53.1323L107.724 53.2559Z" fill="#E7EC98"/>
<mask id="mask0_2498_5773" style="mask-type:alpha" maskUnits="userSpaceOnUse" x="0" y="0" width="120" height="120">
<rect width="120" height="120" fill="#C4C4C4"/>
</mask>
<g mask="url(#mask0_2498_5773)">
</g>
</svg>
