<svg width="101" height="89" viewBox="0 0 101 89" fill="none" xmlns="http://www.w3.org/2000/svg">
<path d="M58.063 27.7406C58.3317 28.5742 58.7761 29.3404 59.3663 29.9876C58.8035 30.0135 58.2456 30.1039 57.7035 30.2573C57.2709 29.6835 56.9368 29.0418 56.7148 28.3585L56.1081 28.9989L54.0183 27.7855L53.4903 28.3473L57.2765 30.5157L56.4676 31.3695L47.6367 26.28L48.4457 25.4374L52.0859 27.5046L52.6139 26.9429L50.5691 25.7519L51.0972 25.2576C50.1983 25.2892 49.2986 25.229 48.412 25.0778C48.4402 24.6389 48.3946 24.1984 48.2771 23.7746C49.3808 24.0326 50.5176 24.1198 51.6477 24.033L49.4006 22.7521L50.1983 21.9095L52.4454 23.1903L54.8947 20.6062L53.2431 19.64L54.0295 18.8086L55.6362 19.7299L56.2429 19.0895L57.6248 19.8759L57.0181 20.5276L60.6471 22.6173L61.265 21.9657L62.6694 22.7859L62.0627 23.4375L63.6469 24.3475L62.8604 25.179L61.2762 24.2689L58.827 26.8418L60.9729 28.0776L60.1864 28.9203L58.063 27.7406ZM56.6473 28.0327C56.5525 27.6425 56.4998 27.2432 56.4901 26.8418L53.2206 24.9542C52.7243 25.0676 52.2215 25.1501 51.7151 25.2014L53.3442 26.1564L53.8498 25.6171L55.2542 26.4373L54.7486 26.9653L56.6473 28.0327ZM53.7824 23.9768L57.4113 26.0778L57.7821 25.6845L54.1531 23.5948L53.7824 23.9768ZM54.8385 22.8533L58.4675 24.943L58.827 24.561L55.198 22.4713L54.8385 22.8533ZM56.2316 21.3815L55.8609 21.7634L59.5011 23.8532L59.8606 23.4712L56.2316 21.3815Z" fill="white"/>
<path d="M65.4123 24.9766L69.5131 27.3472L68.6368 28.2797L67.0414 27.3697C66.3232 27.8787 65.5726 28.3403 64.7943 28.7516L66.783 29.8751L63.0192 33.8411L60.9744 32.7176L60.3677 33.358L59.2441 32.7064L61.7945 30.0212L60.862 30.2234C61.1546 29.7518 61.3885 29.2462 61.5586 28.7179C63.0952 28.308 64.5402 27.6103 65.8167 26.6618L64.5809 25.9091L65.4123 24.9766ZM64.7494 30.1335L63.8506 29.6167L61.7945 31.7851L62.6933 32.3131L64.7494 30.1335ZM72.1309 34.8298L68.5356 38.6273L67.1874 37.8521L67.6144 37.4027L62.8843 34.6725L66.0639 31.302L67.4458 32.0997L65.1988 34.4591L66.1763 35.0208L68.7941 32.2682L66.6818 31.0436L69.5131 28.055L70.7602 28.7741L68.7716 30.875L69.6479 31.3806L72.4455 28.4707L73.8162 29.2572L71.0636 32.1671L71.85 32.6165L73.8274 30.5267L75.1307 31.2683L72.2433 34.2456L70.1985 33.1221L67.5469 35.8185L68.5581 36.4028L70.8052 34.0546L72.1309 34.8298Z" fill="white"/>
<path d="M42.9195 35.6716C42.7672 36.029 42.6724 36.4082 42.6386 36.7952C41.1374 36.7801 39.6367 36.8551 38.1445 37.0199C38.2749 36.6101 38.317 36.1774 38.2681 35.7503C38.7822 35.7669 39.2824 35.5813 39.6613 35.2335L42.1106 32.6718L40.7399 31.8741L41.6724 30.8854L44.3801 32.4584L41.3241 35.7278L42.9195 35.6716ZM50.6268 38.0535C49.296 38.8431 47.7998 39.3124 46.2563 39.4242C46.8093 40.2774 47.496 41.0361 48.2899 41.6712C47.7122 41.747 47.1461 41.8942 46.6046 42.1094C45.7368 41.3634 45.0232 40.4551 44.5037 39.4354C43.1229 39.3008 41.7643 38.9951 40.459 38.5254C40.596 38.1237 40.6681 37.7027 40.6725 37.2783C41.7549 37.7148 42.8869 38.0167 44.043 38.1771C43.863 37.3213 43.863 36.4375 44.043 35.5817L44.6385 35.739L43.8071 35.2559L44.7171 34.2897L49.8179 37.2333L50.0875 37.3232L50.6268 38.0535ZM44.7733 31.8404C44.7222 31.0189 44.5828 30.2053 44.3576 29.4136L45.8294 29.29C46.1239 30.0584 46.3312 30.8573 46.4473 31.6719L44.7733 31.8404ZM49.346 33.1212C48.8086 33.6883 48.1296 34.1017 47.3792 34.319C46.6287 34.5362 45.8339 34.5494 45.0766 34.3571C45.0743 33.9362 45.0021 33.5186 44.8632 33.1212C46.7619 33.492 47.5259 32.9752 48.0989 32.3797L48.9753 31.4472L53.1323 33.8403L51.3459 35.7166C51.1099 35.975 51.0313 36.0873 51.1998 36.1772L51.7953 36.5255C52.0163 36.6535 52.2497 36.7589 52.4919 36.8401C52.2422 37.1296 52.0096 37.4335 51.7953 37.7501C51.5196 37.6674 51.2554 37.5504 51.0088 37.4019L50.2673 36.9749C49.1438 36.312 49.2337 35.8514 50.0426 34.9526L50.9189 34.0313L49.3685 33.1212H49.346ZM45.4137 36.1884C45.3211 36.8865 45.4022 37.5965 45.6496 38.2557C46.5153 38.2304 47.3718 38.0712 48.1888 37.7838L45.4137 36.1884Z" fill="white"/>
<path d="M55.0534 42.7841C54.8398 43.1551 54.6844 43.5568 54.5928 43.975C53.0598 43.8497 51.5192 43.8497 49.9863 43.975C50.1362 43.541 50.2159 43.0859 50.2223 42.6268C50.4726 42.6472 50.7246 42.618 50.9636 42.5409C51.2027 42.4637 51.4242 42.3402 51.6154 42.1774L54.0759 39.5821L52.3794 38.6046L53.3457 37.6159L56.4466 39.4023L53.2895 42.7729L55.0534 42.7841ZM63.0192 44.8963L60.3452 43.3571L56.278 47.6602L54.795 46.8063L58.8621 42.5032L56.0758 40.9078L57.0982 39.7843L59.8845 41.3909L62.4125 38.7394L63.8955 39.5933L61.3676 42.2673L64.0303 43.8065L63.0192 44.8963ZM56.7162 38.6608C56.6097 37.821 56.4099 36.9958 56.1207 36.2003L57.615 36.043C57.9437 36.8131 58.1922 37.615 58.3566 38.4361L56.7162 38.6608Z" fill="white"/>
<path d="M99.6902 36.6941C97.6566 35.5706 96.769 33.9303 97.0724 31.9641C97.4223 30.7518 98.0536 29.6393 98.915 28.7172L99.3756 28.088L50.5474 0L1.83163 51.3673L1.77546 51.4909C0.9586 52.4323 0.373714 53.5521 0.067709 54.7603C-0.112495 55.8809 0.0692115 57.0297 0.586437 58.0399C1.10366 59.0501 1.92947 59.8691 2.94392 60.3779L3.21356 60.5352L51.4575 88.3086L100.14 36.9526L99.6902 36.6941ZM50.6935 0.977462L98.0835 28.279L50.5474 78.4441L3.15739 51.0977L50.6935 0.977462ZM48.3004 85.5673L3.48321 59.7263C2.57363 59.3149 1.82459 58.6157 1.35154 57.7366C0.878483 56.8575 0.707665 55.8472 0.865408 54.8615C1.16828 53.7339 1.7343 52.6943 2.51698 51.828L2.59563 51.7268L2.71921 51.7943L49.9744 79.0508L49.8621 79.1969C49.0417 80.1359 48.4564 81.2566 48.1543 82.4663C47.9957 83.4461 48.1164 84.4507 48.5026 85.365L48.6936 85.8032L48.3004 85.5673ZM98.724 37.2559L51.3339 87.2862L51.2216 87.2076C50.4202 86.7596 49.7752 86.0769 49.3735 85.2513C48.9718 84.4258 48.8325 83.497 48.9745 82.5899C49.3463 81.3283 50.0125 80.1731 50.9182 79.2194L96.3983 31.2338L96.2972 31.7507C96.2972 31.7507 96.2972 31.7507 96.2972 31.8181C96.1255 32.8278 96.2646 33.8658 96.6959 34.7947C97.1273 35.7236 97.8306 36.4996 98.7127 37.02L98.87 37.1323L98.724 37.2559Z" fill="#E7EC98"/>
</svg>
