<svg width="91" height="87" viewBox="0 0 91 87" fill="none" xmlns="http://www.w3.org/2000/svg">
<path d="M32.6678 22.8184C32.8588 23.2453 33.0947 23.7958 33.3306 24.4025C34.2951 25.9033 35.6271 27.1328 37.2001 27.9744C38.7731 28.816 40.5351 29.2417 42.3188 29.2112C41.9852 29.6173 41.7574 30.0999 41.6559 30.6156C38.8511 30.5647 36.1618 29.4897 34.0946 27.5933C34.1684 28.7823 33.9711 29.9726 33.5176 31.0742C33.0641 32.1758 32.3663 33.16 31.4768 33.9524C30.9039 33.6842 30.2943 33.5024 29.668 33.4131C34.0722 29.4921 31.6454 25.1103 30.8701 23.4138L32.6678 22.8184Z" fill="white"/>
<path d="M46.8021 25.1779C46.3976 24.9195 45.7348 24.5487 45.1056 24.2341L47.3526 28.8293L45.7797 29.3349L43.9259 25.5149C43.9192 26.3722 43.7711 27.2225 43.4877 28.0316C43.0697 27.7091 42.622 27.427 42.1507 27.189C42.5852 25.8605 42.7195 24.4523 42.544 23.0657L40.7126 23.6499L40.1621 22.5264L42.1507 21.886L41.2407 20.0322L42.8361 19.5266L43.7349 21.3804L45.2854 20.886L45.8359 22.0096L44.2854 22.5039L44.409 22.7398C45.0382 22.9533 46.7122 23.6162 47.0942 23.7847L46.8021 25.1779ZM54.2061 25.1779C54.2735 25.1779 54.3297 25.1105 54.3297 25.0655C54.3297 25.0206 54.3297 24.8858 54.251 24.6611C54.1724 24.4364 53.9589 23.9645 53.6668 23.369C54.1199 23.4712 54.5856 23.5053 55.0487 23.4701C55.3017 23.98 55.5012 24.5146 55.6442 25.0655C55.6842 25.19 55.6939 25.3223 55.6724 25.4513C55.6509 25.5803 55.5988 25.7023 55.5206 25.8071C55.3204 26.0234 55.0635 26.1791 54.7791 26.2565L54.0488 26.4924C53.6828 26.605 53.2913 26.605 52.9253 26.4924C52.5882 26.3688 52.3748 26.1666 51.9591 25.3689L49.1503 19.4479L47.42 20.0097L48.4424 22.0994C49.2626 23.7847 50.1277 26.2902 48.8694 28.3687C48.3314 28.1786 47.7736 28.0504 47.2066 27.9867C48.3301 26.1104 47.5436 24.1105 46.8133 22.605L45.2067 19.4479L50.1727 17.8525L53.6443 24.8296C53.7056 24.9831 53.7889 25.1269 53.8915 25.2565C53.9456 25.2784 54.006 25.2784 54.06 25.2565L54.2061 25.1779Z" fill="white"/>
<path d="M47.4861 40.4464L48.0254 41.6374L35.8353 45.5584L35.251 44.3675L40.3855 42.7159L37.9138 37.5702L33.4197 38.9746L32.8242 37.7387L43.5651 34.3008L44.1718 35.5254L39.6777 36.9748L42.1831 42.1317L47.4861 40.4464Z" fill="white"/>
<path d="M52.3427 37.9969C52.0169 37.7497 51.5001 37.4014 50.9832 37.0756L52.8595 40.9068L51.3989 41.3899L49.7137 37.9407C49.7044 38.7033 49.5832 39.4603 49.3541 40.1877C48.934 39.8639 48.4909 39.571 48.0284 39.3114C48.4009 38.271 48.5688 37.1685 48.5227 36.0644L47.0734 36.5251L46.5341 35.4015L48.2306 34.851L47.6464 33.6376L46.4442 34.2106C46.1826 33.9154 45.8843 33.6549 45.5566 33.4354C46.7124 32.8876 47.8081 32.2211 48.8261 31.4468L50.2305 32.1096C49.8337 32.3984 49.4211 32.6647 48.9946 32.9073L49.7137 34.3791L51.1181 33.9297L51.6574 35.0533L50.253 35.5027L50.3428 35.6712C50.9271 35.8847 52.4551 36.5475 52.8258 36.7161L52.3427 37.9969ZM58.3985 32.3793L51.9832 34.4353L50.4215 31.2445L56.8368 29.1885L58.3985 32.3793ZM61.2972 36.6599L61.8252 37.7834L54.0505 40.2776L53.5224 39.1541L56.7132 38.1317L56.2638 37.2216L53.9269 37.9744L53.41 36.9295L55.7582 36.1768L55.32 35.2892L52.6573 36.1431L52.1405 35.087L59.1063 32.8399L59.6231 33.896L56.9267 34.7611L57.3536 35.6487L59.7242 34.896L60.2298 35.9408L57.8704 36.6936L58.3086 37.6036L61.2972 36.6599ZM55.7694 30.6828L52.3989 31.8063L52.9831 32.9298L56.3537 31.8063L55.7694 30.6828Z" fill="white"/>
<path d="M41.0939 52.0861L39.5884 52.5692L38.4648 50.3896L40.5771 49.7829C40.114 49.5016 39.6293 49.2574 39.1277 49.0526L40.2512 48.165C40.9113 48.3911 41.5413 48.6967 42.1275 49.0751L41.7006 49.4234L43.9476 48.6931C43.4866 48.3075 42.9856 47.9723 42.4533 47.6932L43.678 46.8505C44.3166 47.1389 44.9106 47.5172 45.4419 47.974L44.7566 48.4572L46.5092 47.8954C46.7154 47.2869 46.8548 46.6578 46.9249 46.0191L48.7788 45.8506C48.599 46.3562 48.3855 46.873 48.1833 47.3561L50.1494 46.7269L51.2168 48.9066L49.6439 49.4121L49.0933 48.2886L40.5434 50.9064L41.0939 52.0861ZM52.8347 51.7378L47.6215 53.4119L48.2395 54.6815C48.5428 55.2994 48.4866 55.6701 47.9361 56.0409C47.1441 56.4982 46.2937 56.8459 45.4082 57.0745C45.0409 56.7101 44.6295 56.3931 44.1836 56.1308C45.0599 55.8836 46.0598 55.569 46.3182 55.4679C46.5767 55.3668 46.6441 55.3106 46.5879 55.1758L45.9812 53.9399L40.8579 55.5803L40.3186 54.4567L45.4419 52.8164L45.1385 52.1985C45.5803 51.8581 45.9936 51.4824 46.3744 51.075L42.1387 52.4344L41.6444 51.412L47.7114 49.4683L48.0035 49.2998L49.3068 49.5582C48.6559 50.4906 47.8768 51.3265 46.9924 52.0412L47.0822 52.2322L52.3066 50.5581L52.8347 51.7378Z" fill="white"/>
<path d="M61.1039 0L5.02905 17.9763L4.61334 18.1111H4.48976H4.41111C3.28759 18.5268 0.782143 19.7515 0.220384 22.3243C-0.239023 24.224 0.0253235 26.2266 0.961906 27.9419L29.6678 86.8593L86.282 68.6583L85.9674 68.2089C85.0843 66.7215 84.8068 64.9516 85.1922 63.2654C85.6865 61.0183 88.0347 59.8948 89.0234 59.5802L90.0233 59.2657L61.1039 0ZM28.7578 82.4326V83.0618L28.4769 82.4888L1.74837 27.7622L1.57984 27.4363C0.839744 25.9315 0.637518 24.2186 1.00685 22.5827C1.48996 20.3357 3.81565 19.2796 4.79311 18.9088H4.92793V19.0324L33.1507 76.7476L32.9934 76.815C31.7126 77.3318 29.4656 78.5565 28.9375 80.9721C28.8342 81.4526 28.7741 81.9414 28.7578 82.4326ZM85.4169 61.0183C84.9203 61.6087 84.5734 62.3102 84.4057 63.0632C84.0318 64.7299 84.2256 66.4738 84.9562 68.0179L85.0349 68.1752H84.8663L30.2071 85.8032V85.6684C29.5953 84.2526 29.4459 82.6799 29.7802 81.1743C30.3307 78.6688 33.1507 77.624 33.8586 77.3993L85.7539 60.6251L85.4169 61.0183ZM88.6863 58.7713L33.9035 76.4218V76.287L5.70316 18.6167L5.87169 18.5605L60.6882 0.977463V1.10105L88.8773 58.7713H88.6863Z" fill="#E7EC98"/>
</svg>
