<svg width="120" height="120" viewBox="0 0 120 120" fill="none" xmlns="http://www.w3.org/2000/svg">
<path d="M47.6678 39.8184C47.8588 40.2453 48.0947 40.7958 48.3306 41.4025C49.2951 42.9033 50.6271 44.1328 52.2001 44.9744C53.7731 45.816 55.5351 46.2417 57.3188 46.2112C56.9852 46.6173 56.7574 47.0999 56.6559 47.6156C53.8511 47.5647 51.1618 46.4897 49.0946 44.5933C49.1684 45.7823 48.9711 46.9726 48.5176 48.0742C48.0641 49.1758 47.3663 50.16 46.4768 50.9524C45.9039 50.6842 45.2943 50.5024 44.668 50.4131C49.0722 46.4921 46.6454 42.1103 45.8701 40.4138L47.6678 39.8184Z" fill="white"/>
<path d="M61.8021 42.1779C61.3976 41.9195 60.7348 41.5487 60.1056 41.2341L62.3526 45.8293L60.7797 46.3349L58.9259 42.5149C58.9192 43.3722 58.7711 44.2225 58.4877 45.0316C58.0697 44.7091 57.622 44.427 57.1507 44.189C57.5852 42.8605 57.7195 41.4523 57.544 40.0657L55.7126 40.6499L55.1621 39.5264L57.1507 38.886L56.2407 37.0322L57.8361 36.5266L58.7349 38.3804L60.2854 37.886L60.8359 39.0096L59.2854 39.5039L59.409 39.7398C60.0382 39.9533 61.7122 40.6162 62.0942 40.7847L61.8021 42.1779ZM69.2061 42.1779C69.2735 42.1779 69.3297 42.1105 69.3297 42.0655C69.3297 42.0206 69.3297 41.8858 69.251 41.6611C69.1724 41.4364 68.9589 40.9645 68.6668 40.369C69.1199 40.4712 69.5856 40.5053 70.0487 40.4701C70.3017 40.98 70.5012 41.5146 70.6442 42.0655C70.6842 42.19 70.6939 42.3223 70.6724 42.4513C70.6509 42.5803 70.5988 42.7023 70.5206 42.8071C70.3204 43.0234 70.0635 43.1791 69.7791 43.2565L69.0488 43.4924C68.6828 43.605 68.2913 43.605 67.9253 43.4924C67.5882 43.3688 67.3748 43.1666 66.9591 42.3689L64.1503 36.4479L62.42 37.0097L63.4424 39.0994C64.2626 40.7847 65.1277 43.2902 63.8694 45.3687C63.3314 45.1786 62.7736 45.0504 62.2066 44.9867C63.3301 43.1104 62.5436 41.1105 61.8133 39.605L60.2067 36.4479L65.1727 34.8525L68.6443 41.8296C68.7056 41.9831 68.7889 42.1269 68.8915 42.2565C68.9456 42.2784 69.006 42.2784 69.06 42.2565L69.2061 42.1779Z" fill="white"/>
<path d="M62.4861 57.4464L63.0254 58.6374L50.8353 62.5584L50.251 61.3675L55.3855 59.7159L52.9138 54.5702L48.4197 55.9746L47.8242 54.7387L58.5651 51.3008L59.1718 52.5254L54.6777 53.9748L57.1831 59.1317L62.4861 57.4464Z" fill="white"/>
<path d="M67.3427 54.9969C67.0169 54.7497 66.5001 54.4014 65.9832 54.0756L67.8595 57.9068L66.3989 58.3899L64.7137 54.9407C64.7044 55.7033 64.5832 56.4603 64.3541 57.1877C63.934 56.8639 63.4909 56.571 63.0284 56.3114C63.4009 55.271 63.5688 54.1685 63.5227 53.0644L62.0734 53.5251L61.5341 52.4015L63.2306 51.851L62.6464 50.6376L61.4442 51.2106C61.1826 50.9154 60.8843 50.6549 60.5566 50.4354C61.7124 49.8876 62.8081 49.2211 63.8261 48.4468L65.2305 49.1096C64.8337 49.3984 64.4211 49.6647 63.9946 49.9073L64.7137 51.3791L66.1181 50.9297L66.6574 52.0533L65.253 52.5027L65.3428 52.6712C65.9271 52.8847 67.4551 53.5475 67.8258 53.7161L67.3427 54.9969ZM73.3985 49.3793L66.9832 51.4353L65.4215 48.2445L71.8368 46.1885L73.3985 49.3793ZM76.2972 53.6599L76.8252 54.7834L69.0505 57.2776L68.5224 56.1541L71.7132 55.1317L71.2638 54.2216L68.9269 54.9744L68.41 53.9295L70.7582 53.1768L70.32 52.2892L67.6573 53.1431L67.1405 52.087L74.1063 49.8399L74.6231 50.896L71.9267 51.7611L72.3536 52.6487L74.7242 51.896L75.2298 52.9408L72.8704 53.6936L73.3086 54.6036L76.2972 53.6599ZM70.7694 47.6828L67.3989 48.8063L67.9831 49.9298L71.3537 48.8063L70.7694 47.6828Z" fill="white"/>
<path d="M56.0939 69.0861L54.5884 69.5692L53.4648 67.3896L55.5771 66.7829C55.114 66.5016 54.6293 66.2574 54.1277 66.0526L55.2512 65.165C55.9113 65.3911 56.5413 65.6967 57.1275 66.0751L56.7006 66.4234L58.9476 65.6931C58.4866 65.3075 57.9856 64.9723 57.4533 64.6932L58.678 63.8505C59.3166 64.1389 59.9106 64.5172 60.4419 64.974L59.7566 65.4572L61.5092 64.8954C61.7154 64.2869 61.8548 63.6578 61.9249 63.0191L63.7788 62.8506C63.599 63.3562 63.3855 63.873 63.1833 64.3561L65.1494 63.7269L66.2168 65.9066L64.6439 66.4121L64.0933 65.2886L55.5434 67.9064L56.0939 69.0861ZM67.8347 68.7378L62.6215 70.4119L63.2395 71.6815C63.5428 72.2994 63.4866 72.6701 62.9361 73.0409C62.1441 73.4982 61.2937 73.8459 60.4082 74.0745C60.0409 73.7101 59.6295 73.3931 59.1836 73.1308C60.0599 72.8836 61.0598 72.569 61.3182 72.4679C61.5767 72.3668 61.6441 72.3106 61.5879 72.1758L60.9812 70.9399L55.8579 72.5803L55.3186 71.4567L60.4419 69.8164L60.1385 69.1985C60.5803 68.8581 60.9936 68.4824 61.3744 68.075L57.1387 69.4344L56.6444 68.412L62.7114 66.4683L63.0035 66.2998L64.3068 66.5582C63.6559 67.4906 62.8768 68.3265 61.9924 69.0412L62.0822 69.2322L67.3066 67.5581L67.8347 68.7378Z" fill="white"/>
<path d="M76.1039 17L20.029 34.9763L19.6133 35.1111H19.4898H19.4111C18.2876 35.5268 15.7821 36.7515 15.2204 39.3243C14.761 41.224 15.0253 43.2266 15.9619 44.9419L44.6678 103.859L101.282 85.6583L100.967 85.2089C100.084 83.7215 99.8068 81.9516 100.192 80.2654C100.687 78.0183 103.035 76.8948 104.023 76.5802L105.023 76.2657L76.1039 17ZM43.7578 99.4326V100.062L43.4769 99.4888L16.7484 44.7622L16.5798 44.4363C15.8397 42.9315 15.6375 41.2186 16.0068 39.5827C16.49 37.3357 18.8156 36.2796 19.7931 35.9088H19.9279V36.0324L48.1507 93.7476L47.9934 93.815C46.7126 94.3318 44.4656 95.5565 43.9375 97.9721C43.8342 98.4526 43.7741 98.9414 43.7578 99.4326ZM100.417 78.0183C99.9203 78.6087 99.5734 79.3102 99.4057 80.0632C99.0318 81.7299 99.2256 83.4738 99.9562 85.0179L100.035 85.1752H99.8663L45.2071 102.803V102.668C44.5953 101.253 44.4459 99.6799 44.7802 98.1743C45.3307 95.6688 48.1507 94.624 48.8586 94.3993L100.754 77.6251L100.417 78.0183ZM103.686 75.7713L48.9035 93.4218V93.287L20.7032 35.6167L20.8717 35.5605L75.6882 17.9775V18.101L103.877 75.7713H103.686Z" fill="#E7EC98"/>
<mask id="mask0_2498_5816" style="mask-type:alpha" maskUnits="userSpaceOnUse" x="0" y="0" width="120" height="120">
<rect width="120" height="120" fill="#C4C4C4"/>
</mask>
<g mask="url(#mask0_2498_5816)">
</g>
</svg>
