<svg width="120" height="120" viewBox="0 0 120 120" fill="none" xmlns="http://www.w3.org/2000/svg">
<path d="M61.0429 37.7413C61.0609 38.2256 61.1248 38.7072 61.2339 39.1794C60.1594 39.5145 59.1177 39.947 58.1217 40.4714C58.0715 39.9384 57.9545 39.4137 57.7734 38.9098C57.9815 38.8426 58.1675 38.7205 58.3119 38.5564C58.4562 38.3922 58.5536 38.1921 58.5936 37.9772L59.4587 34.3033L58.2004 33.6629L58.5262 32.2698L61.0092 33.5281L59.8857 38.1682L61.0429 37.7413ZM61.0429 32.7079C60.7148 31.7493 60.3206 30.8145 59.8632 29.9104L60.8856 29.416C61.3692 30.2951 61.7897 31.2074 62.1439 32.1462L61.0429 32.7079ZM67.3795 38.8423C66.8001 39.9867 65.866 40.9129 64.7168 41.4826C65.3623 42.3285 66.118 43.0842 66.9638 43.7297C66.5343 43.958 66.1529 44.267 65.8403 44.6397C64.9123 43.845 64.116 42.9084 63.4809 41.8646C62.4096 42.0168 61.319 41.9634 60.2677 41.7073C60.2262 41.1824 60.1321 40.663 59.9868 40.1569C60.8737 40.4277 61.8035 40.5306 62.7282 40.4602C62.2904 39.4669 61.9845 38.4207 61.8181 37.3481H62.29L61.526 36.9661L61.8518 35.6066L66.5144 37.9772H66.7504L67.3795 38.8423ZM64.7617 33.2247C64.6964 33.8859 64.3922 34.5005 63.9061 34.9535C63.4201 35.4064 62.7856 35.6666 62.1215 35.6853C61.9847 35.1536 61.7927 34.6377 61.5485 34.146C61.7912 34.1789 62.038 34.1625 62.2742 34.0977C62.5105 34.0329 62.7312 33.9211 62.9231 33.769C63.1151 33.6169 63.2744 33.4276 63.3915 33.2124C63.5086 32.9973 63.581 32.7607 63.6045 32.5169L63.9191 31.1912L67.7166 33.1236L67.0874 35.7864C66.9975 36.1459 66.9863 36.3032 67.0874 36.3706L67.6379 36.6515C67.83 36.7489 68.0339 36.8206 68.2446 36.8649C68.1772 37.2469 68.0873 37.7525 68.0536 38.1121C67.8158 38.0776 67.5869 37.9975 67.3795 37.8761L66.6942 37.5391C65.6493 36.9998 65.5707 36.4155 65.8403 35.1684L66.1549 33.8539L64.728 33.1349L64.7617 33.2247ZM62.9978 37.8087C63.1669 38.6533 63.4623 39.4677 63.8741 40.2243C64.509 39.9857 65.0787 39.6008 65.537 39.1008L62.9978 37.8087Z" fill="white"/>
<path d="M72.1773 43.5051C72.1597 44.0199 72.1898 44.5351 72.2671 45.0443C71.1252 45.2527 70.015 45.6077 68.964 46.1004C68.9223 45.5341 68.8245 44.9734 68.6719 44.4264C68.8772 44.3791 69.0651 44.275 69.2141 44.126C69.3631 43.977 69.4672 43.7891 69.5145 43.5838L70.3796 39.8874L68.8292 39.1121L69.1775 37.6628L72.0087 39.1009L70.8852 43.8085L72.1773 43.5051ZM71.9076 38.1909C71.556 37.2202 71.1316 36.2775 70.638 35.3708L71.6604 34.8428C72.1625 35.7065 72.6127 36.5995 73.0087 37.5168L71.9076 38.1909ZM78.6487 44.2354L76.177 42.9883L74.7164 49.0778L73.357 48.3924L74.7951 42.3029L72.2447 41.0109L72.6042 39.4941L75.1546 40.7862L76.0422 36.9999L77.4016 37.6853L76.514 41.4715L78.9521 42.7074L78.6487 44.2354Z" fill="white"/>
<path d="M65.3013 48.4702L62.7172 59.447L61.4364 58.8627L61.5375 58.4246L54.9649 55.054L54.8638 55.4922L53.6504 54.8742L56.2345 43.8975L65.3013 48.4702ZM61.8408 57.0763L62.7284 53.3575C62.4415 53.5386 62.1775 53.7536 61.942 53.9979C61.0486 53.2935 60.2449 52.4823 59.5489 51.5823C59.2308 51.5993 58.912 51.5993 58.5939 51.5823C59.3973 52.2221 60.1487 52.9246 60.8409 53.6833L60.1106 54.3687C59.3732 53.5264 58.5692 52.7449 57.7063 52.0317L58.2456 51.6048C57.6099 51.5763 56.9781 51.4898 56.3581 51.3464C56.3209 50.9358 56.2456 50.5296 56.1334 50.133L55.2795 53.7507L60.3016 56.3011C59.091 55.1197 57.7748 54.0516 56.3693 53.1103L57.167 52.4587C58.6193 53.4015 59.9808 54.4773 61.2341 55.6719L60.4926 56.3798L61.8408 57.0763ZM57.1445 45.8411L56.1783 49.8746C56.9819 50.0938 57.8069 50.2257 58.6388 50.2678C58.4201 49.9044 58.2213 49.5293 58.0434 49.1443C57.7914 49.2398 57.5321 49.315 57.2681 49.369C57.1333 49.0432 56.8299 48.4028 56.6502 48.0882C57.667 47.9789 58.6326 47.5857 59.4365 46.9534L57.1445 45.8411ZM58.9871 48.987C59.2162 49.4347 59.487 49.8598 59.796 50.2566C60.2173 50.2388 60.6337 50.1593 61.0319 50.0206L58.9871 48.987ZM63.7059 49.1331L59.5826 47.0321L60.3915 47.8635C60.2399 48.0023 60.0784 48.13 59.9084 48.2455L62.2228 49.4252H62.4138L63.0093 50.2791C62.367 50.8371 61.594 51.2236 60.7623 51.4026C61.3755 52.0366 62.0366 52.6225 62.7397 53.1553L63.7059 49.1331Z" fill="white"/>
<path d="M74.2764 61.7169L70.1531 59.6384L69.7824 61.2001C69.6026 61.9641 69.3554 62.245 68.8161 62.2C68.0658 62.0591 67.3466 61.7851 66.6927 61.3911C66.684 60.8282 66.62 60.2674 66.5017 59.717C67.1646 60.099 67.951 60.4923 68.1757 60.5934C68.4004 60.6945 68.4566 60.672 68.5016 60.5035L68.8611 58.9755L64.8164 56.9307L65.131 55.5825L69.1757 57.6273L69.3554 56.8745C69.8144 56.88 70.2729 56.8462 70.7261 56.7734L67.3556 55.0769L67.6589 53.8073L72.4676 56.2341L72.7372 56.2903L73.3776 57.4138C72.4723 57.7946 71.5054 58.0078 70.5239 58.043L70.4677 58.2789L74.591 60.3574L74.2764 61.7169ZM66.996 53.9758L65.8051 53.3691L66.4455 50.6839L68.0634 51.5153C67.9551 50.9592 67.8087 50.4111 67.6252 49.875H68.8274C69.0992 50.5524 69.2988 51.2567 69.4228 51.976H68.9622L70.7486 52.886C70.6924 52.2497 70.5873 51.6187 70.434 50.9985L71.6586 51.0884C71.8831 51.8194 72.0263 52.573 72.0856 53.3354L71.3441 53.2456L72.726 53.9421C73.2146 53.5215 73.6657 53.0591 74.0742 52.5602L75.2764 53.6837C74.8831 54.0208 74.445 54.3354 74.0517 54.6275L75.6022 55.414L74.9618 58.0879L73.7259 57.4588L74.0517 56.0656L67.3106 52.6389L66.996 53.9758Z" fill="white"/>
<path d="M61.0429 37.7413C61.0609 38.2256 61.1248 38.7072 61.2339 39.1794C60.1594 39.5145 59.1177 39.947 58.1217 40.4714C58.0715 39.9384 57.9545 39.4137 57.7734 38.9098C57.9815 38.8426 58.1675 38.7205 58.3119 38.5564C58.4562 38.3922 58.5536 38.1921 58.5936 37.9772L59.4587 34.3033L58.2004 33.6629L58.5262 32.2698L61.0092 33.5281L59.8857 38.1682L61.0429 37.7413ZM61.0429 32.7079C60.7148 31.7493 60.3206 30.8145 59.8632 29.9104L60.8856 29.416C61.3692 30.2951 61.7897 31.2074 62.1439 32.1462L61.0429 32.7079ZM67.3795 38.8423C66.8001 39.9867 65.866 40.9129 64.7168 41.4826C65.3623 42.3285 66.118 43.0842 66.9638 43.7297C66.5343 43.958 66.1529 44.267 65.8403 44.6397C64.9123 43.845 64.116 42.9084 63.4809 41.8646C62.4096 42.0168 61.319 41.9634 60.2677 41.7073C60.2262 41.1824 60.1321 40.663 59.9868 40.1569C60.8737 40.4277 61.8035 40.5306 62.7282 40.4602C62.2904 39.4669 61.9845 38.4207 61.8181 37.3481H62.29L61.526 36.9661L61.8518 35.6066L66.5144 37.9772H66.7504L67.3795 38.8423ZM64.7617 33.2247C64.6964 33.8859 64.3922 34.5005 63.9061 34.9535C63.4201 35.4064 62.7856 35.6666 62.1215 35.6853C61.9847 35.1536 61.7927 34.6377 61.5485 34.146C61.7912 34.1789 62.038 34.1625 62.2742 34.0977C62.5105 34.0329 62.7312 33.9211 62.9231 33.769C63.1151 33.6169 63.2744 33.4276 63.3915 33.2124C63.5086 32.9973 63.581 32.7607 63.6045 32.5169L63.9191 31.1912L67.7166 33.1236L67.0874 35.7864C66.9975 36.1459 66.9863 36.3032 67.0874 36.3706L67.6379 36.6515C67.83 36.7489 68.0339 36.8206 68.2446 36.8649C68.1772 37.2469 68.0873 37.7525 68.0536 38.1121C67.8158 38.0776 67.5869 37.9975 67.3795 37.8761L66.6942 37.5391C65.6493 36.9998 65.5707 36.4155 65.8403 35.1684L66.1549 33.8539L64.728 33.1349L64.7617 33.2247ZM62.9978 37.8087C63.1669 38.6533 63.4623 39.4677 63.8741 40.2243C64.509 39.9857 65.0787 39.6008 65.537 39.1008L62.9978 37.8087Z" fill="white"/>
<path d="M72.1773 43.5051C72.1597 44.0199 72.1898 44.5351 72.2671 45.0443C71.1252 45.2527 70.015 45.6077 68.964 46.1004C68.9223 45.5341 68.8245 44.9734 68.6719 44.4264C68.8772 44.3791 69.0651 44.275 69.2141 44.126C69.3631 43.977 69.4672 43.7891 69.5145 43.5838L70.3796 39.8874L68.8292 39.1121L69.1775 37.6628L72.0087 39.1009L70.8852 43.8085L72.1773 43.5051ZM71.9076 38.1909C71.556 37.2202 71.1316 36.2775 70.638 35.3708L71.6604 34.8428C72.1625 35.7065 72.6127 36.5995 73.0087 37.5168L71.9076 38.1909ZM78.6487 44.2354L76.177 42.9883L74.7164 49.0778L73.357 48.3924L74.7951 42.3029L72.2447 41.0109L72.6042 39.4941L75.1546 40.7862L76.0422 36.9999L77.4016 37.6853L76.514 41.4715L78.9521 42.7074L78.6487 44.2354Z" fill="white"/>
<path d="M65.3013 48.4702L62.7172 59.447L61.4364 58.8627L61.5375 58.4246L54.9649 55.054L54.8638 55.4922L53.6504 54.8742L56.2345 43.8975L65.3013 48.4702ZM61.8408 57.0763L62.7284 53.3575C62.4415 53.5386 62.1775 53.7536 61.942 53.9979C61.0486 53.2935 60.2449 52.4823 59.5489 51.5823C59.2308 51.5993 58.912 51.5993 58.5939 51.5823C59.3973 52.2221 60.1487 52.9246 60.8409 53.6833L60.1106 54.3687C59.3732 53.5264 58.5692 52.7449 57.7063 52.0317L58.2456 51.6048C57.6099 51.5763 56.9781 51.4898 56.3581 51.3464C56.3209 50.9358 56.2456 50.5296 56.1334 50.133L55.2795 53.7507L60.3016 56.3011C59.091 55.1197 57.7748 54.0516 56.3693 53.1103L57.167 52.4587C58.6193 53.4015 59.9808 54.4773 61.2341 55.6719L60.4926 56.3798L61.8408 57.0763ZM57.1445 45.8411L56.1783 49.8746C56.9819 50.0938 57.8069 50.2257 58.6388 50.2678C58.4201 49.9044 58.2213 49.5293 58.0434 49.1443C57.7914 49.2398 57.5321 49.315 57.2681 49.369C57.1333 49.0432 56.8299 48.4028 56.6502 48.0882C57.667 47.9789 58.6326 47.5857 59.4365 46.9534L57.1445 45.8411ZM58.9871 48.987C59.2162 49.4347 59.487 49.8598 59.796 50.2566C60.2173 50.2388 60.6337 50.1593 61.0319 50.0206L58.9871 48.987ZM63.7059 49.1331L59.5826 47.0321L60.3915 47.8635C60.2399 48.0023 60.0784 48.13 59.9084 48.2455L62.2228 49.4252H62.4138L63.0093 50.2791C62.367 50.8371 61.594 51.2236 60.7623 51.4026C61.3755 52.0366 62.0366 52.6225 62.7397 53.1553L63.7059 49.1331Z" fill="white"/>
<path d="M74.2764 61.7169L70.1531 59.6384L69.7824 61.2001C69.6026 61.9641 69.3554 62.245 68.8161 62.2C68.0658 62.0591 67.3466 61.7851 66.6927 61.3911C66.684 60.8282 66.62 60.2674 66.5017 59.717C67.1646 60.099 67.951 60.4923 68.1757 60.5934C68.4004 60.6945 68.4566 60.672 68.5016 60.5035L68.8611 58.9755L64.8164 56.9307L65.131 55.5825L69.1757 57.6273L69.3554 56.8745C69.8144 56.88 70.2729 56.8462 70.7261 56.7734L67.3556 55.0769L67.6589 53.8073L72.4676 56.2341L72.7372 56.2903L73.3776 57.4138C72.4723 57.7946 71.5054 58.0078 70.5239 58.043L70.4677 58.2789L74.591 60.3574L74.2764 61.7169ZM66.996 53.9758L65.8051 53.3691L66.4455 50.6839L68.0634 51.5153C67.9551 50.9592 67.8087 50.4111 67.6252 49.875H68.8274C69.0992 50.5524 69.2988 51.2567 69.4228 51.976H68.9622L70.7486 52.886C70.6924 52.2497 70.5873 51.6187 70.434 50.9985L71.6586 51.0884C71.8831 51.8194 72.0263 52.573 72.0856 53.3354L71.3441 53.2456L72.726 53.9421C73.2146 53.5215 73.6657 53.0591 74.0742 52.5602L75.2764 53.6837C74.8831 54.0208 74.445 54.3354 74.0517 54.6275L75.6022 55.414L74.9618 58.0879L73.7259 57.4588L74.0517 56.0656L67.3106 52.6389L66.996 53.9758Z" fill="white"/>
<path d="M50.1668 10.1141H50.0208C48.2578 9.80412 46.4421 10.1306 44.8975 11.0353C43.4551 12.2924 42.4514 13.977 42.0326 15.844V15.9676L25.1798 87.3111C25.1525 87.3921 25.13 87.4746 25.1124 87.5583L25 88.0414L69.7161 110.714L69.8284 110.197C70.2097 108.514 71.1049 106.99 72.3901 105.838C73.9967 104.714 76.5134 104.995 77.2549 105.119L77.7155 105.355L94.9391 32.6519L50.1668 10.1141ZM42.7741 16.1698L42.8527 15.8552C43.2449 14.2377 44.1232 12.7791 45.3694 11.6757C46.7094 10.8978 48.2816 10.6192 49.8073 10.8893H49.9758V11.0578L33.2242 81.9631H33.0781C31.3115 81.6583 29.494 81.9844 27.9436 82.8844C27.6726 83.0939 27.4207 83.327 27.1909 83.581L26.7864 84.0079L42.7741 16.1698ZM74.8393 104.198C73.7962 104.25 72.7866 104.584 71.9182 105.164C70.6232 106.251 69.6872 107.704 69.233 109.332V109.512L69.0083 109.422L25.9325 87.5807V87.4571C26.3335 85.9261 27.1872 84.5517 28.3818 83.5136C29.9772 82.3901 32.4714 82.6597 33.2017 82.7833L75.3112 104.13L74.8393 104.198ZM77.21 104.198L77.0302 104.108L33.9769 82.244V82.1204L50.7398 11.1702L50.9196 11.26L93.9729 33.0788V33.2024L77.21 104.198Z" fill="#E7EC98"/>
<mask id="mask0_2498_5800" style="mask-type:alpha" maskUnits="userSpaceOnUse" x="0" y="0" width="120" height="120">
<rect width="120" height="120" fill="#C4C4C4"/>
</mask>
<g mask="url(#mask0_2498_5800)">
</g>
</svg>
