<svg width="70" height="101" viewBox="0 0 70 101" fill="none" xmlns="http://www.w3.org/2000/svg">
<path d="M36.0429 27.7413C36.0609 28.2256 36.1248 28.7072 36.2339 29.1794C35.1594 29.5145 34.1177 29.947 33.1217 30.4714C33.0715 29.9384 32.9545 29.4137 32.7734 28.9098C32.9815 28.8426 33.1675 28.7205 33.3119 28.5564C33.4562 28.3922 33.5536 28.1921 33.5936 27.9772L34.4587 24.3033L33.2004 23.6629L33.5262 22.2698L36.0092 23.5281L34.8857 28.1682L36.0429 27.7413ZM36.0429 22.7079C35.7148 21.7493 35.3206 20.8145 34.8632 19.9104L35.8856 19.416C36.3692 20.2951 36.7897 21.2074 37.1439 22.1462L36.0429 22.7079ZM42.3795 28.8423C41.8001 29.9867 40.866 30.9129 39.7168 31.4826C40.3623 32.3285 41.118 33.0842 41.9638 33.7297C41.5343 33.958 41.1529 34.267 40.8403 34.6397C39.9123 33.845 39.116 32.9084 38.4809 31.8646C37.4096 32.0168 36.319 31.9634 35.2677 31.7073C35.2262 31.1824 35.1321 30.663 34.9868 30.1569C35.8737 30.4277 36.8035 30.5306 37.7282 30.4602C37.2904 29.4669 36.9845 28.4207 36.8181 27.3481H37.29L36.526 26.9661L36.8518 25.6066L41.5144 27.9772H41.7504L42.3795 28.8423ZM39.7617 23.2247C39.6964 23.8859 39.3922 24.5005 38.9061 24.9535C38.4201 25.4064 37.7856 25.6666 37.1215 25.6853C36.9847 25.1536 36.7927 24.6377 36.5485 24.146C36.7912 24.1789 37.038 24.1625 37.2742 24.0977C37.5105 24.0329 37.7312 23.9211 37.9231 23.769C38.1151 23.6169 38.2744 23.4276 38.3915 23.2124C38.5086 22.9973 38.581 22.7607 38.6045 22.5169L38.9191 21.1912L42.7166 23.1236L42.0874 25.7864C41.9975 26.1459 41.9863 26.3032 42.0874 26.3706L42.6379 26.6515C42.83 26.7489 43.0339 26.8206 43.2446 26.8649C43.1772 27.2469 43.0873 27.7525 43.0536 28.1121C42.8158 28.0776 42.5869 27.9975 42.3795 27.8761L41.6942 27.5391C40.6493 26.9998 40.5707 26.4155 40.8403 25.1684L41.1549 23.8539L39.728 23.1349L39.7617 23.2247ZM37.9978 27.8087C38.1669 28.6533 38.4623 29.4677 38.8741 30.2243C39.509 29.9857 40.0787 29.6008 40.537 29.1008L37.9978 27.8087Z" fill="white"/>
<path d="M47.1773 33.5051C47.1597 34.0199 47.1898 34.5351 47.2671 35.0443C46.1252 35.2527 45.015 35.6077 43.964 36.1004C43.9223 35.5341 43.8245 34.9734 43.6719 34.4264C43.8772 34.3791 44.0651 34.275 44.2141 34.126C44.3631 33.977 44.4672 33.7891 44.5145 33.5838L45.3796 29.8874L43.8292 29.1121L44.1775 27.6628L47.0087 29.1009L45.8852 33.8085L47.1773 33.5051ZM46.9076 28.1909C46.556 27.2202 46.1316 26.2775 45.638 25.3708L46.6604 24.8428C47.1625 25.7065 47.6127 26.5995 48.0087 27.5168L46.9076 28.1909ZM53.6487 34.2354L51.177 32.9883L49.7164 39.0778L48.357 38.3924L49.7951 32.3029L47.2447 31.0109L47.6042 29.4941L50.1546 30.7862L51.0422 26.9999L52.4016 27.6853L51.514 31.4715L53.9521 32.7074L53.6487 34.2354Z" fill="white"/>
<path d="M40.3013 38.4702L37.7172 49.447L36.4364 48.8627L36.5375 48.4246L29.9649 45.054L29.8638 45.4922L28.6504 44.8742L31.2345 33.8975L40.3013 38.4702ZM36.8408 47.0763L37.7284 43.3575C37.4415 43.5386 37.1775 43.7536 36.942 43.9979C36.0486 43.2935 35.2449 42.4823 34.5489 41.5823C34.2308 41.5993 33.912 41.5993 33.5939 41.5823C34.3973 42.2221 35.1487 42.9246 35.8409 43.6833L35.1106 44.3687C34.3732 43.5264 33.5692 42.7449 32.7063 42.0317L33.2456 41.6048C32.6099 41.5763 31.9781 41.4898 31.3581 41.3464C31.3209 40.9358 31.2456 40.5296 31.1334 40.133L30.2795 43.7507L35.3016 46.3011C34.091 45.1197 32.7748 44.0516 31.3693 43.1103L32.167 42.4587C33.6193 43.4015 34.9808 44.4773 36.2341 45.6719L35.4926 46.3798L36.8408 47.0763ZM32.1445 35.8411L31.1783 39.8746C31.9819 40.0938 32.8069 40.2257 33.6388 40.2678C33.4201 39.9044 33.2213 39.5293 33.0434 39.1443C32.7914 39.2398 32.5321 39.315 32.2681 39.369C32.1333 39.0432 31.8299 38.4028 31.6502 38.0882C32.667 37.9789 33.6326 37.5857 34.4365 36.9534L32.1445 35.8411ZM33.9871 38.987C34.2162 39.4347 34.487 39.8598 34.796 40.2566C35.2173 40.2388 35.6337 40.1593 36.0319 40.0206L33.9871 38.987ZM38.7059 39.1331L34.5826 37.0321L35.3915 37.8635C35.2399 38.0023 35.0784 38.13 34.9084 38.2455L37.2228 39.4252H37.4138L38.0093 40.2791C37.367 40.8371 36.594 41.2236 35.7623 41.4026C36.3755 42.0366 37.0366 42.6225 37.7397 43.1553L38.7059 39.1331Z" fill="white"/>
<path d="M49.2764 51.7169L45.1531 49.6384L44.7824 51.2001C44.6026 51.9641 44.3554 52.245 43.8161 52.2C43.0658 52.0591 42.3466 51.7851 41.6927 51.3911C41.684 50.8282 41.62 50.2674 41.5017 49.717C42.1646 50.099 42.951 50.4923 43.1757 50.5934C43.4004 50.6945 43.4566 50.672 43.5016 50.5035L43.8611 48.9755L39.8164 46.9307L40.131 45.5825L44.1757 47.6273L44.3554 46.8745C44.8144 46.88 45.2729 46.8462 45.7261 46.7734L42.3556 45.0769L42.6589 43.8073L47.4676 46.2341L47.7372 46.2903L48.3776 47.4138C47.4723 47.7946 46.5054 48.0077 45.5239 48.043L45.4677 48.2789L49.591 50.3574L49.2764 51.7169ZM41.996 43.9758L40.8051 43.3691L41.4455 40.6839L43.0634 41.5153C42.9551 40.9592 42.8087 40.4111 42.6252 39.875H43.8274C44.0992 40.5524 44.2988 41.2567 44.4228 41.976H43.9622L45.7486 42.886C45.6924 42.2497 45.5873 41.6187 45.434 40.9985L46.6586 41.0884C46.8831 41.8194 47.0263 42.573 47.0856 43.3354L46.3441 43.2456L47.726 43.9421C48.2146 43.5215 48.6657 43.0591 49.0742 42.5602L50.2764 43.6837C49.8831 44.0208 49.445 44.3354 49.0517 44.6275L50.6022 45.414L49.9618 48.0879L48.7259 47.4588L49.0517 46.0656L42.3106 42.6389L41.996 43.9758Z" fill="white"/>
<path d="M25.1668 0.114054H25.0208C23.2578 -0.195883 21.4421 0.130633 19.8975 1.03534C18.4551 2.29243 17.4514 3.97703 17.0326 5.844V5.96759L0.179763 77.3111C0.152466 77.3921 0.129956 77.4746 0.112352 77.5583L0 78.0414L44.7161 100.714L44.8284 100.197C45.2097 98.5137 46.1049 96.9903 47.3901 95.8379C48.9967 94.7144 51.5134 94.9953 52.2549 95.1189L52.7155 95.3548L69.9391 22.6519L25.1668 0.114054ZM17.7741 6.16983L17.8527 5.85524C18.2449 4.23767 19.1232 2.77906 20.3694 1.67575C21.7094 0.897806 23.2816 0.619204 24.8073 0.889283H24.9758V1.05781L8.22416 71.9631H8.0781C6.31153 71.6583 4.49402 71.9844 2.94362 72.8844C2.67258 73.0939 2.42067 73.327 2.19086 73.581L1.7864 74.0079L17.7741 6.16983ZM49.8393 94.1976C48.7962 94.2496 47.7866 94.5835 46.9182 95.1638C45.6232 96.2506 44.6872 97.7036 44.233 99.3321V99.5118L44.0083 99.422L0.932521 77.5807V77.4571C1.33355 75.9261 2.18717 74.5517 3.38179 73.5136C4.97719 72.3901 7.47141 72.6597 8.20169 72.7833L50.3112 94.1302L49.8393 94.1976ZM52.21 94.1976L52.0302 94.1077L8.97692 72.244V72.1204L25.7398 1.17016L25.9196 1.26004L68.9729 23.0788V23.2024L52.21 94.1976Z" fill="#E7EC98"/>
</svg>
