<svg width="120" height="120" viewBox="0 0 120 120" fill="none" xmlns="http://www.w3.org/2000/svg">
<mask id="mask0_2498_5786" style="mask-type:alpha" maskUnits="userSpaceOnUse" x="0" y="0" width="120" height="120">
<rect width="120" height="120" fill="#C4C4C4"/>
</mask>
<g mask="url(#mask0_2498_5786)">
<path d="M25 28L81.5 19.5L83.5 24.5L89.5 25.5L94.5 91.5L36.5 100L32 99.5L30.5 95.5L25 28Z" fill="#F0FE97"/>
<path d="M43.9991 36.5835C44.1339 38.471 44.1563 41.3248 43.1002 43.3246C42.626 43.115 42.128 42.9641 41.6172 42.8752C42.4334 40.968 42.7056 38.872 42.4037 36.8195L42.1677 33.6062L53.504 31.876L53.5939 33.0894L43.8418 34.5837L43.9991 36.5835ZM47.5494 39.9541C46.9312 40.9514 46.2203 41.8881 45.4259 42.7516C44.9631 42.5555 44.4906 42.3831 44.0103 42.2348C44.7833 41.5173 45.4493 40.6925 45.9877 39.7856L47.5494 39.9541ZM49.8638 38.8306L50.0324 41.0776C50.0324 41.6955 49.9649 42.0438 49.4594 42.3022C48.7727 42.5892 48.0443 42.7637 47.3022 42.8191C47.1884 42.4163 47.0059 42.0363 46.7629 41.6955L48.2123 41.4821C48.4145 41.4821 48.4594 41.4147 48.4482 41.2798L48.2797 39.0328L45.1338 39.5159L44.7968 35.1117L47.2123 34.741C47.3528 34.4616 47.473 34.1725 47.5718 33.8758L49.5268 33.7747C49.3807 33.9994 49.2347 34.2354 49.0774 34.4601L52.7288 33.8983L53.0546 38.3025L49.8638 38.8306ZM46.4933 36.5835L51.1559 35.9881V35.2578L46.4708 35.9768L46.4933 36.5835ZM46.6618 38.3699L51.3469 37.6509V36.9206L46.6618 37.6396V38.3699ZM51.8525 38.9204C52.6164 39.4934 53.7512 40.3024 54.3242 40.8304L52.9872 41.6955C52.2237 40.9819 51.425 40.307 50.5941 39.6732L51.8525 38.9204Z" fill="black"/>
<path d="M67.7377 38.1897L67.8276 39.4256L55.5813 41.3019L55.4914 40.0548L60.8056 39.2233L60.7382 38.3245L56.7722 38.9425L56.6823 37.7291L60.6034 37.1224V36.4145L59.5922 36.5718L59.4349 34.4034L58.1766 34.5944C58.0846 35.1772 57.862 35.7316 57.5254 36.216C57.1888 36.7005 56.7469 37.1026 56.2329 37.392C55.8889 37.092 55.512 36.8319 55.1094 36.6168C55.4711 36.4353 55.7933 36.184 56.0575 35.8774C56.3217 35.5708 56.5226 35.215 56.6486 34.8304L55.2779 35.0439L55.188 33.8529L56.6935 33.6057L56.6149 32.4822L55.4914 32.6508L55.4015 31.4711L61.5696 30.5273L61.6595 31.6508L60.6933 31.8081L60.7831 32.9878L62.064 32.7968L62.1538 33.9203L60.873 34.1113L61.0191 36.0887L62.1426 35.909L62.21 36.819L66.1423 36.2123L66.2322 37.437L62.3898 38.0998L62.446 38.9986L67.7377 38.1897ZM59.3226 33.2238L59.2327 32.0328L58.1092 32.2126L58.1991 33.3361L59.3226 33.2238ZM64.2885 34.1787L62.8055 34.4147L62.5246 30.5947L64.0076 30.37L64.2885 34.1787ZM66.8839 34.2799C66.8839 34.8978 66.8164 35.2349 66.3221 35.5045C65.647 35.7946 64.9304 35.9766 64.1986 36.0438C64.073 35.6415 63.8833 35.2622 63.6369 34.9203L65.075 34.7293C65.266 34.7293 65.3222 34.6394 65.3109 34.4933L64.9514 29.6959L66.4906 29.46L66.8839 34.2799Z" fill="black"/>
<path d="M46.8066 52.1664L45.537 52.7844L45.728 55.2673C45.728 55.8853 45.6718 56.2336 45.2673 56.5032C44.7012 56.8184 44.0715 57.0026 43.4248 57.0425C43.313 56.643 43.1386 56.2638 42.9079 55.919C43.4023 55.919 43.8629 55.7842 44.0315 55.7504C44.2 55.7167 44.2562 55.6718 44.2449 55.5257L44.0876 53.4922L42.8855 54.0427L42.4698 52.8068L43.9978 52.1777L43.818 49.8183L42.4473 50.0317L42.3574 48.7959L43.7281 48.5824L43.5708 46.5825L45.0539 46.3466L45.2112 48.3577L46.3347 48.1892L46.3909 49.3352L45.2673 49.5149L45.4134 51.4586L46.4807 50.998L46.8066 52.1664ZM48.1885 49.2228L46.7279 49.4475L46.5706 47.3802L49.8401 46.8859C49.6674 46.5533 49.4761 46.2307 49.2671 45.9197L50.7951 45.3916C51.0872 45.7797 51.3501 46.1891 51.5815 46.6162L54.6487 46.1444L54.806 48.1667L53.278 48.3914L53.2106 47.5151L48.1211 48.3015L48.1885 49.2228ZM55.4352 53.8292L55.5138 54.9528L46.7953 56.2897L46.7054 55.1662L50.267 54.6157L50.0985 52.3687L47.5818 52.7507L47.4919 51.6271L47.784 51.5822C47.4956 51.2705 47.1839 50.9813 46.8515 50.7171C47.7258 50.1614 48.5037 49.4669 49.1547 48.661L50.5591 48.8857C49.811 49.9012 48.9263 50.8086 47.9301 51.5822L54.1768 50.616L54.2667 51.7395L51.7163 52.1327L51.8849 54.3798L55.4352 53.8292ZM51.8849 48.2116C52.7387 48.6273 54.0308 49.2116 54.6937 49.5936L53.7387 50.6384C52.8471 50.0873 51.9242 49.5884 50.9748 49.1442L51.8849 48.2116Z" fill="black"/>
<path d="M60.6051 47.5268L63.5712 47.0774L63.661 48.2796L60.695 48.7402V49.5604L63.3465 49.1559L63.5599 52.0321C63.6159 52.2394 63.6059 52.4589 63.5314 52.6602C63.4569 52.8616 63.3216 53.0347 63.1442 53.1556C62.6631 53.4169 62.1294 53.5667 61.5825 53.5938C61.4973 53.193 61.3372 52.8118 61.1107 52.4703C61.3935 52.4499 61.6749 52.4123 61.9533 52.3579C62.0769 52.3579 62.1106 52.3579 62.0994 52.2006L61.9758 50.5491L60.7848 50.7288L61.0657 54.4814L59.5265 54.7173L59.2456 50.9648L58.1221 51.1333L58.3356 53.987L56.8975 54.2117L56.5941 50.1671L59.1445 49.7738L59.0883 48.9424L55.9986 49.4143L55.9762 48.2122L56.9986 48.0549C56.584 47.9522 56.1639 47.8734 55.7402 47.8189C56.2782 46.8601 56.629 45.8078 56.7739 44.718H58.2794C58.2232 45.0888 58.1333 45.4371 58.0434 45.8415L58.9086 45.7067L58.8074 44.2911L60.3354 44.0551L60.4478 45.4708L62.8746 45.1L62.9645 46.3246L60.5377 46.6954L60.6051 47.5268ZM59.0209 47.7627V46.9201L57.6277 47.0886C57.5042 47.4257 57.3581 47.7403 57.2345 48.0099L59.0209 47.7627ZM65.9755 50.4592L64.47 50.6951L63.9869 44.336L65.5036 44.1113L65.9755 50.4592ZM67.9192 42.999L68.5708 51.7512C68.5708 52.4703 68.4809 52.8748 68.0091 53.1556C67.2759 53.4961 66.4888 53.7052 65.6834 53.7736C65.5595 53.3232 65.3662 52.8948 65.1104 52.504L66.7395 52.2681C66.9642 52.2681 67.0428 52.1669 67.0204 51.9759L66.3687 43.235L67.9192 42.999Z" fill="black"/>
<path d="M52.3342 66.8745L43.8965 68.1665L43.8066 66.8857L52.278 65.5937L52.3342 66.8745ZM55.3115 62.6725C55.3115 62.6725 55.3115 63.077 55.3115 63.268C55.2104 66.5037 54.952 67.8969 54.334 68.5261C53.915 68.9622 53.3605 69.2434 52.7611 69.3238C52.2106 69.4474 51.2331 69.5822 50.2332 69.7058C50.1261 69.215 49.8665 68.7706 49.4917 68.4362C50.6152 68.3463 51.6713 68.1778 52.1319 68.1104C52.3905 68.0993 52.6403 68.0134 52.851 67.8632C53.2779 67.5149 53.5251 66.3464 53.6037 64.1668L46.5593 65.2903L45.1549 65.4926C45.5394 63.7009 45.8245 61.8892 46.0087 60.066L47.6828 59.9424C47.6828 60.2907 47.5929 60.6502 47.5367 61.0659L54.7497 59.9424L54.8396 61.2344L47.3457 62.358C47.2671 62.9085 47.1884 63.4815 47.0986 63.9533L55.3115 62.6725Z" fill="black"/>
<path d="M56.5705 74.6923L44.6499 76.5236L44.5488 75.1754L49.8518 74.3664C49.6188 74.0107 49.3597 73.6727 49.0766 73.3553L50.5934 72.6699C51.0209 73.0931 51.3979 73.5644 51.7169 74.0743L56.5255 73.344L56.5705 74.6923ZM49.4698 76.3888C48.5118 77.6114 47.3756 78.6832 46.0993 79.5683C45.6714 79.2709 45.2206 79.008 44.7511 78.7819C45.9445 78.081 47.0117 77.1847 47.9082 76.1304L49.4698 76.3888ZM54.2111 77.5123C53.7635 78.6227 53.1076 79.6371 52.2786 80.5009C53.8984 81.0604 55.6129 81.2934 57.3232 81.1862C56.9631 81.594 56.6641 82.0519 56.4357 82.5457C54.6051 82.6003 52.7834 82.2711 51.0877 81.5794C49.539 82.6986 47.8258 83.5704 46.0094 84.1635C45.6723 83.7771 45.2957 83.4269 44.8859 83.1187C46.6185 82.638 48.2615 81.8791 49.7507 80.8716C48.8855 80.2708 48.1453 79.5076 47.5711 78.6246L48.998 78.0291C49.4796 78.7971 50.1287 79.4462 50.8967 79.9279C51.6343 79.2323 52.1998 78.3745 52.5483 77.4224L54.2111 77.5123ZM53.1887 75.2653C54.4714 75.7526 55.6991 76.3739 56.8514 77.1191L55.5369 78.2426C54.4229 77.4531 53.2246 76.7899 51.9641 76.2652L53.1887 75.2653Z" fill="black"/>
<path d="M70.8945 78.7936L70.9956 80.0969L58.6369 81.9844L58.5358 80.6811L66.0409 79.5576C66.0409 79.0745 66.1532 78.5801 66.2094 78.0633L60.1424 78.9621C60.621 76.9718 60.996 74.958 61.2659 72.9288L58.3785 73.3782L58.2773 72.0862L69.8159 70.3223L69.917 71.6143L63.0411 72.6592C62.9512 73.1648 62.8838 73.6704 62.8051 74.1872L66.715 73.5917L66.9734 73.5018L68.2205 73.4344C68.1418 75.086 67.9059 77.333 67.6924 79.243L70.8945 78.7936ZM66.4004 76.7488C66.4678 76.1084 66.5127 75.4792 66.5577 74.9287L62.6703 75.5242C62.5467 76.1758 62.4344 76.805 62.322 77.3667L66.4004 76.7488Z" fill="black"/>
<path d="M32.0557 99.6799C33.1479 100.312 34.4031 100.605 35.6622 100.523C36.4753 100.522 37.287 100.454 38.089 100.32L94.8155 91.6356L89.7597 24.6176L89.3215 24.6962C88.2766 24.8872 85.2431 25.1681 83.8837 24.1907C82.8388 23.4491 82.4343 21.629 82.2883 20.6179L82.1647 19L25 27.741L29.9772 94.2758C29.9884 94.7365 30.1457 98.3317 32.0557 99.6799ZM37.9542 99.5227C37.2119 99.6495 36.4602 99.7134 35.7071 99.7136C34.615 99.785 33.5248 99.5475 32.5613 99.0283C31.258 98.0958 30.9434 95.5454 30.8872 94.7926V94.6466H31.0333L86.4565 86.1528V86.3213C86.5689 87.3662 86.9621 89.9278 88.4564 90.9839C88.694 91.1645 88.9597 91.305 89.2429 91.3996L89.8046 91.6243L37.9542 99.5227ZM82.895 24.303C83.0619 24.5028 83.2503 24.6836 83.4567 24.8423C84.9622 25.9658 87.771 25.7074 88.9058 25.5726H89.0743V25.7411L93.9504 90.9053H93.7931C93.2006 90.98 92.6039 91.0175 92.0067 91.0176C90.9201 91.0931 89.8349 90.8511 88.8833 90.321C87.6138 89.411 87.2879 86.9505 87.2205 86.1528V85.7595C87.2157 85.7298 87.2157 85.6994 87.2205 85.6697V85.6022L82.6141 23.9435L82.895 24.303ZM26.0112 28.4039L81.4007 19.9213V20.1235C81.4007 20.3033 81.4007 20.5055 81.4681 20.719L86.3217 85.2877H86.1756L30.7524 93.8376V93.6579L25.8651 28.4263L26.0112 28.4039Z" fill="black"/>
</g>
</svg>
