<svg width="70" height="82" viewBox="0 0 70 82" fill="none" xmlns="http://www.w3.org/2000/svg">
<path d="M18.9991 17.5835C19.1339 19.471 19.1563 22.3248 18.1002 24.3246C17.626 24.115 17.128 23.9641 16.6172 23.8752C17.4334 21.968 17.7056 19.872 17.4037 17.8195L17.1677 14.6062L28.504 12.876L28.5939 14.0894L18.8418 15.5837L18.9991 17.5835ZM22.5494 20.9541C21.9312 21.9514 21.2203 22.8881 20.4259 23.7516C19.9631 23.5555 19.4906 23.3831 19.0103 23.2348C19.7833 22.5173 20.4493 21.6925 20.9877 20.7856L22.5494 20.9541ZM24.8638 19.8306L25.0324 22.0776C25.0324 22.6955 24.9649 23.0438 24.4594 23.3022C23.7727 23.5892 23.0443 23.7637 22.3022 23.8191C22.1884 23.4163 22.0059 23.0363 21.7629 22.6955L23.2123 22.4821C23.4145 22.4821 23.4594 22.4147 23.4482 22.2798L23.2797 20.0328L20.1338 20.5159L19.7968 16.1117L22.2123 15.741C22.3528 15.4616 22.473 15.1725 22.5718 14.8758L24.5268 14.7747C24.3807 14.9994 24.2347 15.2354 24.0774 15.4601L27.7288 14.8983L28.0546 19.3025L24.8638 19.8306ZM21.4933 17.5835L26.1559 16.9881V16.2578L21.4708 16.9768L21.4933 17.5835ZM21.6618 19.3699L26.3469 18.6509V17.9206L21.6618 18.6396V19.3699ZM26.8525 19.9204C27.6164 20.4934 28.7512 21.3024 29.3242 21.8304L27.9872 22.6955C27.2237 21.9819 26.425 21.307 25.5941 20.6732L26.8525 19.9204Z" fill="white"/>
<path d="M42.7377 19.1897L42.8276 20.4256L30.5813 22.3019L30.4914 21.0548L35.8056 20.2233L35.7382 19.3245L31.7722 19.9425L31.6823 18.7291L35.6034 18.1224V17.4145L34.5922 17.5718L34.4349 15.4034L33.1766 15.5944C33.0846 16.1772 32.862 16.7316 32.5254 17.216C32.1888 17.7005 31.7469 18.1026 31.2329 18.392C30.8889 18.092 30.512 17.8319 30.1094 17.6168C30.4711 17.4353 30.7933 17.184 31.0575 16.8774C31.3217 16.5708 31.5226 16.215 31.6486 15.8304L30.2779 16.0439L30.188 14.8529L31.6935 14.6057L31.6149 13.4822L30.4914 13.6508L30.4015 12.4711L36.5696 11.5273L36.6595 12.6508L35.6933 12.8081L35.7831 13.9878L37.064 13.7968L37.1538 14.9203L35.873 15.1113L36.0191 17.0887L37.1426 16.909L37.21 17.819L41.1423 17.2123L41.2322 18.437L37.3898 19.0998L37.446 19.9986L42.7377 19.1897ZM34.3226 14.2238L34.2327 13.0328L33.1092 13.2126L33.1991 14.3361L34.3226 14.2238ZM39.2885 15.1787L37.8055 15.4147L37.5246 11.5947L39.0076 11.37L39.2885 15.1787ZM41.8839 15.2799C41.8839 15.8978 41.8164 16.2349 41.3221 16.5045C40.647 16.7946 39.9304 16.9766 39.1986 17.0438C39.073 16.6415 38.8833 16.2622 38.6369 15.9203L40.075 15.7293C40.266 15.7293 40.3222 15.6394 40.3109 15.4933L39.9514 10.6959L41.4906 10.46L41.8839 15.2799Z" fill="white"/>
<path d="M21.8066 33.1664L20.537 33.7844L20.728 36.2673C20.728 36.8853 20.6718 37.2336 20.2673 37.5032C19.7012 37.8184 19.0715 38.0026 18.4248 38.0425C18.313 37.643 18.1386 37.2638 17.9079 36.919C18.4023 36.919 18.8629 36.7842 19.0315 36.7504C19.2 36.7167 19.2562 36.6718 19.2449 36.5257L19.0876 34.4922L17.8855 35.0427L17.4698 33.8068L18.9978 33.1777L18.818 30.8183L17.4473 31.0317L17.3574 29.7959L18.7281 29.5824L18.5708 27.5825L20.0539 27.3466L20.2112 29.3577L21.3347 29.1892L21.3909 30.3352L20.2673 30.5149L20.4134 32.4586L21.4807 31.998L21.8066 33.1664ZM23.1885 30.2228L21.7279 30.4475L21.5706 28.3802L24.8401 27.8859C24.6674 27.5533 24.4761 27.2307 24.2671 26.9197L25.7951 26.3916C26.0872 26.7797 26.3501 27.1891 26.5815 27.6162L29.6487 27.1444L29.806 29.1667L28.278 29.3914L28.2106 28.5151L23.1211 29.3015L23.1885 30.2228ZM30.4352 34.8292L30.5138 35.9528L21.7953 37.2897L21.7054 36.1662L25.267 35.6157L25.0985 33.3687L22.5818 33.7507L22.4919 32.6271L22.784 32.5822C22.4956 32.2705 22.1839 31.9813 21.8515 31.7171C22.7258 31.1614 23.5037 30.4669 24.1547 29.661L25.5591 29.8857C24.811 30.9012 23.9263 31.8086 22.9301 32.5822L29.1768 31.616L29.2667 32.7395L26.7163 33.1327L26.8849 35.3798L30.4352 34.8292ZM26.8849 29.2116C27.7387 29.6273 29.0308 30.2116 29.6937 30.5936L28.7387 31.6384C27.8471 31.0873 26.9242 30.5884 25.9748 30.1442L26.8849 29.2116Z" fill="white"/>
<path d="M35.6051 28.5268L38.5712 28.0774L38.661 29.2796L35.695 29.7402V30.5604L38.3465 30.1559L38.5599 33.0321C38.6159 33.2394 38.6059 33.4589 38.5314 33.6602C38.4569 33.8616 38.3216 34.0347 38.1442 34.1556C37.6631 34.4169 37.1294 34.5667 36.5825 34.5938C36.4973 34.193 36.3372 33.8118 36.1107 33.4703C36.3935 33.4499 36.6749 33.4123 36.9533 33.3579C37.0769 33.3579 37.1106 33.3579 37.0994 33.2006L36.9758 31.5491L35.7848 31.7288L36.0657 35.4814L34.5265 35.7173L34.2456 31.9648L33.1221 32.1333L33.3356 34.987L31.8975 35.2117L31.5941 31.1671L34.1445 30.7738L34.0883 29.9424L30.9986 30.4143L30.9762 29.2122L31.9986 29.0549C31.584 28.9522 31.1639 28.8734 30.7402 28.8189C31.2782 27.8601 31.629 26.8078 31.7739 25.718H33.2794C33.2232 26.0888 33.1333 26.4371 33.0434 26.8415L33.9086 26.7067L33.8074 25.2911L35.3354 25.0551L35.4478 26.4708L37.8746 26.1L37.9645 27.3246L35.5377 27.6954L35.6051 28.5268ZM34.0209 28.7627V27.9201L32.6277 28.0886C32.5042 28.4257 32.3581 28.7403 32.2345 29.0099L34.0209 28.7627ZM40.9755 31.4592L39.47 31.6951L38.9869 25.336L40.5036 25.1113L40.9755 31.4592ZM42.9192 23.999L43.5708 32.7512C43.5708 33.4703 43.4809 33.8748 43.0091 34.1556C42.2759 34.4961 41.4888 34.7052 40.6834 34.7736C40.5595 34.3232 40.3662 33.8948 40.1104 33.504L41.7395 33.2681C41.9642 33.2681 42.0428 33.1669 42.0204 32.9759L41.3687 24.235L42.9192 23.999Z" fill="white"/>
<path d="M27.3342 47.8745L18.8965 49.1665L18.8066 47.8857L27.278 46.5937L27.3342 47.8745ZM30.3115 43.6725C30.3115 43.6725 30.3115 44.077 30.3115 44.268C30.2104 47.5037 29.952 48.8969 29.334 49.5261C28.915 49.9622 28.3605 50.2434 27.7611 50.3238C27.2106 50.4474 26.2331 50.5822 25.2332 50.7058C25.1261 50.215 24.8665 49.7706 24.4917 49.4362C25.6152 49.3463 26.6713 49.1778 27.1319 49.1104C27.3905 49.0993 27.6403 49.0134 27.851 48.8632C28.2779 48.5149 28.5251 47.3464 28.6037 45.1668L21.5593 46.2903L20.1549 46.4926C20.5394 44.7009 20.8245 42.8892 21.0087 41.066L22.6828 40.9424C22.6828 41.2907 22.5929 41.6502 22.5367 42.0659L29.7497 40.9424L29.8396 42.2344L22.3457 43.358C22.2671 43.9085 22.1884 44.4815 22.0986 44.9533L30.3115 43.6725Z" fill="white"/>
<path d="M31.5705 55.6923L19.6499 57.5236L19.5488 56.1754L24.8518 55.3664C24.6188 55.0107 24.3597 54.6727 24.0766 54.3553L25.5934 53.6699C26.0209 54.0931 26.3979 54.5644 26.7169 55.0743L31.5255 54.344L31.5705 55.6923ZM24.4698 57.3888C23.5118 58.6114 22.3756 59.6832 21.0993 60.5683C20.6714 60.2709 20.2206 60.008 19.7511 59.7819C20.9445 59.081 22.0117 58.1847 22.9082 57.1304L24.4698 57.3888ZM29.2111 58.5123C28.7635 59.6227 28.1076 60.6371 27.2786 61.5009C28.8984 62.0604 30.6129 62.2934 32.3232 62.1862C31.9631 62.594 31.6641 63.0519 31.4357 63.5457C29.6051 63.6003 27.7834 63.2711 26.0877 62.5794C24.539 63.6986 22.8258 64.5704 21.0094 65.1635C20.6723 64.7771 20.2957 64.4269 19.8859 64.1187C21.6185 63.638 23.2615 62.8791 24.7507 61.8716C23.8855 61.2708 23.1453 60.5076 22.5711 59.6246L23.998 59.0291C24.4796 59.7971 25.1287 60.4462 25.8967 60.9279C26.6343 60.2323 27.1998 59.3745 27.5483 58.4224L29.2111 58.5123ZM28.1887 56.2653C29.4714 56.7526 30.6991 57.3739 31.8514 58.1191L30.5369 59.2426C29.4229 58.4531 28.2246 57.7899 26.9641 57.2652L28.1887 56.2653Z" fill="white"/>
<path d="M45.8945 59.7936L45.9956 61.0969L33.6369 62.9844L33.5358 61.6811L41.0409 60.5576C41.0409 60.0745 41.1532 59.5801 41.2094 59.0633L35.1424 59.9621C35.621 57.9718 35.996 55.958 36.2659 53.9288L33.3785 54.3782L33.2773 53.0862L44.8159 51.3223L44.917 52.6143L38.0411 53.6592C37.9512 54.1648 37.8838 54.6704 37.8051 55.1872L41.715 54.5917L41.9734 54.5018L43.2205 54.4344C43.1418 56.086 42.9059 58.333 42.6924 60.243L45.8945 59.7936ZM41.4004 57.7488C41.4678 57.1084 41.5127 56.4792 41.5577 55.9287L37.6703 56.5242C37.5467 57.1758 37.4344 57.805 37.322 58.3667L41.4004 57.7488Z" fill="white"/>
<path d="M7.0557 80.6799C8.14789 81.3118 9.40311 81.6051 10.6622 81.5226C11.4753 81.5221 12.287 81.4544 13.089 81.3204L69.8155 72.6356L64.7597 5.6176L64.3215 5.69624C63.2766 5.88724 60.2431 6.16812 58.8837 5.19066C57.8388 4.44914 57.4343 2.62904 57.2883 1.61787L57.1647 0L0 8.74098L4.97719 75.2758C4.98843 75.7365 5.14572 79.3317 7.0557 80.6799ZM12.9542 80.5227C12.2119 80.6495 11.4602 80.7134 10.7071 80.7136C9.61499 80.785 8.52481 80.5475 7.56129 80.0283C6.25801 79.0958 5.94342 76.5454 5.88724 75.7926V75.6466H6.0333L61.4565 67.1528V67.3213C61.5689 68.3662 61.9621 70.9278 63.4564 71.9839C63.694 72.1645 63.9597 72.305 64.2429 72.3996L64.8046 72.6243L12.9542 80.5227ZM57.895 5.30301C58.0619 5.50277 58.2503 5.68361 58.4567 5.8423C59.9622 6.96582 62.771 6.70741 63.9058 6.57259H64.0743V6.74112L68.9504 71.9053H68.7931C68.2006 71.98 67.6039 72.0175 67.0067 72.0176C65.9201 72.0931 64.8349 71.8511 63.8833 71.321C62.6138 70.411 62.2879 67.9505 62.2205 67.1528V66.7595C62.2157 66.7298 62.2157 66.6994 62.2205 66.6697V66.6022L57.6141 4.94349L57.895 5.30301ZM1.01117 9.40386L56.4007 0.921286V1.12352C56.4007 1.30328 56.4007 1.50552 56.4681 1.71899L61.3217 66.2877H61.1756L5.75242 74.8376V74.6579L0.865111 9.42633L1.01117 9.40386Z" fill="#E7EC98"/>
</svg>
