<svg width="120" height="120" viewBox="0 0 120 120" fill="none" xmlns="http://www.w3.org/2000/svg">
<mask id="mask0_2498_5554" style="mask-type:alpha" maskUnits="userSpaceOnUse" x="0" y="0" width="120" height="120">
<rect width="120" height="120" fill="#C4C4C4"/>
</mask>
<g mask="url(#mask0_2498_5554)">
<path d="M41.5391 52.1944V3L106.916 40.5431V90.3848M41.5391 52.1944L106.916 90.3848M41.5391 52.1944L15 65.1403M106.916 90.3848L81.0241 102.683M15 65.1403L81.0241 102.683M15 65.1403L15 80.0281L81.0241 117.571M81.0241 102.683V105.273M81.0241 117.571L89.439 111.746L81.0241 105.273M81.0241 117.571V105.273" stroke="#F0FE97"/>
<g clip-path="url(#clip0_2498_5554)">
<path d="M59.2837 42.0204C59.4963 43.1645 59.7882 44.2922 60.1574 45.3953C56.4752 47.2711 55.7679 47.6685 55.4073 48.1846C55.0878 46.9235 54.6752 45.6882 54.1729 44.4889C54.5528 44.2956 54.8678 43.9942 55.0786 43.6222C55.2895 43.2503 55.3869 42.8242 55.3587 42.397L55.5598 34.5105L53.0703 33.1786L53.1535 30.0129L58.1117 32.6626L57.8551 42.7107L59.2837 42.0204ZM57.342 30.6335C56.7525 29.0157 55.3657 26.2544 54.3255 24.2043L56.0938 23.2979C57.2528 25.319 58.3105 27.3972 59.2629 29.5248L57.342 30.6335ZM72.8823 48.9586L70.3928 47.6267L70.1639 56.4406L67.5427 55.046L67.7715 46.2251L64.9145 44.698C64.5054 47.9963 63.5276 50.7576 61.2808 51.6083C60.7254 50.5144 60.0903 49.4632 59.3807 48.4635C61.1629 47.7662 61.9327 45.6743 62.321 43.3104L59.4431 41.7764L59.5264 38.5269L62.5984 40.1656V39.5101L62.7162 35.0892L60.0534 33.6946L60.1366 30.4731L62.7994 31.8677L62.9312 26.7913L65.4831 28.1859L65.3514 33.2623L68.0558 34.7057L68.1876 29.5736L70.8088 30.9682L70.6979 36.0515L72.8684 37.209L72.7852 40.4306L70.6147 39.273L70.4829 44.3494L72.9724 45.6812L72.8823 48.9586ZM67.8547 42.9757L67.9865 37.8993L65.282 36.4559L65.1503 40.9326V41.5602L67.8547 42.9757Z" fill="white"/>
<path d="M87.3404 62.1794L94.164 65.8262L94.0946 68.6155L77.9996 60.0108L78.0689 57.2215L84.8717 60.8545L84.941 58.1559L79.4905 55.2412L79.5598 52.452L85.0173 55.3667L85.1005 52.0615L83.783 53.3515C83.4154 52.459 82.7497 51.1411 82.0701 49.865C81.6171 50.7057 80.9336 51.3979 80.1007 51.8593C79.7471 51.2038 78.908 49.9487 78.3671 49.1886C78.0689 52.961 77.424 57.0402 76.0302 59.425C75.4097 58.3705 74.6998 57.372 73.9082 56.4406C75.6834 53.4561 75.9886 47.8219 76.0648 43.8055L76.259 36.4141L84.6914 40.9186C84.4764 40.1376 84.2337 39.3706 83.9979 38.6803L86.4666 39.001C86.9174 40.1307 87.3404 41.3788 87.6594 42.4876L94.5523 46.1693L94.476 49.1677L78.7208 40.7513L78.6029 45.1722C78.6029 46.3436 78.5197 47.6406 78.4156 49.0004C80.0453 48.3031 80.9259 46.2112 81.3281 43.4219L83.6165 44.949C83.4847 45.88 83.2783 46.7988 82.9994 47.6964C83.7899 49.0282 84.622 50.5553 85.1421 51.6083L85.3086 45.1931L87.7773 46.511L87.6039 53.1981C88.9076 52.3474 89.7189 50.5344 90.1073 48.1148L92.3749 49.6837C92.2188 50.6801 91.9584 51.6571 91.5982 52.5984C92.6661 54.2998 93.8172 56.1616 94.4552 57.3889L92.888 58.6929C92.3957 57.6818 91.5011 56.0571 90.5788 54.509C90.1029 55.248 89.4431 55.849 88.6649 56.2523C88.3092 55.5809 87.918 54.9292 87.4929 54.2998L87.4375 56.6498L93.0822 59.6691L93.0059 62.4583L87.3612 59.439L87.3404 62.1794Z" fill="white"/>
</g>
</g>
<defs>
<clipPath id="clip0_2498_5554">
<rect width="41.4269" height="45.3107" fill="white" transform="translate(53.0703 23.2979)"/>
</clipPath>
</defs>
</svg>
