<svg width="120" height="120" viewBox="0 0 120 120" fill="none" xmlns="http://www.w3.org/2000/svg">
<path d="M40.5 2.5L105.5 39.5V89.5L80 101.5V104.5L88.5 110.5L80 116.5L14 79V64.5L40.5 51V2.5Z" fill="#F0FE97"/>
<path d="M40.5391 51.1944V2L105.916 39.5431V89.3848M40.5391 51.1944L105.916 89.3848M40.5391 51.1944L14 64.1403M105.916 89.3848L80.0241 101.683M14 64.1403L80.0241 101.683M14 64.1403L14 79.0281L80.0241 116.571M80.0241 101.683V104.273M80.0241 116.571L88.439 110.746L80.0241 104.273M80.0241 116.571V104.273" stroke="black"/>
<path d="M58.2837 41.0204C58.4963 42.1645 58.7882 43.2922 59.1574 44.3953C55.4752 46.2711 54.7679 46.6685 54.4073 47.1846C54.0878 45.9235 53.6752 44.6882 53.1729 43.4889C53.5528 43.2956 53.8678 42.9942 54.0786 42.6222C54.2895 42.2503 54.3869 41.8242 54.3587 41.397L54.5598 33.5105L52.0703 32.1786L52.1535 29.0129L57.1117 31.6626L56.8551 41.7107L58.2837 41.0204ZM56.342 29.6335C55.7525 28.0157 54.3657 25.2544 53.3255 23.2043L55.0938 22.2979C56.2528 24.319 57.3105 26.3972 58.2629 28.5248L56.342 29.6335ZM71.8823 47.9586L69.3928 46.6267L69.1639 55.4406L66.5427 54.046L66.7715 45.2251L63.9145 43.698C63.5054 46.9963 62.5276 49.7576 60.2808 50.6083C59.7254 49.5144 59.0903 48.4632 58.3807 47.4635C60.1629 46.7662 60.9327 44.6743 61.321 42.3104L58.4431 40.7764L58.5264 37.5269L61.5984 39.1656V38.5101L61.7162 34.0892L59.0534 32.6946L59.1366 29.4731L61.7994 30.8677L61.9312 25.7913L64.4831 27.1859L64.3514 32.2623L67.0558 33.7057L67.1876 28.5736L69.8088 29.9682L69.6979 35.0515L71.8684 36.209L71.7852 39.4306L69.6147 38.273L69.4829 43.3494L71.9724 44.6812L71.8823 47.9586ZM66.8547 41.9757L66.9865 36.8993L64.282 35.4559L64.1503 39.9326V40.5602L66.8547 41.9757Z" fill="black"/>
<path d="M86.3404 61.1794L93.164 64.8262L93.0946 67.6155L76.9996 59.0108L77.0689 56.2215L83.8717 59.8545L83.941 57.1559L78.4905 54.2412L78.5598 51.452L84.0173 54.3667L84.1005 51.0615L82.783 52.3515C82.4154 51.459 81.7497 50.1411 81.0701 48.865C80.6171 49.7057 79.9336 50.3979 79.1007 50.8593C78.7471 50.2038 77.908 48.9487 77.3671 48.1886C77.0689 51.961 76.424 56.0402 75.0302 58.425C74.4097 57.3705 73.6998 56.372 72.9082 55.4406C74.6834 52.4561 74.9886 46.8219 75.0648 42.8055L75.259 35.4141L83.6914 39.9186C83.4764 39.1376 83.2337 38.3706 82.9979 37.6803L85.4666 38.001C85.9174 39.1307 86.3404 40.3788 86.6594 41.4876L93.5523 45.1693L93.476 48.1677L77.7208 39.7513L77.6029 44.1722C77.6029 45.3436 77.5197 46.6406 77.4156 48.0004C79.0453 47.3031 79.9259 45.2112 80.3281 42.4219L82.6165 43.949C82.4847 44.88 82.2783 45.7988 81.9994 46.6964C82.7899 48.0282 83.622 49.5553 84.1421 50.6083L84.3086 44.1931L86.7773 45.511L86.6039 52.1981C87.9076 51.3474 88.7189 49.5344 89.1073 47.1148L91.3749 48.6837C91.2188 49.6801 90.9584 50.6571 90.5982 51.5984C91.6661 53.2998 92.8172 55.1616 93.4552 56.3889L91.888 57.6929C91.3957 56.6818 90.5011 55.0571 89.5788 53.509C89.1029 54.248 88.4431 54.849 87.6649 55.2523C87.3092 54.5809 86.918 53.9292 86.4929 53.2998L86.4375 55.6498L92.0822 58.6691L92.0059 61.4583L86.3612 58.439L86.3404 61.1794Z" fill="black"/>
<mask id="mask0_2498_5552" style="mask-type:alpha" maskUnits="userSpaceOnUse" x="0" y="0" width="120" height="120">
<rect width="120" height="120" fill="#C4C4C4"/>
</mask>
<g mask="url(#mask0_2498_5552)">
</g>
</svg>
