<svg width="120" height="120" viewBox="0 0 120 120" fill="none" xmlns="http://www.w3.org/2000/svg">
<path d="M7 42L78.5 15V64L101.5 55V75L113.5 79L43 105L29.5 102V89L7 97.5V42Z" fill="#F0FE97"/>
<path d="M7 97.4828V42.2921L78.566 15V64.35M7 97.4828L29.4402 82.927M7 97.4828L29.4402 88.9919M29.4402 82.927L78.566 64.35M29.4402 82.927V88.9919M29.4402 102.335L42.783 105.367L113.742 78.6816L101.613 75.0426M29.4402 102.335V88.9919M29.4402 102.335L101.613 75.0426M101.613 75.0426V55.0284L78.566 64.35" stroke="black"/>
<path d="M24.4221 64.7702C24.805 64.9042 25.273 65.0877 25.8402 65.25C27.5419 65.6876 29.825 64.9819 32.5973 63.9233C35.9131 62.637 39.1601 61.1813 42.3253 59.5621C41.932 60.6898 41.661 61.8561 41.517 63.0412C39.5388 63.9092 35.2562 65.7158 32.5335 66.7532C29.3286 67.9811 27.2441 68.4681 25.4431 68.0588C24.4079 67.7906 23.5642 67.2754 22.997 67.4942C22.2241 67.7906 20.9762 69.9077 19.9056 72.0107L18.0195 69.95C18.9883 68.4362 20.1382 67.0452 21.4442 65.8075V59.2304L18.2181 60.4936V57.4379L24.3796 55.0879L24.4221 64.7702ZM23.004 52.7238C21.629 51.5434 20.1232 50.5229 18.5159 49.6822L20.565 46.9229C22.2018 47.6507 23.7562 48.5496 25.2021 49.6046L23.004 52.7238ZM29.5059 63.7751L26.6698 64.876L26.5705 50.6137L32.1648 48.4966C30.9027 48.3696 29.6193 48.2496 28.4849 48.179L30.456 45.6738C31.4345 45.6738 32.6398 45.7585 33.7956 45.8432C34.5401 45.088 35.2845 44.2765 35.9227 43.4649L26.7548 46.9934V44.4953L38.5319 39.9999L39.1488 39.5977L40.9497 40.4939C39.5504 42.4864 38.0053 44.3734 36.3268 46.1395C36.8161 46.2031 37.2769 46.3019 37.6598 46.3795L37.6102 46.4501L41.049 45.1374L41.1057 56.5699C41.1057 57.9319 40.8788 58.687 40.0634 59.4421C39.2481 60.1972 38.1349 60.6488 36.6246 61.2275C36.4789 60.4314 36.2161 59.6609 35.8447 58.941C36.6601 58.6588 37.5393 58.3271 37.7945 58.2353C37.9142 58.1999 38.0177 58.1243 38.0876 58.0213C38.1574 57.9183 38.1892 57.7944 38.1774 57.6708V56.2594L35.1498 57.4167V61.4675L32.4342 62.5049V58.4541L29.4846 59.5832L29.5059 63.7751ZM29.4563 51.8699V53.366L32.4059 52.2368V50.7407L29.4563 51.8699ZM32.4342 56.1041V54.5516L29.4775 55.6807V57.2332L32.4342 56.1041ZM38.1561 48.5531L35.1286 49.7104V51.2065L38.1561 50.0491V48.5531ZM38.1561 53.9094V52.3498L35.1215 53.5071V55.0667L38.1561 53.9094Z" fill="black"/>
<path d="M51.6568 48.144C51.6072 48.5462 51.5575 48.9556 51.4795 49.3508C52.8196 50.2541 55.6132 52.6605 56.3293 53.3027L54.2944 56.8665C53.1853 55.5003 51.9842 54.2106 50.6996 53.0063C49.7724 56.3598 48.1249 59.473 45.8711 62.1311C45.2545 61.4404 44.5077 60.8769 43.6731 60.4727C46.4157 57.3423 48.1217 53.4461 48.5583 49.3155L44.0205 51.0515V47.9464L48.7639 46.1327V45.427V41.708L47.7358 42.1032C47.2734 43.6061 46.695 45.0713 46.0058 46.4856C45.2254 46.0604 44.3939 45.7355 43.5312 45.5188C44.9887 42.5418 45.9468 39.3474 46.3674 36.0623L49.3028 35.5824C49.1255 36.6269 48.9199 37.6431 48.6718 38.6875L55.4501 36.0976V39.1533L51.8341 40.5647V44.312V44.9683L56.0457 43.3593V46.4715L51.6568 48.144ZM66.4898 30.7695L66.5891 53.0839L63.4835 54.2695V52.6887L59.7611 54.1001V56.0973L56.8044 57.2264L56.7051 34.4957L66.4898 30.7695ZM63.4622 49.5766L63.3984 35.0884L59.676 36.4999L59.7398 51.0162L63.4622 49.5766Z" fill="black"/>
<mask id="mask0_2498_5550" style="mask-type:alpha" maskUnits="userSpaceOnUse" x="0" y="0" width="120" height="120">
<rect width="120" height="120" fill="#C4C4C4"/>
</mask>
<g mask="url(#mask0_2498_5550)">
</g>
</svg>
