<svg width="120" height="120" viewBox="0 0 120 120" fill="none" xmlns="http://www.w3.org/2000/svg">
<path d="M9 23L88 37V65L111 70L111.5 91L96 87.5L88 96L9 80.5V23Z" fill="#F0FE97"/>
<path d="M87.97 96.1444L9 80.6093V23L87.97 37.2405V65.0742M87.97 96.1444L95.7376 87.298M87.97 96.1444V65.0742M111.273 69.6053V90.966L95.7376 87.298M111.273 69.6053L95.7376 87.298M111.273 69.6053L87.97 65.0742" stroke="black"/>
<path d="M44.7264 64.5336C43.5873 65.1417 42.4065 65.6662 41.1929 66.1031C42.6625 67.164 44.2834 67.9923 46 68.5594C45.2451 69.271 44.6011 70.0938 44.0896 71C41.9161 70.1873 39.9339 68.9261 38.2692 67.2967C36.6046 65.6672 35.2941 63.7053 34.4211 61.5359L31.6022 61.0964V65.4204L36.2616 65.2713C36.0936 66.1537 36 67.0489 35.9821 67.9473C29.9092 68.3161 28.9928 68.3946 28.3638 68.685C28.0954 67.6836 27.6958 66.7229 27.1756 65.8285C27.6156 65.6225 27.9845 65.2882 28.235 64.8687C28.4854 64.4492 28.606 63.9635 28.5812 63.4742V60.5863L26.2748 60.2646V57.4866L30.3053 58.13V56.2074L26.8572 55.6659V52.9193L30.3053 53.4608V51.546L26.2748 50.9103V51.6951C26.2748 56.5213 25.8321 63.6704 22.9277 67.7668C22.0285 66.9468 21.0473 66.2236 20 65.6087C22.7413 61.7713 22.9588 55.5796 22.9588 51.1693V43L44.1906 46.3195V53.7276L40.4552 53.139V55.0617L44.4391 55.6895V58.4361L40.4552 57.8083V59.7231L45.6195 60.5078V63.2859L42.7228 62.8229L44.7264 64.5336ZM26.2748 48.1009L40.8901 50.4002V48.5718L26.2748 46.2646V48.1009ZM33.3184 53.9316L37.4343 54.5751V52.6603L33.3184 52.0168V53.9316ZM33.3184 58.593L37.4343 59.2444V57.3296L33.3184 56.6782V58.593ZM37.5197 62.0303C37.9539 62.7905 38.4752 63.4964 39.0729 64.1334C40.0237 63.7176 40.9472 63.2405 41.8375 62.7052L37.5197 62.0303Z" fill="black"/>
<path d="M57.0672 64.3094C57.3941 65.3491 57.8177 66.3566 58.3325 67.3191C53.0534 70.9816 52.1105 71.6823 51.5946 72.3351C51.1935 71.2389 50.6518 70.198 49.9827 69.2379C50.4233 68.9867 50.7883 68.6242 51.0404 68.1877C51.2925 67.7512 51.4226 67.2563 51.4173 66.7538V58.322L48 57.7965V54.6117L54.7379 55.6547V65.9098L57.0672 64.3094ZM53.4 53.8792C52.1952 52.0179 50.848 50.2505 49.3702 48.5924L51.6994 47C53.2046 48.5983 54.5917 50.3012 55.8502 52.0957L53.4 53.8792ZM71.5021 50.8934C71.2442 60.4478 71.3328 71.8017 72.711 72.3909C72.8481 72.4625 73.0496 70.5835 73.1382 68.6487C73.671 69.6873 74.2939 70.6783 75 71.6106C74.5406 75.8782 73.0495 76.6107 71.22 75.5916C68.1493 73.9594 68.0606 64.2298 68.0364 53.5448L63.7325 52.8839V59.7313L67.3191 60.2806V63.3858L63.7325 62.8285V74.2062L60.5087 73.7126V62.303L56.9221 61.7457V58.6484L60.5087 59.2058V52.3584L57.1236 51.8329V48.6481L71.5021 50.8934Z" fill="black"/>
<mask id="mask0_3074_5247" style="mask-type:alpha" maskUnits="userSpaceOnUse" x="0" y="0" width="120" height="120">
<rect width="120" height="120" fill="#C4C4C4"/>
</mask>
<g mask="url(#mask0_3074_5247)">
</g>
</svg>
