<svg width="388" height="64" viewBox="0 0 388 64" fill="none" xmlns="http://www.w3.org/2000/svg">
<path d="M259.71 7.39773H269.932C279.49 7.39773 284.726 10.2235 284.726 18.2851C284.726 26.1805 279.49 30.0036 269.932 30.0036H259.71V7.39773ZM294.2 62.0839L278.576 35.4057C286.887 33.4111 292.372 27.7596 292.372 18.2851C292.372 5.56933 283.479 1.16451 271.096 1.16451H251.98V62.0839H259.71V36.2368H270.68L285.474 62.0839H294.2Z" fill="#F0FE97"/>
<path d="M320.473 63.1643C333.188 63.1643 341.167 55.5182 341.167 45.8775C341.167 36.8185 335.682 32.6631 328.617 29.588L319.891 25.8481C315.154 23.8534 309.834 21.6095 309.834 15.7087C309.834 10.2235 314.322 6.73286 321.221 6.73286C326.872 6.73286 331.36 8.97682 335.1 12.4674L339.172 7.56395C334.85 3.07603 328.451 0.000976562 321.221 0.000976562C310.167 0.000976562 302.022 6.81597 302.022 16.2074C302.022 25.1001 308.754 29.4218 314.406 31.832L323.215 35.655C328.95 38.2314 333.355 40.226 333.355 46.4593C333.355 52.4432 328.534 56.4324 320.556 56.4324C314.239 56.4324 308.089 53.4405 303.684 48.8694L299.113 54.1054C304.432 59.6737 311.829 63.1643 320.473 63.1643Z" fill="#F0FE97"/>
<path d="M353.108 62.0839H389.178V55.5182H360.837V33.3279H383.942V26.7623H360.837V7.64706H388.263V1.16451H353.108V62.0839Z" fill="#F0FE97"/>
<path d="M26.512 63.1633C34.4074 63.1633 40.3913 60.0052 45.2116 54.4368L40.973 49.6165C37.0669 53.855 32.6621 56.4314 26.8444 56.4314C15.2091 56.4314 7.89542 46.7907 7.89542 31.4154C7.89542 16.2064 15.5415 6.73188 27.0937 6.73188C32.3296 6.73188 36.402 9.14206 39.5602 12.5496L43.7157 7.56298C40.2251 3.65683 34.4074 0 27.0106 0C11.5522 0 0 11.9678 0 31.6648C0 51.4449 11.386 63.1633 26.512 63.1633Z" fill="#F0FE97"/>
<path d="M76.3336 63.1633C91.6258 63.1633 102.347 50.9462 102.347 31.4154C102.347 11.8847 91.6258 0 76.3336 0C61.0414 0 50.3203 11.8847 50.3203 31.4154C50.3203 50.9462 61.0414 63.1633 76.3336 63.1633ZM76.3336 56.4314C65.3631 56.4314 58.2157 46.6245 58.2157 31.4154C58.2157 16.1233 65.3631 6.73188 76.3336 6.73188C87.221 6.73188 94.4515 16.1233 94.4515 31.4154C94.4515 46.6245 87.221 56.4314 76.3336 56.4314Z" fill="#F0FE97"/>
<path d="M137.102 62.0829C149.569 62.0829 159.043 55.4341 159.043 35.8202V1.16354H151.647V36.0695C151.647 50.7799 145.247 55.351 137.102 55.351C129.207 55.351 122.974 50.7799 122.974 36.0695V1.16354H115.244V35.8202C115.244 55.4341 124.719 62.0829 137.102 62.0829Z" fill="#F0FE97"/>
<rect x="152.049" y="1.20508" width="92.2517" height="60.8778" fill="#F0FE97"/>
<path d="M136.256 62.0831H152.047L152.878 56.0576L136.256 62.0831Z" fill="#F0FE97"/>
</svg>
