<svg width="390" height="64" viewBox="0 0 390 64" fill="none" xmlns="http://www.w3.org/2000/svg">
<path d="M27.3323 63.9944C35.2277 63.9944 41.2116 60.8362 46.032 55.2679L41.7934 50.4475C37.8872 54.6861 33.4824 57.2625 27.6647 57.2625C16.0294 57.2625 8.71573 47.6218 8.71573 32.2465C8.71573 17.0374 16.3618 7.56294 27.9141 7.56294C33.15 7.56294 37.2223 9.97312 40.3805 13.3806L44.536 8.39403C41.0454 4.48788 35.2277 0.831055 27.8309 0.831055C12.3726 0.831055 0.820312 12.7988 0.820312 32.4958C0.820312 52.2759 12.2063 63.9944 27.3323 63.9944Z" fill="#F0FE97"/>
<path d="M77.1539 63.9944C92.4461 63.9944 103.167 51.7773 103.167 32.2465C103.167 12.7157 92.4461 0.831055 77.1539 0.831055C61.8617 0.831055 51.1406 12.7157 51.1406 32.2465C51.1406 51.7773 61.8617 63.9944 77.1539 63.9944ZM77.1539 57.2625C66.1834 57.2625 59.036 47.4556 59.036 32.2465C59.036 16.9543 66.1834 7.56294 77.1539 7.56294C88.0413 7.56294 95.2718 16.9543 95.2718 32.2465C95.2718 47.4556 88.0413 57.2625 77.1539 57.2625Z" fill="#F0FE97"/>
<path d="M137.923 62.9139C150.389 62.9139 159.864 56.2651 159.864 36.6513V1.99459H152.467V36.9006C152.467 51.611 146.067 56.182 137.923 56.182C130.027 56.182 123.794 51.611 123.794 36.9006V1.99459H116.065V36.6513C116.065 56.2651 125.539 62.9139 137.923 62.9139Z" fill="#F0FE97"/>
<path d="M260.532 8.22879H270.754C280.312 8.22879 285.548 11.0545 285.548 19.1162C285.548 27.0116 280.312 30.8346 270.754 30.8346H260.532V8.22879ZM295.022 62.9149L279.398 36.2367C287.709 34.2421 293.194 28.5907 293.194 19.1162C293.194 6.40038 284.301 1.99557 271.918 1.99557H252.803V62.9149H260.532V37.0678H271.502L286.296 62.9149H295.022Z" fill="#F0FE97"/>
<path d="M321.295 63.9954C334.011 63.9954 341.989 56.3493 341.989 46.7085C341.989 37.6496 336.504 33.4941 329.44 30.4191L320.713 26.6791C315.976 24.6845 310.657 22.4405 310.657 16.5398C310.657 11.0545 315.145 7.56391 322.043 7.56391C327.694 7.56391 332.182 9.80787 335.922 13.2985L339.994 8.39501C335.673 3.90709 329.273 0.832031 322.043 0.832031C310.989 0.832031 302.844 7.64702 302.844 17.0384C302.844 25.9311 309.576 30.2528 315.228 32.663L324.037 36.4861C329.772 39.0625 334.177 41.0571 334.177 47.2903C334.177 53.2742 329.356 57.2635 321.378 57.2635C315.062 57.2635 308.911 54.2715 304.507 49.7005L299.936 54.9364C305.255 60.5047 312.651 63.9954 321.295 63.9954Z" fill="#F0FE97"/>
<path d="M353.93 62.9149H390V56.3493H361.659V34.159H384.764V27.5933H361.659V8.47812H389.086V1.99557H353.93V62.9149Z" fill="#F0FE97"/>
</svg>
