<svg width="78" height="86" viewBox="0 0 78 86" fill="none" xmlns="http://www.w3.org/2000/svg">
<rect x="0.5" y="1.31348" width="77" height="83.4729" stroke="white"/>
<path d="M38 72.2905L38 73.2905L40 73.2905L40 72.2905L38 72.2905ZM39.7071 19.6001C39.3166 19.2095 38.6834 19.2095 38.2929 19.6001L31.9289 25.964C31.5384 26.3546 31.5384 26.9877 31.9289 27.3782C32.3195 27.7688 32.9526 27.7688 33.3431 27.3782L39 21.7214L44.6569 27.3782C45.0474 27.7688 45.6805 27.7688 46.0711 27.3782C46.4616 26.9877 46.4616 26.3546 46.0711 25.964L39.7071 19.6001ZM40 72.2905L40 20.3072L38 20.3072L38 72.2905L40 72.2905Z" fill="white"/>
</svg>
