<svg width="103" height="29" viewBox="0 0 103 29" fill="none" xmlns="http://www.w3.org/2000/svg">
<path d="M20.6565 20.8457L20.6543 21.604L21.4395 21.6913L21.4417 20.9329L20.6565 20.8457Z" fill="black"/>
<path d="M7.58008 0.998047V2.94195L8.33393 3.02472V1.84137L24.0641 3.58843V21.2245L22.9166 21.097V21.8553L24.818 22.0678V2.91287L7.58008 0.998047Z" fill="black"/>
<path d="M8.33393 19.4774V6.80961L7.58008 6.72461V20.153L19.1854 21.4437L19.1876 20.6854L8.33393 19.4774Z" fill="black"/>
<path d="M19.1849 22.99L6.07416 21.5315V6.55738L5.32031 6.47461V22.207L19.1827 23.7483L19.1849 22.99Z" fill="black"/>
<path d="M5.32031 3.05176V4.99566L6.07416 5.08067V3.89509L21.8044 5.64214V23.2782L20.6568 23.1507V23.9113L22.5582 24.1215V4.96882L5.32031 3.05176Z" fill="black"/>
<path d="M3.06055 5.10742V24.2601L20.2984 26.1772V7.02225L3.06055 5.10742ZM19.5446 25.3339L3.8144 23.5868V5.94851L19.5446 7.6978V25.3339Z" fill="black"/>
<path d="M0.800781 7.16016V26.3129L18.0387 28.2277V9.07498L0.800781 7.16016Z" fill="black"/>
<path d="M34.1883 2.61038C34.3754 2.7962 34.5208 3.01985 34.6145 3.26636C34.7082 3.51287 34.7483 3.77656 34.7319 4.03978C34.7319 5.00764 34.4828 5.76447 33.9847 6.31028C33.4866 6.8561 32.7723 7.12826 31.8417 7.12677C31.2646 7.12677 30.6234 7.1044 29.918 7.05966L30.1685 5.62131L30.5175 2.14509L32.6694 2.11601C33.2204 2.0796 33.7643 2.25663 34.1883 2.61038ZM32.8842 5.59222C33.0452 5.31633 33.1257 4.87268 33.1257 4.26125C33.1467 4.00185 33.0931 3.74187 32.9714 3.51187C32.9129 3.43494 32.8358 3.37409 32.7474 3.33498C32.659 3.29586 32.5621 3.27976 32.4658 3.28817C32.2724 3.2881 32.079 3.2978 31.8865 3.31725L31.5688 5.46248L31.5308 5.94119C31.7494 5.97413 31.9698 5.9943 32.1907 6.00159C32.3329 6.00431 32.473 5.96747 32.5954 5.89519C32.7179 5.8229 32.8179 5.71801 32.8842 5.59222Z" fill="black"/>
<path d="M37.2177 3.30201L37.117 4.00218H37.8619L38.6583 3.97981L38.7276 4.08494L38.5039 5.20342L37.6382 5.17433H36.9537L36.909 5.4629L36.871 5.89687H37.6002L38.8708 5.84989L38.9379 5.95727L38.7142 7.06008H35.2402L35.4908 5.62172L35.8487 2.14551H39.3696L39.4367 2.25288L39.2041 3.34899L38.0029 3.30201H37.2177Z" fill="black"/>
<path d="M43.7498 2.48923C43.8934 2.61021 44.0069 2.7629 44.0815 2.93526C44.156 3.10761 44.1895 3.29493 44.1792 3.48243C44.1864 3.88137 44.0835 4.27456 43.8817 4.61879C43.6826 4.95231 43.3913 5.22111 43.0429 5.39278C42.6544 5.58464 42.2256 5.68053 41.7924 5.6724H41.345L41.2242 7.06378H39.7031L39.9537 5.61871L40.3049 2.1425H42.5552C42.9817 2.11486 43.4044 2.23754 43.7498 2.48923ZM42.4501 4.26089C42.5335 4.09782 42.5736 3.91601 42.5664 3.73297C42.5722 3.6599 42.5624 3.58644 42.5377 3.51742C42.5131 3.44841 42.474 3.3854 42.4233 3.33255C42.2951 3.23427 42.1374 3.18223 41.9759 3.18491L41.703 3.20728L41.4972 4.57629L42.0609 4.60761C42.2222 4.53124 42.3576 4.40911 42.4501 4.25641V4.26089Z" fill="black"/>
<path d="M48.5555 7.05995H47.0187L46.9874 6.24571V6.21439L46.2358 6.19873L45.605 6.23005L45.3679 7.05995H43.8848L45.9853 2.13867H47.8173L48.5555 7.05995ZM46.889 5.11157L46.7525 3.49203H46.6608L46.03 5.11157H46.464H46.889Z" fill="black"/>
<path d="M53.602 4.40943C53.4191 4.7152 53.1651 4.97228 52.8616 5.15881C53.1703 5.74041 53.4641 6.25491 53.7429 6.7023L53.7049 6.87007C53.1952 7.02236 52.6699 7.11617 52.139 7.14969L52.0093 7.0289L51.9042 6.71796C51.7968 6.40703 51.6805 6.03346 51.5306 5.59949H51.0139L50.8841 7.06692H49.3652L49.6292 5.62186L49.9782 2.14564H52.2308C52.6572 2.12128 53.0793 2.24277 53.4275 2.49013C53.5736 2.60502 53.6903 2.75293 53.7681 2.9217C53.8459 3.09047 53.8825 3.27529 53.8749 3.46097C53.8705 3.79586 53.7763 4.12342 53.602 4.40943ZM52.0965 3.31781C51.9657 3.2259 51.809 3.17809 51.6492 3.18135L51.3673 3.20372L51.1772 4.48101L51.7319 4.50339C51.8932 4.44472 52.0307 4.33469 52.1234 4.19021C52.2078 4.03711 52.2488 3.86384 52.2419 3.68913C52.2458 3.62043 52.2348 3.55169 52.2097 3.48761C52.1847 3.42353 52.146 3.36561 52.0965 3.31781Z" fill="black"/>
<path d="M58.3743 2.24605L58.1506 3.34886L57.1529 3.30189H57.0545L56.7503 5.46278L56.6138 7.05995H55.1017L55.3589 5.61489L55.6027 3.30189H55.5043L54.4843 3.34886L54.4082 3.24148L54.6319 2.13867H58.296L58.3743 2.24605Z" fill="black"/>
<path d="M63.856 7.06064H62.5138L62.6659 5.5686L62.7353 4.31367H62.6436L61.5564 6.59536H60.4156L60.0353 4.31367H59.9436L59.693 5.43215L59.4268 7.06735H58.1562L59.2367 2.14607H60.9927L61.0531 2.84624L61.2768 4.6358H61.3685L62.0597 2.89545L62.3349 2.1416H64.0596L63.856 7.06064Z" fill="black"/>
<path d="M66.7314 3.30201L66.6329 4.00218H67.3778L68.1764 3.97981L68.2458 4.08494L68.0221 5.20342L67.1474 5.18104H66.4629L66.416 5.46961L66.3779 5.90358H67.1094L68.3777 5.8566L68.4471 5.96398L68.2234 7.06679H64.7539L65.0044 5.62172L65.3623 2.14551H68.8833L68.9526 2.25288L68.7155 3.3557L67.5143 3.30872L66.7314 3.30201Z" fill="black"/>
<path d="M74.0302 5.45361L73.8915 7.05974H72.2429L71.1781 4.41343H71.0864L70.9723 5.27913L70.8135 7.06869H69.4355L69.6883 5.62362L70.0373 2.14741H71.6882L72.7596 4.78477H72.8514L73.1243 2.19215L74.5246 2.10938L74.0302 5.45361Z" fill="black"/>
<path d="M79.0225 2.24605L78.7988 3.34886L77.8033 3.30189H77.7049L77.4007 5.46278L77.2642 7.05995H75.7498L76.0093 5.61489L76.2531 3.30189H76.1547L75.1346 3.34886L75.0586 3.24148L75.2823 2.13867H78.9464L79.0225 2.24605Z" fill="black"/>
<path d="M87.6608 2.58464C88.0232 2.94255 88.2044 3.48613 88.2044 4.21537C88.214 4.73815 88.1062 5.25641 87.889 5.73202C87.6906 6.16303 87.3692 6.52572 86.9651 6.77444C86.5233 7.03467 86.017 7.16493 85.5044 7.15024C85.2238 7.16791 84.9425 7.12889 84.6773 7.03549C84.4122 6.9421 84.1685 6.79626 83.9609 6.60667C83.5955 6.24428 83.4136 5.69549 83.4151 4.96028C83.4024 4.44105 83.5072 3.92566 83.7215 3.45257C83.9218 3.02502 84.244 2.66623 84.6476 2.42134C85.0919 2.16332 85.5992 2.03397 86.1128 2.04777C86.3937 2.02873 86.6755 2.06645 86.9415 2.15869C87.2074 2.25093 87.4521 2.3958 87.6608 2.58464ZM85.4395 3.38547C85.2793 3.51683 85.1675 3.69789 85.1219 3.89996C85.0299 4.25088 84.99 4.61341 85.0033 4.97593C84.9986 5.19303 85.0189 5.40994 85.0637 5.62241C85.0856 5.74871 85.1543 5.86212 85.2561 5.94006C85.3812 6.01541 85.5264 6.05054 85.6722 6.04072C85.849 6.04577 86.0234 5.99829 86.1732 5.90427C86.3351 5.7736 86.4485 5.59245 86.4954 5.38977C86.5873 5.03885 86.6273 4.67632 86.6139 4.3138C86.6193 4.10367 86.6013 3.8936 86.5602 3.68746C86.539 3.55904 86.4704 3.44327 86.3679 3.3631C86.2421 3.28958 86.0972 3.25531 85.9518 3.26467C85.7727 3.25168 85.5939 3.29383 85.4395 3.38547Z" fill="black"/>
<path d="M90.5305 3.30229L90.4029 4.19707H90.9107L91.8055 4.1747L91.8749 4.28207L91.6512 5.38265L90.6848 5.36028H90.2374L90.224 5.46765L90.0853 7.06484H88.5664L88.817 5.61976L89.1749 2.14355H92.4453L92.5124 2.25092L92.2887 3.35374L91.0874 3.30676L90.5305 3.30229Z" fill="black"/>
<path d="M31.5661 13.0035L31.4274 14.6007H29.9062L30.1657 13.1556L30.5147 9.68164H32.0604L31.5661 13.0035Z" fill="black"/>
<path d="M36.9674 13.004L36.831 14.6079H35.1801L34.1176 11.9616H34.0259L33.9118 12.8273L33.7507 14.6168H32.375L32.6255 13.1718L32.9767 9.69778H34.6254L35.6991 12.3441H35.7886L36.0727 9.73804L37.4708 9.65527L36.9674 13.004Z" fill="black"/>
<path d="M41.9966 10.1564C42.1841 10.3424 42.3295 10.5665 42.4233 10.8134C42.517 11.0603 42.5569 11.3244 42.5402 11.588C42.5402 12.5544 42.2919 13.3127 41.7953 13.8563C41.2987 14.3999 40.5829 14.675 39.6523 14.675C39.0729 14.675 38.4309 14.6504 37.7285 14.6057L37.9791 13.1606L38.328 9.68661L40.48 9.65529C41.031 9.62202 41.5738 9.80136 41.9966 10.1564ZM40.6925 13.1382C40.8558 12.8653 40.9363 12.4202 40.9363 11.796C40.958 11.5364 40.9036 11.276 40.7797 11.0467C40.7213 10.9696 40.6443 10.9086 40.5558 10.8695C40.4674 10.8304 40.3705 10.8144 40.2742 10.823C40.0813 10.8225 39.8887 10.833 39.697 10.8543L39.3771 13.004L39.3391 13.4827C39.5614 13.5165 39.7855 13.5374 40.0102 13.5453C40.1504 13.5467 40.2882 13.5094 40.4085 13.4376C40.5289 13.3658 40.6271 13.2622 40.6925 13.1382Z" fill="black"/>
<path d="M47.4428 12.1814L47.3444 12.9643C47.324 13.2144 47.2528 13.4576 47.1351 13.6792C47.0174 13.9007 46.8557 14.0959 46.6599 14.2528C46.1917 14.5745 45.63 14.7319 45.0627 14.7002C44.5664 14.7287 44.0737 14.6012 43.6535 14.3356C43.4886 14.2181 43.3559 14.0611 43.2676 13.8789C43.1792 13.6968 43.1381 13.4954 43.1479 13.2932C43.1477 13.1839 43.1552 13.0748 43.1703 12.9666L43.2844 12.1836L43.5416 9.68945H45.0627L44.6153 12.7608C44.6153 12.8614 44.5997 12.9308 44.5997 12.9666C44.593 13.0407 44.6019 13.1154 44.6258 13.1859C44.6497 13.2564 44.688 13.3211 44.7384 13.3759C44.8654 13.4749 45.0255 13.5213 45.1858 13.5057C45.3814 13.5206 45.575 13.4579 45.7249 13.3312C45.8658 13.1743 45.9452 12.9717 45.9486 12.7608L46.2528 9.68945H47.7963L47.4428 12.1814Z" fill="black"/>
<path d="M52.0445 9.87234L51.6642 11.1027L51.4517 11.1944C51.2647 11.069 51.0644 10.9647 50.8544 10.8834C50.6989 10.8175 50.5332 10.7789 50.3646 10.7694C50.2579 10.7635 50.1521 10.7917 50.0626 10.8499C50.0292 10.8697 50.0015 10.8978 49.9823 10.9316C49.9631 10.9653 49.953 11.0034 49.953 11.0423C49.9547 11.0927 49.9691 11.142 49.9949 11.1854C50.0207 11.2288 50.0571 11.265 50.1006 11.2906C50.253 11.387 50.4123 11.4722 50.5771 11.5456C50.7898 11.6431 50.9967 11.7529 51.1967 11.8744C51.3655 11.9849 51.5113 12.1269 51.6262 12.2927C51.7505 12.4808 51.8138 12.7027 51.8074 12.928C51.8091 13.2487 51.7097 13.5618 51.5233 13.8228C51.3196 14.1068 51.044 14.3315 50.7247 14.4737C50.3577 14.6381 49.9591 14.7198 49.557 14.7131C49.0099 14.7085 48.4675 14.6109 47.9531 14.4245L48.3177 13.1092L48.4766 13.0175C48.689 13.1958 48.9283 13.3392 49.1857 13.4425C49.3921 13.5333 49.6136 13.5849 49.8389 13.5946C49.9515 13.6041 50.0641 13.5758 50.1588 13.5141C50.1891 13.492 50.2138 13.4631 50.2309 13.4296C50.248 13.3962 50.257 13.3593 50.2572 13.3217C50.2555 13.2681 50.2403 13.2157 50.2129 13.1696C50.1855 13.1234 50.1469 13.0849 50.1006 13.0578C49.9466 12.9581 49.785 12.8706 49.6174 12.796C49.408 12.7 49.2048 12.5909 49.009 12.4694C48.8443 12.357 48.7049 12.2115 48.5996 12.0422C48.4788 11.8545 48.418 11.6345 48.4251 11.4114C48.4238 11.0824 48.5246 10.7612 48.7137 10.492C48.9143 10.2052 49.1887 9.97796 49.5078 9.83431C49.8619 9.67149 50.2478 9.58972 50.6375 9.59496C51.1199 9.59702 51.5974 9.69117 52.0445 9.87234Z" fill="black"/>
<path d="M56.47 9.79126L56.2575 10.8941L55.2598 10.8493H55.1614L54.8616 13.0035L54.7252 14.6007H53.213L53.4702 13.1556L53.7141 10.8449H53.6156L52.5956 10.8896L52.5195 10.7845L52.7432 9.68164H56.4073L56.47 9.79126Z" fill="black"/>
<path d="M60.9031 11.9539C60.7193 12.2597 60.4646 12.5168 60.1604 12.7033C60.4713 13.2871 60.7644 13.8016 61.044 14.2468L61.006 14.4145C60.4961 14.5663 59.9709 14.6608 59.4401 14.6964L59.3104 14.5734L59.2052 14.2624C59.0979 13.9537 58.9733 13.5809 58.8317 13.144H58.3149L58.1852 14.6114H56.6641L56.9235 13.1663L57.2725 9.69235H59.5229C59.9503 9.66865 60.3731 9.79091 60.7219 10.0391C60.866 10.1545 60.9807 10.3025 61.0565 10.4709C61.1323 10.6393 61.1672 10.8232 61.1581 11.0077C61.1591 11.3402 61.0711 11.6669 60.9031 11.9539ZM59.3976 10.8645C59.2674 10.7711 59.1104 10.7224 58.9502 10.7258L58.6684 10.7504L58.4782 12.0277L59.033 12.0568C59.194 11.9989 59.3316 11.8896 59.4245 11.7459C59.5084 11.5926 59.5493 11.4194 59.543 11.2448C59.549 11.1747 59.5392 11.1042 59.5144 11.0384C59.4897 10.9727 59.4505 10.9132 59.3999 10.8645H59.3976Z" fill="black"/>
<path d="M63.4212 13.0039L63.2848 14.6011H61.7637L62.0232 13.1605L62.3721 9.68652H63.9156L63.4212 13.0039Z" fill="black"/>
<path d="M68.5597 14.6068H67.0229L66.9938 13.7926V13.7635L66.24 13.7478L65.6091 13.7769L65.3854 14.6068H63.9023L66.0006 9.68555H67.8327L68.5597 14.6068ZM66.8954 12.6607L66.7567 11.0411H66.6672L66.0342 12.6607H66.4681H66.8954Z" fill="black"/>
<path d="M72.2665 13.4714L72.0428 14.6056H69.1191L69.3697 13.1605L69.7209 9.68652H71.2644L70.7767 13.0039L70.7476 13.3618H72.1994L72.2665 13.4714Z" fill="black"/>
<path d="M80.4617 10.1559C80.6492 10.342 80.7947 10.566 80.8884 10.8129C80.9822 11.0598 81.022 11.324 81.0053 11.5876C81.0053 12.5539 80.757 13.3122 80.2604 13.8558C79.7638 14.3994 79.048 14.6745 78.1152 14.6745C77.5381 14.6745 76.896 14.6499 76.1914 14.6052L76.4419 13.1601L76.7842 9.68615L78.9361 9.65483C79.4902 9.61923 80.0367 9.79871 80.4617 10.1559ZM79.1576 13.1378C79.3187 12.8649 79.4014 12.4197 79.4014 11.7956C79.4216 11.536 79.3672 11.276 79.2448 11.0462C79.1864 10.9691 79.1094 10.9082 79.021 10.869C78.9325 10.8299 78.8356 10.8139 78.7393 10.8225C78.5465 10.822 78.3538 10.8325 78.1622 10.8538L77.8423 13.0035L77.8042 13.4822C78.0265 13.5161 78.2506 13.537 78.4753 13.5449C78.6154 13.5458 78.753 13.5083 78.8733 13.4365C78.9935 13.3647 79.0919 13.2614 79.1576 13.1378Z" fill="black"/>
<path d="M83.3447 10.8496L83.2462 11.5475H83.9911L84.7897 11.5251L84.8591 11.6325L84.6354 12.751L83.7607 12.7286H83.0717L83.0248 13.0172L82.9867 13.4511H83.7205L84.9888 13.4042L85.0581 13.5115L84.8345 14.6144H81.3672L81.62 13.1693L81.9756 9.69531H85.4966L85.5659 9.80045L85.3288 10.9033L84.1276 10.8585L83.3447 10.8496Z" fill="black"/>
<path d="M89.7593 9.87196L89.3791 11.1023L89.1665 11.194C88.9801 11.0678 88.7796 10.9634 88.5693 10.8831C88.4139 10.8167 88.2481 10.7781 88.0794 10.769C87.9734 10.7631 87.8684 10.7913 87.7796 10.8495C87.7458 10.869 87.7177 10.8971 87.6981 10.9308C87.6785 10.9645 87.668 11.0028 87.6678 11.0419C87.6699 11.0925 87.6848 11.1418 87.711 11.1852C87.7372 11.2286 87.7739 11.2647 87.8177 11.2902C87.9695 11.3862 88.128 11.4715 88.2919 11.5452C88.5049 11.6422 88.7118 11.752 88.9115 11.874C89.0815 11.9831 89.2275 12.1254 89.341 12.2923C89.4671 12.4797 89.5312 12.7019 89.5245 12.9276C89.5254 13.2486 89.4252 13.5616 89.2381 13.8224C89.0344 14.1064 88.7588 14.3311 88.4395 14.4734C88.0734 14.638 87.6755 14.7197 87.2741 14.7127C86.7262 14.7083 86.1831 14.6107 85.668 14.4241L86.0348 13.1088L86.1802 13.0037C86.3918 13.182 86.6304 13.3254 86.8871 13.4287C87.0936 13.5192 87.3151 13.5708 87.5403 13.5808C87.6529 13.5907 87.7656 13.5623 87.8602 13.5003C87.8915 13.4791 87.9169 13.4504 87.9342 13.4168C87.9514 13.3831 87.9598 13.3457 87.9586 13.3079C87.957 13.2545 87.942 13.2024 87.915 13.1563C87.888 13.1102 87.85 13.0716 87.8042 13.0439C87.6497 12.9452 87.4882 12.8578 87.3211 12.7822C87.1114 12.6866 86.9082 12.5775 86.7126 12.4556C86.5489 12.3478 86.4088 12.2078 86.301 12.044C86.1802 11.8563 86.1194 11.6363 86.1265 11.4132C86.1252 11.0843 86.226 10.763 86.4151 10.4938C86.617 10.2074 86.892 9.98032 87.2115 9.83617C87.562 9.67468 87.944 9.59293 88.3299 9.59681C88.8197 9.59483 89.3053 9.68829 89.7593 9.87196Z" fill="black"/>
<path d="M91.7709 13.0035L91.6344 14.6007H90.1133L90.3705 13.1556L90.7217 9.68164H92.2652L91.7709 13.0035Z" fill="black"/>
<path d="M96.6935 9.66196C96.9225 9.69383 97.1475 9.75008 97.3645 9.82973L96.8791 11.1719H96.7583C96.5589 11.0618 96.35 10.9697 96.1342 10.8967C95.942 10.8392 95.7421 10.8113 95.5414 10.814C95.3296 10.8051 95.1193 10.8538 94.933 10.9549C94.7493 11.0826 94.6181 11.2725 94.5639 11.4895C94.4606 11.8606 94.4153 12.2455 94.4297 12.6304C94.403 12.8877 94.4706 13.146 94.6198 13.3574C94.7084 13.4328 94.8114 13.4895 94.9225 13.5241C95.0336 13.5587 95.1505 13.5705 95.2663 13.5587C95.3587 13.5561 95.4508 13.5456 95.5414 13.5274L95.5705 13.2769L95.6466 12.4335L97.0469 12.3351L96.9395 13.0196L96.7718 14.3618C96.2259 14.5746 95.6463 14.6882 95.0605 14.6973C94.3477 14.6973 93.7996 14.5169 93.4163 14.156C93.2189 13.959 93.0655 13.7224 92.9664 13.4617C92.8673 13.201 92.8247 12.9222 92.8415 12.6438C92.8415 11.6655 93.1039 10.9139 93.6288 10.389C94.1523 9.86552 94.9106 9.60156 95.8971 9.60156C96.1637 9.6019 96.4299 9.62208 96.6935 9.66196Z" fill="black"/>
<path d="M102.268 13.0035L102.132 14.6074H100.483L99.4184 11.9611H99.3266L99.2126 12.8268L99.0515 14.6164H97.6758L97.9263 13.1713L98.2775 9.69734H99.9261L101 12.3436H101.089L101.365 9.74879L102.763 9.66602L102.268 13.0035Z" fill="black"/>
<path d="M30.5635 24.4929C30.3357 24.3272 30.0965 24.1777 29.8477 24.0456L30.2056 23.5825C30.4597 23.6996 30.7063 23.8326 30.9438 23.9807L30.5635 24.4929ZM30.9796 25.088C30.8341 25.5622 30.6641 26.0521 30.4897 26.4928L29.9125 26.1751C30.1229 25.7141 30.3066 25.2413 30.4628 24.7591L30.9796 25.088ZM30.729 23.3499C30.5002 23.1764 30.2578 23.0215 30.0042 22.8868L30.3756 22.4193C30.6335 22.5385 30.8818 22.6776 31.1182 22.8354L30.729 23.3499ZM32.3329 24.7591C32.2009 24.8084 32.0645 24.8509 31.9303 24.9001V25.777C31.9303 26.07 31.8855 26.24 31.7334 26.3451C31.5264 26.4508 31.2938 26.4958 31.0623 26.4749C31.0329 26.2589 30.9758 26.0476 30.8923 25.8463C31.0578 25.8463 31.2234 25.8463 31.2838 25.8463C31.3442 25.8463 31.3576 25.8329 31.3576 25.7725V25.0835L31.0534 25.1842L30.8297 24.5533C30.984 24.5198 31.163 24.4706 31.3621 24.4191V23.748H30.9527V23.153H31.3621V22.3992H31.9437V23.1508H32.2703V23.7413H31.9213V24.2648L32.2278 24.1775L32.3329 24.7591ZM34.0084 24.3543H33.7422V26.533H33.165V24.3543H32.9816C32.9816 25.0253 32.8854 25.938 32.4805 26.4928C32.3395 26.3508 32.1809 26.2276 32.0085 26.1259C32.3754 25.6069 32.4022 24.8374 32.4022 24.2536V22.7906C32.7859 22.6993 33.1575 22.5634 33.5095 22.3857L33.9681 22.8689C33.6489 23.0032 33.3189 23.1102 32.9816 23.1888V23.7682H34.0128L34.0084 24.3543Z" fill="black"/>
<path d="M35.5085 24.5888C35.3295 24.4636 34.9403 24.2533 34.6875 24.1168L35.023 23.6471C35.3095 23.7707 35.5895 23.9088 35.8619 24.0609L35.5085 24.5888ZM36.137 25.1212C35.9133 25.5798 35.6427 26.0518 35.3765 26.488L34.8441 26.0607C35.148 25.6247 35.4237 25.1697 35.6695 24.6984L36.137 25.1212ZM35.7299 23.4144C35.5644 23.2802 35.1975 23.0565 34.9582 22.9044L35.325 22.457C35.5487 22.5823 35.9312 22.7881 36.1191 22.9156L35.7299 23.4144ZM38.8035 25.6514V26.2889H35.8753V25.6514H36.9938V23.3697H36.1348V22.7322H38.6312V23.3697H37.6895V25.6514H38.8035Z" fill="black"/>
<path d="M41.0428 25.6805C40.5507 25.8505 40.0093 26.025 39.5731 26.1659L39.4277 25.5306C39.5709 25.4949 39.7431 25.4479 39.9288 25.3942V24.4614H39.5194V23.8798H39.9288V23.2087H39.4814V22.6226H40.9936V23.2087H40.5462V23.8798H40.9131V24.4614H40.5462V25.2152L40.9421 25.09L41.0428 25.6805ZM43.6287 25.8282V26.4008H40.8169V25.8282H41.9555V25.515H41.1054V24.9468H41.9555V24.6515H41.1166V22.5645H43.4542V24.6515H42.6154V24.9468H43.4923V25.515H42.6154V25.8282H43.6287ZM41.6893 23.3675H42.0159V23.1058H41.6893V23.3675ZM41.6893 24.1258H42.0159V23.8596H41.6893V24.1258ZM42.8413 23.1058H42.546V23.3675H42.8413V23.1058ZM42.8413 23.8596H42.546V24.1258H42.8413V23.8596Z" fill="black"/>
<path d="M48.3781 25.6109V26.2529H44.3516V25.6109H45.9711V23.4836H44.6021V22.8125H48.1208V23.4836H46.7004V25.6109H48.3781Z" fill="black"/>
<path d="M51.6173 24.1884C51.7375 24.5781 51.943 24.9361 52.2189 25.2363C52.4948 25.5366 52.8341 25.7716 53.2122 25.9243C53.0273 26.1025 52.8684 26.3058 52.7402 26.5283C52.0117 26.1845 51.4437 25.5732 51.1542 24.8215C51.0185 25.1951 50.8103 25.5382 50.5416 25.8311C50.2729 26.124 49.9489 26.3609 49.5884 26.5283C49.4627 26.3198 49.2997 26.1363 49.1074 25.9869C49.489 25.8356 49.828 25.5936 50.095 25.2818C50.362 24.97 50.549 24.5977 50.6397 24.1974H49.1947V23.5174H50.7449C50.7762 23.1326 50.7717 22.7501 50.7762 22.3877H51.4741C51.4741 22.7501 51.4741 23.1326 51.4294 23.5174H53.1071V24.1884H51.6173Z" fill="black"/>
<path d="M57.9158 25.4455H56.256V25.8504C56.256 26.1614 56.1822 26.3224 55.9518 26.4097C55.6664 26.4958 55.3679 26.5299 55.0704 26.5103C55.0128 26.2964 54.9271 26.091 54.8154 25.8996C55.0615 25.9131 55.406 25.9131 55.4865 25.8996C55.567 25.8862 55.6006 25.8817 55.6006 25.8236V25.4366H53.9766V24.8595H55.6006V24.6067C55.7187 24.5553 55.8337 24.497 55.9451 24.4322H54.7841V23.8864H56.6654L56.7951 23.8551L57.1978 24.175C56.9108 24.4335 56.5921 24.6545 56.2493 24.8326V24.8595H57.9091L57.9158 25.4455ZM54.6119 24.0788H54.0168V23.0699H54.6588C54.579 22.9315 54.49 22.7984 54.3926 22.6717L54.934 22.4324C55.0895 22.5994 55.2206 22.7877 55.3232 22.9916L55.1532 23.0699H55.7594C55.689 22.8926 55.6029 22.7219 55.5022 22.5599L56.0636 22.3496C56.2038 22.5366 56.3175 22.7421 56.4014 22.9603L56.1173 23.0699H56.6094C56.7425 22.865 56.857 22.6486 56.9517 22.4234L57.6228 22.6158C57.5132 22.7724 57.3991 22.9312 57.2917 23.0632H57.88V24.0765H57.2559V23.618H54.6119V24.0788Z" fill="black"/>
<path d="M62.7687 25.6109V26.2529H58.7422V25.6109H60.3617V23.4836H58.9905V22.8125H62.5092V23.4836H61.0887V25.6109H62.7687Z" fill="black"/>
<path d="M67.5353 25.7128V26.3459H63.5625V25.7128H64.6452V24.9701L64.0815 25.1715C63.9942 24.7241 63.775 23.9971 63.596 23.4378L64.1777 23.2633C64.3298 23.7107 64.5221 24.2543 64.6452 24.6816V22.4446H65.2984V25.7106H65.7883V22.4424H66.4437V24.6793C66.6492 24.2252 66.8161 23.7545 66.9425 23.2723L67.5197 23.5474C67.3333 24.1107 67.1091 24.6608 66.8486 25.1938L66.4392 24.9701V25.7038L67.5353 25.7128Z" fill="black"/>
<path d="M69.69 24.9565C69.7498 25.1412 69.8309 25.3183 69.9315 25.4844C69.1016 26.2315 68.9406 26.3792 68.8578 26.4932C68.783 26.2991 68.6781 26.1179 68.5469 25.9564C68.6157 25.9037 68.6716 25.836 68.7104 25.7585C68.7491 25.681 68.7697 25.5956 68.7706 25.509V24.3301H68.2852V23.7239H69.3678V25.2428L69.69 24.9565ZM69.2426 23.5382C69.0333 23.2752 68.7996 23.0325 68.5446 22.8135L68.9518 22.4287C69.2113 22.6313 69.4531 22.8559 69.6743 23.0998L69.2426 23.5382ZM72.1953 24.4062C72.0774 24.8867 71.8307 25.3259 71.4817 25.6768C71.7866 25.8212 72.1105 25.9214 72.4436 25.9743C72.2903 26.1428 72.1622 26.3327 72.0634 26.538C71.6685 26.4513 71.2906 26.3001 70.9449 26.0906C70.5669 26.2994 70.1597 26.4503 69.7369 26.538C69.6651 26.3428 69.5681 26.1578 69.4484 25.9877C69.7979 25.9405 70.1381 25.8402 70.4572 25.6902C70.2467 25.4724 70.0689 25.2253 69.9293 24.9565L70.1866 24.8692H69.8108V24.2809H71.701L71.8016 24.2585L72.1953 24.4062ZM70.7458 23.1065C70.7476 23.3506 70.6761 23.5897 70.5405 23.7927C70.4049 23.9957 70.2114 24.1533 69.9852 24.2451C69.8661 24.0749 69.7272 23.9195 69.5714 23.7821C70.1038 23.5584 70.1552 23.2765 70.1552 22.9879V22.5204H71.824V23.4465C71.824 23.5718 71.824 23.6299 71.8934 23.6299H72.088C72.1749 23.6296 72.2615 23.6176 72.3452 23.5942C72.3452 23.7507 72.3676 23.97 72.3899 24.1131C72.2959 24.1457 72.1963 24.1594 72.0969 24.1534H71.8441C71.3363 24.1534 71.2357 23.9297 71.2357 23.4376V23.1065H70.7458ZM70.5221 24.8603C70.6431 25.0511 70.7942 25.221 70.9695 25.3636C71.1355 25.2192 71.2774 25.0493 71.39 24.8603H70.5221Z" fill="black"/>
<path d="M74.7597 25.0295C74.8022 25.2333 74.8682 25.4315 74.9565 25.62C74.0394 26.2911 73.8604 26.4365 73.7687 26.5529C73.6955 26.3416 73.5923 26.1419 73.4622 25.9601C73.5361 25.9139 73.5977 25.8505 73.6417 25.7753C73.6858 25.7001 73.7109 25.6154 73.715 25.5283V24.3495H73.1133V23.7209H74.366V25.3069L74.7597 25.0295ZM74.149 23.5173C73.9252 23.2665 73.6797 23.0359 73.4153 22.8283L73.8157 22.4167C74.0875 22.608 74.342 22.8229 74.5762 23.0588L74.149 23.5173ZM77.2091 24.3897H76.2562V26.5394H75.5717V24.3897H74.5494V23.7186H75.5672V22.4033H76.2517V23.7186H77.2046L77.2091 24.3897Z" fill="black"/>
<path d="M79.3635 25.4272C79.0879 25.7681 78.7664 26.0692 78.4083 26.322C78.2346 26.1669 78.0492 26.0255 77.8535 25.8992C78.1872 25.724 78.4817 25.4828 78.7192 25.1901L79.3635 25.4272ZM80.2806 24.9463V25.8858C80.2806 26.1833 80.2247 26.3444 80.001 26.4406C79.744 26.5263 79.4726 26.5605 79.2024 26.5412C79.1572 26.3245 79.0819 26.1152 78.9787 25.9194C79.1823 25.9328 79.4664 25.9328 79.5446 25.9328C79.6229 25.9328 79.6408 25.9149 79.6408 25.8679V25.0045C78.7461 25.0827 78.5425 25.1118 78.3837 25.1745C78.3365 24.9857 78.2768 24.8004 78.2047 24.6197C78.4249 24.5773 78.636 24.4971 78.8288 24.3826C78.9429 24.3311 79.1353 24.2349 79.3657 24.1007C79.0903 24.1003 78.8159 24.1349 78.5492 24.2036C78.502 24.0227 78.4438 23.8449 78.3747 23.6712C78.4996 23.6443 78.6166 23.5892 78.717 23.5102C78.8709 23.4149 79.0168 23.3071 79.1532 23.1881C78.8601 23.2015 78.5671 23.2127 78.2875 23.2171C78.2637 23.0266 78.2125 22.8405 78.1354 22.6646C79.1527 22.6511 80.1665 22.5441 81.1642 22.3447L81.6116 22.8682C81.0957 22.9858 80.5726 23.0695 80.0457 23.1187C79.8506 23.298 79.6435 23.4639 79.4261 23.6153L80.1799 23.5795C80.3768 23.4364 80.5736 23.2842 80.7526 23.1321L81.2 23.5437C80.7426 23.9068 80.2494 24.2223 79.7281 24.4855L80.7056 24.4206L80.5155 24.2103L80.9897 23.962C81.3088 24.2663 81.5918 24.6063 81.833 24.9754L81.3364 25.2774C81.2598 25.1423 81.1746 25.0123 81.0814 24.8881L80.2806 24.9463ZM80.9517 25.17C81.3021 25.3906 81.627 25.6494 81.9203 25.9417L81.3521 26.3175C81.0753 26.0133 80.7655 25.741 80.4282 25.5055L80.9517 25.17Z" fill="black"/>
<path d="M30.0996 20.4529L31.3076 18.6007H30.2137V18.1689H31.9429V18.4776L30.7371 20.3298H31.9563V20.7638H30.0996V20.4529Z" fill="black"/>
<path d="M32.4141 18.1689H32.942V19.189H33.924V18.1689H34.4385V20.7638H33.924V19.6453H32.942V20.7638H32.423L32.4141 18.1689Z" fill="black"/>
<path d="M35.0684 18.1689H36.6588V18.5962H35.5873V19.1957H36.4978V19.6297H35.5873V20.3254H36.7058V20.7593H35.0773L35.0684 18.1689Z" fill="black"/>
<path d="M36.9805 20.3567L37.3384 20.095C37.3715 20.1713 37.4253 20.2368 37.4937 20.2842C37.5621 20.3316 37.6423 20.3591 37.7254 20.3634C37.9491 20.3634 38.0721 20.2426 38.0721 19.8847V18.1689H38.5911V19.9384C38.5911 20.4238 38.345 20.8331 37.788 20.8331C37.6217 20.8405 37.4569 20.7994 37.3135 20.7148C37.1701 20.6302 37.0544 20.5058 36.9805 20.3567Z" fill="black"/>
<path d="M39.2168 18.1689H39.7358V20.7638H39.2168V18.1689Z" fill="black"/>
<path d="M41.587 20.0976H40.7459L40.5647 20.7687H40.0391L40.869 18.1738H41.4797L42.314 20.7687H41.7705L41.587 20.0976ZM41.4752 19.695L41.3991 19.4109C41.3186 19.1424 41.247 18.8427 41.1754 18.5631H41.162C41.0949 18.8472 41.0166 19.1424 40.9383 19.4109L40.8623 19.695H41.4752Z" fill="black"/>
<path d="M42.6191 18.1689H43.1493L43.9031 19.5514L44.1626 20.1129H44.1805C44.1429 19.8114 44.1205 19.5083 44.1134 19.2047V18.1689H44.6033V20.7638H44.0776L43.3282 19.3769L43.0643 18.8177H43.0464C43.071 19.0995 43.1113 19.4239 43.1113 19.7236V20.7638H42.6191V18.1689Z" fill="black"/>
<path d="M45.1152 19.4781C45.1152 18.6235 45.67 18.1202 46.359 18.1202C46.5085 18.1181 46.6569 18.1465 46.795 18.2039C46.9331 18.2612 47.058 18.3461 47.162 18.4535L46.8847 18.7846C46.8209 18.7133 46.7425 18.6564 46.655 18.6178C46.5674 18.5792 46.4726 18.5598 46.3769 18.5609C45.9451 18.5609 45.6454 18.8965 45.6454 19.4557C45.6454 20.0149 45.9049 20.3505 46.4127 20.3505C46.5291 20.3552 46.6439 20.3214 46.7393 20.2543V19.742H46.2784V19.317H47.2001V20.4892C46.969 20.6953 46.6685 20.8064 46.359 20.8001C45.6521 20.8135 45.1152 20.3438 45.1152 19.4781Z" fill="black"/>
<path d="M48.377 20.4363L48.6745 20.0784C48.8514 20.2509 49.0853 20.3527 49.3321 20.3648C49.6028 20.3648 49.746 20.2507 49.746 20.0672C49.746 19.8838 49.5894 19.8145 49.3567 19.7183L49.01 19.5706C48.8608 19.5233 48.7299 19.4307 48.6357 19.3056C48.5415 19.1805 48.4886 19.0292 48.4843 18.8727C48.4843 18.4477 48.8557 18.1211 49.3791 18.1211C49.6838 18.1208 49.9763 18.2406 50.1934 18.4544L49.9428 18.781C49.7919 18.6446 49.5959 18.5689 49.3925 18.5685C49.1688 18.5685 49.019 18.6691 49.019 18.8414C49.019 19.0136 49.2046 19.0942 49.4238 19.1814L49.7639 19.3246C49.9168 19.3676 50.0511 19.4601 50.1458 19.5876C50.2405 19.7151 50.2903 19.8704 50.2873 20.0292C50.2873 20.4542 49.9339 20.8144 49.3344 20.8144C48.9784 20.8165 48.6354 20.6811 48.377 20.4363Z" fill="black"/>
<path d="M50.6113 19.4789C50.6113 18.6244 51.1616 18.1211 51.817 18.1211C51.9597 18.1225 52.1007 18.1527 52.2314 18.21C52.3621 18.2673 52.4799 18.3504 52.5776 18.4544L52.3047 18.7855C52.2445 18.718 52.1712 18.6634 52.0893 18.625C52.0074 18.5865 51.9186 18.565 51.8282 18.5618C51.4345 18.5618 51.1415 18.8973 51.1415 19.4566C51.1415 20.0158 51.4077 20.3513 51.8126 20.3513C51.915 20.3492 52.0158 20.3253 52.1083 20.2814C52.2009 20.2374 52.2831 20.1744 52.3494 20.0963L52.6246 20.4319C52.5243 20.5538 52.3978 20.6515 52.2545 20.7177C52.1112 20.784 51.9548 20.817 51.7969 20.8144C51.1415 20.8144 50.6113 20.3446 50.6113 19.4789Z" fill="black"/>
<path d="M53.0469 18.1689H53.5658V20.7638H53.0469V18.1689Z" fill="black"/>
<path d="M54.0527 19.5762H55.0101V19.9386H54.0527V19.5762Z" fill="black"/>
<path d="M55.8015 18.5958H55.0723V18.1641H57.0564V18.5958H56.3182V20.7589H55.8015V18.5958Z" fill="black"/>
<path d="M57.4746 18.1689H59.0651V18.5962H57.9936V19.1957H58.904V19.6297H57.9936V20.3254H59.1121V20.7593H57.4836L57.4746 18.1689Z" fill="black"/>
<path d="M59.5 19.4789C59.5 18.6244 60.0503 18.1211 60.7057 18.1211C60.8487 18.1227 60.9899 18.153 61.121 18.2103C61.252 18.2675 61.3702 18.3506 61.4685 18.4544L61.1934 18.7855C61.1331 18.718 61.0599 18.6634 60.978 18.625C60.8961 18.5865 60.8073 18.565 60.7169 18.5618C60.3254 18.5618 60.0302 18.8973 60.0302 19.4566C60.0302 20.0158 60.2964 20.3513 60.7012 20.3513C60.8037 20.3495 60.9046 20.3258 60.9972 20.2818C61.0898 20.2378 61.1719 20.1746 61.2381 20.0963L61.511 20.4184C61.4111 20.5402 61.2849 20.6378 61.142 20.704C60.9991 20.7703 60.8431 20.8034 60.6856 20.801C60.0346 20.8144 59.5 20.3446 59.5 19.4789Z" fill="black"/>
<path d="M61.9336 18.1689H62.4526V19.189H63.4346V18.1689H63.9491V20.7638H63.4346V19.6453H62.4526V20.7638H61.9336V18.1689Z" fill="black"/>
<path d="M65.377 19.5961V18.1689H65.8959V19.6431C65.8959 20.1822 66.0816 20.3634 66.3858 20.3634C66.69 20.3634 66.8914 20.1822 66.8914 19.6431V18.1689H67.3902V19.5961C67.3902 20.4596 67.0233 20.813 66.3881 20.813C65.7528 20.813 65.377 20.4596 65.377 19.5961Z" fill="black"/>
<path d="M68.0059 18.1689H68.536L69.2899 19.5514L69.5494 20.1129H69.5672C69.5296 19.8114 69.5072 19.5083 69.5001 19.2047V18.1689H69.99V20.7638H69.4644L68.715 19.3769L68.451 18.8177H68.4331C68.4577 19.0995 68.498 19.4239 68.498 19.7236V20.7638H68.0059V18.1689Z" fill="black"/>
<path d="M70.6328 18.1689H71.1518V20.7638H70.6328V18.1689Z" fill="black"/>
<path d="M71.4512 18.1689H71.9948L72.337 19.4328C72.4175 19.7191 72.4712 19.9786 72.5607 20.2694H72.5786C72.6591 19.9786 72.7195 19.7191 72.8023 19.4328L73.1378 18.1689H73.6523L72.8582 20.7638H72.2431L71.4512 18.1689Z" fill="black"/>
<path d="M73.9531 18.1689H75.5436V18.5962H74.4699V19.1957H75.3825V19.6297H74.4699V20.3254H75.5883V20.7593H73.9598L73.9531 18.1689Z" fill="black"/>
<path d="M77.5245 20.7638L76.9921 19.7818H76.6297V20.7638H76.1152V18.1689H77.01C77.5536 18.1689 77.9831 18.3591 77.9831 18.9541C77.9932 19.1155 77.9505 19.2758 77.8613 19.4106C77.772 19.5455 77.6412 19.6475 77.4887 19.7013L78.0949 20.7638H77.5245ZM76.6297 19.3724H76.9675C77.3008 19.3724 77.482 19.2315 77.482 18.9541C77.482 18.6767 77.3008 18.5805 76.9675 18.5805H76.6297V19.3724Z" fill="black"/>
<path d="M78.2715 20.4363L78.569 20.0784C78.7468 20.251 78.9814 20.3528 79.2289 20.3648C79.4996 20.3648 79.6427 20.2507 79.6427 20.0672C79.6427 19.8838 79.4839 19.8145 79.2535 19.7183L78.9068 19.5706C78.7573 19.5236 78.6263 19.431 78.5321 19.3059C78.4378 19.1808 78.3851 19.0293 78.3811 18.8727C78.3811 18.4477 78.7524 18.1211 79.2759 18.1211C79.5806 18.1208 79.8731 18.2406 80.0901 18.4544L79.8262 18.781C79.675 18.645 79.4792 18.5693 79.2759 18.5685C79.0522 18.5685 78.9001 18.6691 78.9001 18.8414C78.9001 19.0136 79.0857 19.0942 79.3072 19.1814L79.6472 19.3246C79.8001 19.3676 79.9344 19.4601 80.0291 19.5876C80.1238 19.7151 80.1736 19.8704 80.1706 20.0292C80.1706 20.4542 79.815 20.8144 79.2155 20.8144C78.8642 20.8126 78.5268 20.6775 78.2715 20.4363Z" fill="black"/>
<path d="M80.6328 18.1689H81.1518V20.7638H80.6328V18.1689Z" fill="black"/>
<path d="M82.3035 18.5958H81.5742V18.1641H83.5584V18.5958H82.8247V20.7589H82.3057L82.3035 18.5958Z" fill="black"/>
<path d="M84.3527 19.8131L83.5742 18.1689H84.1245L84.384 18.802C84.4578 18.9944 84.5272 19.1756 84.6077 19.3769H84.6144C84.6949 19.1756 84.7732 18.9944 84.8381 18.802L85.0976 18.1689H85.6367L84.8538 19.8131V20.7638H84.337L84.3527 19.8131Z" fill="black"/>
</svg>
